G75*
G70*
%OFA0B0*%
%FSLAX25Y25*%
%IPPOS*%
%LPD*%
%AMOC8*
5,1,8,0,0,1.08239X$1,22.5*
%
%ADD37C,0.00000*%
X0010000Y0010000D02*
G75*
%LPD*%
D37*
X0010000Y0010000D02*
X0090000Y0010000D01*
X0090000Y0090000D01*
X0010000Y0090000D01*
X0010000Y0010000D01*
X0010000Y0095000D02*
G75*
%LPD*%
D37*
X0010000Y0095000D02*
X0090000Y0095000D01*
X0090000Y0175000D01*
X0010000Y0175000D01*
X0010000Y0095000D01*
X0010000Y0180000D02*
G75*
%LPD*%
D37*
X0010000Y0180000D02*
X0090000Y0180000D01*
X0090000Y0260000D01*
X0010000Y0260000D01*
X0010000Y0180000D01*
X0095000Y0010000D02*
G75*
%LPD*%
D37*
X0095000Y0010000D02*
X0175000Y0010000D01*
X0175000Y0090000D01*
X0095000Y0090000D01*
X0095000Y0010000D01*
X0095000Y0095000D02*
G75*
%LPD*%
D37*
X0095000Y0095000D02*
X0175000Y0095000D01*
X0175000Y0175000D01*
X0095000Y0175000D01*
X0095000Y0095000D01*
X0095000Y0180000D02*
G75*
%LPD*%
D37*
X0095000Y0180000D02*
X0175000Y0180000D01*
X0175000Y0260000D01*
X0095000Y0260000D01*
X0095000Y0180000D01*
X0180000Y0010000D02*
G75*
%LPD*%
D37*
X0180000Y0010000D02*
X0260000Y0010000D01*
X0260000Y0090000D01*
X0180000Y0090000D01*
X0180000Y0010000D01*
X0180000Y0095000D02*
G75*
%LPD*%
D37*
X0180000Y0095000D02*
X0260000Y0095000D01*
X0260000Y0175000D01*
X0180000Y0175000D01*
X0180000Y0095000D01*
X0180000Y0180000D02*
G75*
%LPD*%
D37*
X0180000Y0180000D02*
X0260000Y0180000D01*
X0260000Y0260000D01*
X0180000Y0260000D01*
X0180000Y0180000D01*
M02*
