%
T01C0.023600
X2500Y1375
X3688Y1375
X4000Y3000
X5875Y4000
X6438Y4438
X6000Y4625
X6500Y5125
X7063Y4813
X7500Y4625
X6938Y4188
X6688Y3563
X7625Y3000
X6000Y2375
X2500Y5000
X1375Y6500
X1375Y6938
X4688Y6563
X6500Y6125
X7875Y7250
X2500Y9875
X3688Y9875
X4000Y11500
X5875Y12500
X6438Y12938
X6000Y13125
X6500Y13625
X7063Y13313
X7500Y13125
X6938Y12688
X6688Y12063
X7625Y11500
X6000Y10875
X2500Y13500
X1375Y15000
X1375Y15438
X4688Y15063
X6500Y14625
X7875Y15750
X2500Y18375
X3688Y18375
X4000Y20000
X5875Y21000
X6438Y21438
X6000Y21625
X6500Y22125
X7063Y21813
X7500Y21625
X6938Y21188
X6688Y20563
X7625Y20000
X6000Y19375
X2500Y22000
X1375Y23500
X1375Y23938
X4688Y23563
X6500Y23125
X7875Y24250
X11000Y1375
X12188Y1375
X12500Y3000
X14375Y4000
X14938Y4438
X14500Y4625
X15000Y5125
X15563Y4813
X16000Y4625
X15438Y4188
X15188Y3563
X16125Y3000
X14500Y2375
X11000Y5000
X9875Y6500
X9875Y6938
X13188Y6563
X15000Y6125
X16375Y7250
X11000Y9875
X12188Y9875
X12500Y11500
X14375Y12500
X14938Y12938
X14500Y13125
X15000Y13625
X15563Y13313
X16000Y13125
X15438Y12688
X15188Y12063
X16125Y11500
X14500Y10875
X11000Y13500
X9875Y15000
X9875Y15438
X13188Y15063
X15000Y14625
X16375Y15750
X11000Y18375
X12188Y18375
X12500Y20000
X14375Y21000
X14938Y21438
X14500Y21625
X15000Y22125
X15563Y21813
X16000Y21625
X15438Y21188
X15188Y20563
X16125Y20000
X14500Y19375
X11000Y22000
X9875Y23500
X9875Y23938
X13188Y23563
X15000Y23125
X16375Y24250
X19500Y1375
X20688Y1375
X21000Y3000
X22875Y4000
X23438Y4438
X23000Y4625
X23500Y5125
X24063Y4813
X24500Y4625
X23938Y4188
X23688Y3563
X24625Y3000
X23000Y2375
X19500Y5000
X18375Y6500
X18375Y6938
X21688Y6563
X23500Y6125
X24875Y7250
X19500Y9875
X20688Y9875
X21000Y11500
X22875Y12500
X23438Y12938
X23000Y13125
X23500Y13625
X24063Y13313
X24500Y13125
X23938Y12688
X23688Y12063
X24625Y11500
X23000Y10875
X19500Y13500
X18375Y15000
X18375Y15438
X21688Y15063
X23500Y14625
X24875Y15750
X19500Y18375
X20688Y18375
X21000Y20000
X22875Y21000
X23438Y21438
X23000Y21625
X23500Y22125
X24063Y21813
X24500Y21625
X23938Y21188
X23688Y20563
X24625Y20000
X23000Y19375
X19500Y22000
X18375Y23500
X18375Y23938
X21688Y23563
X23500Y23125
X24875Y24250
T02C0.040000
X8500Y2000
X7500Y2000
X6500Y2000
X5500Y2000
X4500Y2000
X3500Y2000
X2500Y2000
X1500Y2000
X1500Y8000
X2500Y8000
X3500Y8000
X4500Y8000
X5500Y8000
X6500Y8000
X7500Y8000
X8500Y8000
X8500Y10500
X7500Y10500
X6500Y10500
X5500Y10500
X4500Y10500
X3500Y10500
X2500Y10500
X1500Y10500
X1500Y16500
X2500Y16500
X3500Y16500
X4500Y16500
X5500Y16500
X6500Y16500
X7500Y16500
X8500Y16500
X8500Y19000
X7500Y19000
X6500Y19000
X5500Y19000
X4500Y19000
X3500Y19000
X2500Y19000
X1500Y19000
X1500Y25000
X2500Y25000
X3500Y25000
X4500Y25000
X5500Y25000
X6500Y25000
X7500Y25000
X8500Y25000
X17000Y2000
X16000Y2000
X15000Y2000
X14000Y2000
X13000Y2000
X12000Y2000
X11000Y2000
X10000Y2000
X10000Y8000
X11000Y8000
X12000Y8000
X13000Y8000
X14000Y8000
X15000Y8000
X16000Y8000
X17000Y8000
X17000Y10500
X16000Y10500
X15000Y10500
X14000Y10500
X13000Y10500
X12000Y10500
X11000Y10500
X10000Y10500
X10000Y16500
X11000Y16500
X12000Y16500
X13000Y16500
X14000Y16500
X15000Y16500
X16000Y16500
X17000Y16500
X17000Y19000
X16000Y19000
X15000Y19000
X14000Y19000
X13000Y19000
X12000Y19000
X11000Y19000
X10000Y19000
X10000Y25000
X11000Y25000
X12000Y25000
X13000Y25000
X14000Y25000
X15000Y25000
X16000Y25000
X17000Y25000
X25500Y2000
X24500Y2000
X23500Y2000
X22500Y2000
X21500Y2000
X20500Y2000
X19500Y2000
X18500Y2000
X18500Y8000
X19500Y8000
X20500Y8000
X21500Y8000
X22500Y8000
X23500Y8000
X24500Y8000
X25500Y8000
X25500Y10500
X24500Y10500
X23500Y10500
X22500Y10500
X21500Y10500
X20500Y10500
X19500Y10500
X18500Y10500
X18500Y16500
X19500Y16500
X20500Y16500
X21500Y16500
X22500Y16500
X23500Y16500
X24500Y16500
X25500Y16500
X25500Y19000
X24500Y19000
X23500Y19000
X22500Y19000
X21500Y19000
X20500Y19000
X19500Y19000
X18500Y19000
X18500Y25000
X19500Y25000
X20500Y25000
X21500Y25000
X22500Y25000
X23500Y25000
X24500Y25000
X25500Y25000
M30
