G75*
G70*
%OFA0B0*%
%FSLAX25Y25*%
%IPPOS*%
%LPD*%
%AMOC8*
5,1,8,0,0,1.08239X$1,22.5*
%
%ADD10C,0.00800*%
%ADD15R,0.01930X0.05980*%
X0010000Y0010000D02*
G75*
%LPD*%
D10*
X0010000Y0010000D02*
X0090000Y0010000D01*
X0090000Y0090000D01*
X0010000Y0090000D01*
X0010000Y0010000D01*
D10*
X0012490Y0012500D02*
X0013740Y0012500D01*
X0014160Y0012920D01*
X0014160Y0013330D01*
X0013740Y0013750D01*
X0012490Y0013750D01*
X0012490Y0012500D02*
X0012490Y0015000D01*
X0013740Y0015000D01*
X0014160Y0014590D01*
X0014160Y0014170D01*
X0013740Y0013750D01*
X0015250Y0014170D02*
X0016080Y0015000D01*
X0016080Y0012500D01*
X0015250Y0012500D02*
X0016920Y0012500D01*
X0019460Y0038750D02*
X0020710Y0038750D01*
X0021130Y0039170D01*
X0021130Y0040840D01*
X0020710Y0041250D01*
X0019460Y0041250D01*
X0019460Y0038750D01*
X0022230Y0039170D02*
X0022640Y0038750D01*
X0023480Y0038750D01*
X0023890Y0039170D01*
X0023890Y0039580D01*
X0023480Y0040000D01*
X0022640Y0040000D01*
X0022230Y0040420D01*
X0022230Y0040840D01*
X0022640Y0041250D01*
X0023480Y0041250D01*
X0023890Y0040840D01*
X0024990Y0040420D02*
X0025820Y0041250D01*
X0025820Y0038750D01*
X0024990Y0038750D02*
X0026660Y0038750D01*
X0027750Y0039170D02*
X0028170Y0038750D01*
X0029000Y0038750D01*
X0029420Y0039170D01*
X0029420Y0039580D01*
X0029000Y0040000D01*
X0028580Y0040000D01*
X0029000Y0040000D02*
X0029420Y0040420D01*
X0029420Y0040840D01*
X0029000Y0041250D01*
X0028170Y0041250D01*
X0027750Y0040840D01*
X0030510Y0040840D02*
X0030510Y0039170D01*
X0032180Y0040840D01*
X0032180Y0039170D01*
X0031760Y0038750D01*
X0030930Y0038750D01*
X0030510Y0039170D01*
X0030510Y0040840D02*
X0030930Y0041250D01*
X0031760Y0041250D01*
X0032180Y0040840D01*
X0033270Y0041250D02*
X0034940Y0041250D01*
X0034940Y0040840D01*
X0033270Y0039170D01*
X0033270Y0038750D01*
X0048440Y0048160D02*
X0048440Y0049340D01*
X0049620Y0049340D01*
X0050800Y0048160D01*
X0049920Y0049050D02*
X0048740Y0047870D01*
X0048440Y0048160D02*
X0049620Y0046980D01*
X0051330Y0045860D02*
X0051330Y0045270D01*
X0051330Y0045860D02*
X0051920Y0046450D01*
X0052510Y0046450D01*
X0052800Y0046160D01*
X0052800Y0045570D01*
X0053390Y0045570D01*
X0053690Y0045270D01*
X0053690Y0044680D01*
X0053100Y0044100D01*
X0052510Y0044100D01*
X0052510Y0045270D02*
X0052800Y0045570D01*
X0053280Y0047230D02*
X0053280Y0047820D01*
X0053870Y0048410D01*
X0054460Y0048410D01*
X0054760Y0048110D01*
X0054760Y0045750D01*
X0055940Y0046930D01*
X0056410Y0048000D02*
X0056120Y0048300D01*
X0056120Y0048890D01*
X0056710Y0049480D01*
X0057300Y0049480D01*
X0057590Y0049180D01*
X0057590Y0048590D01*
X0057000Y0048000D01*
X0056410Y0048000D01*
X0056120Y0048890D02*
X0055530Y0048890D01*
X0055240Y0049180D01*
X0055240Y0049770D01*
X0055830Y0050360D01*
X0056410Y0050360D01*
X0056710Y0050070D01*
X0056710Y0049480D01*
X0058070Y0050250D02*
X0058960Y0051130D01*
X0058960Y0051720D01*
X0058370Y0052310D01*
X0057780Y0052310D01*
X0056890Y0051430D01*
X0058660Y0049660D01*
X0055780Y0053140D02*
X0055190Y0053140D01*
X0054600Y0053730D01*
X0054600Y0054320D01*
X0055190Y0054910D01*
X0055780Y0054910D01*
X0056070Y0054610D01*
X0054890Y0053430D01*
X0055780Y0053140D02*
X0056370Y0053730D01*
X0057140Y0055090D02*
X0057730Y0055090D01*
X0058610Y0055970D01*
X0058910Y0055680D02*
X0057430Y0057150D01*
X0056550Y0056270D01*
X0056550Y0055680D01*
X0057140Y0055090D01*
X0058610Y0054800D02*
X0058910Y0055090D01*
X0058910Y0055680D01*
X0059090Y0057040D02*
X0059090Y0057630D01*
X0059980Y0058520D01*
X0059680Y0058810D02*
X0060570Y0057930D01*
X0059680Y0057040D01*
X0059090Y0057040D01*
X0058500Y0058220D02*
X0059090Y0058810D01*
X0059680Y0058810D01*
X0053820Y0052950D02*
X0054710Y0052070D01*
X0054120Y0051480D02*
X0053230Y0052360D01*
X0053230Y0052950D01*
X0053820Y0052950D01*
X0053230Y0052360D02*
X0052640Y0052360D01*
X0052350Y0052070D01*
X0053530Y0050890D01*
X0052160Y0049530D02*
X0050400Y0051290D01*
X0050980Y0051880D02*
X0049810Y0050700D01*
X0035830Y0071250D02*
X0034160Y0071250D01*
X0035830Y0072920D01*
X0034160Y0072920D01*
X0033070Y0072500D02*
X0031400Y0072500D01*
X0031400Y0071250D02*
X0031400Y0073750D01*
X0030350Y0072920D02*
X0029100Y0072080D01*
X0030350Y0071250D01*
X0029100Y0071250D02*
X0029100Y0073750D01*
X0028000Y0073340D02*
X0028000Y0072920D01*
X0026340Y0071250D01*
X0028000Y0071250D01*
X0028000Y0073340D02*
X0027590Y0073750D01*
X0026750Y0073750D01*
X0026340Y0073340D01*
X0025240Y0073340D02*
X0025240Y0072920D01*
X0024830Y0072500D01*
X0025240Y0072080D01*
X0025240Y0071670D01*
X0024830Y0071250D01*
X0023990Y0071250D01*
X0023570Y0071670D01*
X0024410Y0072500D02*
X0024830Y0072500D01*
X0025240Y0073340D02*
X0024830Y0073750D01*
X0023990Y0073750D01*
X0023570Y0073340D01*
X0033070Y0073750D02*
X0033070Y0071250D01*
X0033080Y0085630D02*
X0033080Y0086880D01*
X0032660Y0087290D01*
X0031410Y0087290D01*
X0031410Y0085630D01*
X0030310Y0085630D02*
X0029060Y0085630D01*
X0028640Y0086040D01*
X0029060Y0086460D01*
X0030310Y0086460D01*
X0030310Y0086880D02*
X0030310Y0085630D01*
X0030310Y0086880D02*
X0029900Y0087290D01*
X0029060Y0087290D01*
X0027550Y0087710D02*
X0027550Y0086040D01*
X0027130Y0085630D01*
X0025880Y0085630D01*
X0025880Y0088130D01*
X0027130Y0088130D01*
X0027550Y0087710D01*
X0034170Y0087290D02*
X0034590Y0087290D01*
X0034590Y0085630D01*
X0035000Y0085630D02*
X0034170Y0085630D01*
X0036010Y0086040D02*
X0036010Y0086880D01*
X0036430Y0087290D01*
X0037260Y0087290D01*
X0037680Y0086880D01*
X0037680Y0086460D01*
X0036010Y0086460D01*
X0036010Y0086040D02*
X0036430Y0085630D01*
X0037260Y0085630D01*
X0038770Y0085630D02*
X0039610Y0085630D01*
X0039190Y0085630D02*
X0039190Y0088130D01*
X0038770Y0088130D01*
X0034590Y0088130D02*
X0034590Y0088540D01*
X0043380Y0088130D02*
X0043380Y0085630D01*
X0043380Y0086460D02*
X0044630Y0086460D01*
X0045050Y0086880D01*
X0045050Y0087710D01*
X0044630Y0088130D01*
X0043380Y0088130D01*
X0044210Y0086460D02*
X0045050Y0085630D01*
X0046140Y0086040D02*
X0046140Y0086880D01*
X0046560Y0087290D01*
X0047390Y0087290D01*
X0047810Y0086880D01*
X0047810Y0086040D01*
X0047390Y0085630D01*
X0046560Y0085630D01*
X0046140Y0086040D01*
X0048900Y0084790D02*
X0049320Y0084790D01*
X0049740Y0085210D01*
X0049740Y0087290D01*
X0049740Y0088130D02*
X0049740Y0088540D01*
X0051160Y0087290D02*
X0051990Y0087290D01*
X0052410Y0086880D01*
X0052410Y0085630D01*
X0051160Y0085630D01*
X0050740Y0086040D01*
X0051160Y0086460D01*
X0052410Y0086460D01*
X0053510Y0086880D02*
X0053920Y0087290D01*
X0055170Y0087290D01*
X0054760Y0086460D02*
X0053920Y0086460D01*
X0053510Y0086880D01*
X0053510Y0085630D02*
X0054760Y0085630D01*
X0055170Y0086040D01*
X0054760Y0086460D01*
X0059030Y0086040D02*
X0060700Y0087710D01*
X0060700Y0086040D01*
X0060280Y0085630D01*
X0059450Y0085630D01*
X0059030Y0086040D01*
X0059030Y0087710D01*
X0059450Y0088130D01*
X0060280Y0088130D01*
X0060700Y0087710D01*
X0061790Y0086880D02*
X0063040Y0086880D01*
X0063460Y0086460D01*
X0063460Y0086040D01*
X0063040Y0085630D01*
X0062210Y0085630D01*
X0061790Y0086040D01*
X0061790Y0086880D01*
X0062630Y0087710D01*
X0063460Y0088130D01*
X0064560Y0085630D02*
X0066220Y0088130D01*
X0067320Y0087710D02*
X0067730Y0088130D01*
X0068570Y0088130D01*
X0068990Y0087710D01*
X0068990Y0087290D01*
X0067320Y0085630D01*
X0068990Y0085630D01*
X0070080Y0086040D02*
X0071750Y0087710D01*
X0071750Y0086040D01*
X0071330Y0085630D01*
X0070500Y0085630D01*
X0070080Y0086040D01*
X0070080Y0087710D01*
X0070500Y0088130D01*
X0071330Y0088130D01*
X0071750Y0087710D01*
X0072840Y0087290D02*
X0073680Y0088130D01*
X0073680Y0085630D01*
X0074510Y0085630D02*
X0072840Y0085630D01*
X0075600Y0086880D02*
X0077270Y0086880D01*
X0076860Y0085630D02*
X0076860Y0088130D01*
X0075600Y0086880D01*
X0082490Y0086670D02*
X0082490Y0085000D01*
X0082490Y0086250D02*
X0084160Y0086250D01*
X0084160Y0086670D02*
X0084160Y0085000D01*
X0085250Y0085420D02*
X0085250Y0085830D01*
X0085670Y0086250D01*
X0086500Y0086250D01*
X0086920Y0085830D01*
X0086920Y0085420D01*
X0086500Y0085000D01*
X0085670Y0085000D01*
X0085250Y0085420D01*
X0085670Y0086250D02*
X0085250Y0086670D01*
X0085250Y0087090D01*
X0085670Y0087500D01*
X0086500Y0087500D01*
X0086920Y0087090D01*
X0086920Y0086670D01*
X0086500Y0086250D01*
X0084160Y0086670D02*
X0083320Y0087500D01*
X0082490Y0086670D01*
X0016920Y0085000D02*
X0015250Y0085000D01*
X0016080Y0085000D02*
X0016080Y0087500D01*
X0015250Y0086670D01*
X0014160Y0086670D02*
X0014160Y0085000D01*
X0014160Y0086250D02*
X0012490Y0086250D01*
X0012490Y0086670D02*
X0012490Y0085000D01*
X0012490Y0086670D02*
X0013320Y0087500D01*
X0014160Y0086670D01*
X0082490Y0015000D02*
X0083740Y0015000D01*
X0084160Y0014590D01*
X0084160Y0014170D01*
X0083740Y0013750D01*
X0082490Y0013750D01*
X0083740Y0013750D02*
X0084160Y0013330D01*
X0084160Y0012920D01*
X0083740Y0012500D01*
X0082490Y0012500D01*
X0082490Y0015000D01*
X0085250Y0014590D02*
X0085250Y0014170D01*
X0085670Y0013750D01*
X0086500Y0013750D01*
X0086920Y0013330D01*
X0086920Y0012920D01*
X0086500Y0012500D01*
X0085670Y0012500D01*
X0085250Y0012920D01*
X0085250Y0013330D01*
X0085670Y0013750D01*
X0086500Y0013750D02*
X0086920Y0014170D01*
X0086920Y0014590D01*
X0086500Y0015000D01*
X0085670Y0015000D01*
X0085250Y0014590D01*
D10*
X0064740Y0030220D02*
X0062760Y0030220D01*
X0044230Y0048750D01*
X0063750Y0068270D01*
X0083270Y0048750D01*
X0064740Y0030220D01*
X0062340Y0033480D02*
X0062360Y0033710D01*
X0062420Y0033940D01*
X0062510Y0034150D01*
X0062640Y0034350D01*
X0062800Y0034520D01*
X0062980Y0034660D01*
X0063180Y0034770D01*
X0063400Y0034850D01*
X0063630Y0034890D01*
X0063870Y0034890D01*
X0064100Y0034850D01*
X0064320Y0034770D01*
X0064520Y0034660D01*
X0064700Y0034520D01*
X0064860Y0034350D01*
X0064990Y0034150D01*
X0065080Y0033940D01*
X0065140Y0033710D01*
X0065160Y0033480D01*
X0065140Y0033250D01*
X0065080Y0033020D01*
X0064990Y0032810D01*
X0064860Y0032610D01*
X0064700Y0032440D01*
X0064520Y0032300D01*
X0064320Y0032190D01*
X0064100Y0032110D01*
X0063870Y0032070D01*
X0063630Y0032070D01*
X0063400Y0032110D01*
X0063180Y0032190D01*
X0062980Y0032300D01*
X0062800Y0032440D01*
X0062640Y0032610D01*
X0062510Y0032810D01*
X0062420Y0033020D01*
X0062360Y0033250D01*
X0062340Y0033480D01*
D10*
X0036950Y0034180D02*
X0036950Y0051350D01*
X0018050Y0051350D01*
X0018050Y0053320D01*
X0018050Y0051350D02*
X0018050Y0034180D01*
X0036950Y0051350D02*
X0036950Y0053320D01*
D15*
X0035000Y0056700D03*
X0030000Y0056700D03*
X0025000Y0056700D03*
X0020000Y0056700D03*
X0020000Y0030800D03*
X0025000Y0030800D03*
X0030000Y0030800D03*
X0035000Y0030800D03*
D10*
X0010400Y0010400D02*
X0010400Y0090400D01*
X0010400Y0090400D02*
X0090400Y0090400D01*
X0090400Y0010400D01*
X0010400Y0010400D01*
X0010000Y0095000D02*
G75*
%LPD*%
D10*
X0010000Y0095000D02*
X0090000Y0095000D01*
X0090000Y0175000D01*
X0010000Y0175000D01*
X0010000Y0095000D01*
D10*
X0012490Y0097500D02*
X0013740Y0097500D01*
X0014160Y0097920D01*
X0014160Y0098330D01*
X0013740Y0098750D01*
X0012490Y0098750D01*
X0012490Y0097500D02*
X0012490Y0100000D01*
X0013740Y0100000D01*
X0014160Y0099590D01*
X0014160Y0099170D01*
X0013740Y0098750D01*
X0015250Y0099170D02*
X0016080Y0100000D01*
X0016080Y0097500D01*
X0015250Y0097500D02*
X0016920Y0097500D01*
X0019460Y0123750D02*
X0020710Y0123750D01*
X0021130Y0124170D01*
X0021130Y0125840D01*
X0020710Y0126250D01*
X0019460Y0126250D01*
X0019460Y0123750D01*
X0022230Y0124170D02*
X0022640Y0123750D01*
X0023480Y0123750D01*
X0023890Y0124170D01*
X0023890Y0124580D01*
X0023480Y0125000D01*
X0022640Y0125000D01*
X0022230Y0125420D01*
X0022230Y0125840D01*
X0022640Y0126250D01*
X0023480Y0126250D01*
X0023890Y0125840D01*
X0024990Y0125420D02*
X0025820Y0126250D01*
X0025820Y0123750D01*
X0024990Y0123750D02*
X0026660Y0123750D01*
X0027750Y0124170D02*
X0028170Y0123750D01*
X0029000Y0123750D01*
X0029420Y0124170D01*
X0029420Y0124580D01*
X0029000Y0125000D01*
X0028580Y0125000D01*
X0029000Y0125000D02*
X0029420Y0125420D01*
X0029420Y0125840D01*
X0029000Y0126250D01*
X0028170Y0126250D01*
X0027750Y0125840D01*
X0030510Y0125840D02*
X0030510Y0124170D01*
X0032180Y0125840D01*
X0032180Y0124170D01*
X0031760Y0123750D01*
X0030930Y0123750D01*
X0030510Y0124170D01*
X0030510Y0125840D02*
X0030930Y0126250D01*
X0031760Y0126250D01*
X0032180Y0125840D01*
X0033270Y0126250D02*
X0034940Y0126250D01*
X0034940Y0125840D01*
X0033270Y0124170D01*
X0033270Y0123750D01*
X0048440Y0133160D02*
X0048440Y0134340D01*
X0049620Y0134340D01*
X0050800Y0133160D01*
X0049920Y0134050D02*
X0048740Y0132870D01*
X0048440Y0133160D02*
X0049620Y0131980D01*
X0051330Y0130860D02*
X0051330Y0130270D01*
X0051330Y0130860D02*
X0051920Y0131450D01*
X0052510Y0131450D01*
X0052800Y0131160D01*
X0052800Y0130570D01*
X0053390Y0130570D01*
X0053690Y0130270D01*
X0053690Y0129680D01*
X0053100Y0129100D01*
X0052510Y0129100D01*
X0052510Y0130270D02*
X0052800Y0130570D01*
X0053280Y0132230D02*
X0053280Y0132820D01*
X0053870Y0133410D01*
X0054460Y0133410D01*
X0054760Y0133110D01*
X0054760Y0130750D01*
X0055940Y0131930D01*
X0056410Y0133000D02*
X0056120Y0133300D01*
X0056120Y0133890D01*
X0056710Y0134480D01*
X0057300Y0134480D01*
X0057590Y0134180D01*
X0057590Y0133590D01*
X0057000Y0133000D01*
X0056410Y0133000D01*
X0056120Y0133890D02*
X0055530Y0133890D01*
X0055240Y0134180D01*
X0055240Y0134770D01*
X0055830Y0135360D01*
X0056410Y0135360D01*
X0056710Y0135070D01*
X0056710Y0134480D01*
X0058070Y0135250D02*
X0058960Y0136130D01*
X0058960Y0136720D01*
X0058370Y0137310D01*
X0057780Y0137310D01*
X0056890Y0136430D01*
X0058660Y0134660D01*
X0055780Y0138140D02*
X0055190Y0138140D01*
X0054600Y0138730D01*
X0054600Y0139320D01*
X0055190Y0139910D01*
X0055780Y0139910D01*
X0056070Y0139610D01*
X0054890Y0138430D01*
X0055780Y0138140D02*
X0056370Y0138730D01*
X0057140Y0140090D02*
X0057730Y0140090D01*
X0058610Y0140970D01*
X0058910Y0140680D02*
X0057430Y0142150D01*
X0056550Y0141270D01*
X0056550Y0140680D01*
X0057140Y0140090D01*
X0058610Y0139800D02*
X0058910Y0140090D01*
X0058910Y0140680D01*
X0059090Y0142040D02*
X0059090Y0142630D01*
X0059980Y0143520D01*
X0059680Y0143810D02*
X0060570Y0142930D01*
X0059680Y0142040D01*
X0059090Y0142040D01*
X0058500Y0143220D02*
X0059090Y0143810D01*
X0059680Y0143810D01*
X0053820Y0137950D02*
X0054710Y0137070D01*
X0054120Y0136480D02*
X0053230Y0137360D01*
X0053230Y0137950D01*
X0053820Y0137950D01*
X0053230Y0137360D02*
X0052640Y0137360D01*
X0052350Y0137070D01*
X0053530Y0135890D01*
X0052160Y0134530D02*
X0050400Y0136290D01*
X0050980Y0136880D02*
X0049810Y0135700D01*
X0035830Y0156250D02*
X0034160Y0156250D01*
X0035830Y0157920D01*
X0034160Y0157920D01*
X0033070Y0157500D02*
X0031400Y0157500D01*
X0031400Y0156250D02*
X0031400Y0158750D01*
X0030350Y0157920D02*
X0029100Y0157080D01*
X0030350Y0156250D01*
X0029100Y0156250D02*
X0029100Y0158750D01*
X0028000Y0158340D02*
X0028000Y0157920D01*
X0026340Y0156250D01*
X0028000Y0156250D01*
X0028000Y0158340D02*
X0027590Y0158750D01*
X0026750Y0158750D01*
X0026340Y0158340D01*
X0025240Y0158340D02*
X0025240Y0157920D01*
X0024830Y0157500D01*
X0025240Y0157080D01*
X0025240Y0156670D01*
X0024830Y0156250D01*
X0023990Y0156250D01*
X0023570Y0156670D01*
X0024410Y0157500D02*
X0024830Y0157500D01*
X0025240Y0158340D02*
X0024830Y0158750D01*
X0023990Y0158750D01*
X0023570Y0158340D01*
X0033070Y0158750D02*
X0033070Y0156250D01*
X0033080Y0170630D02*
X0033080Y0171880D01*
X0032660Y0172290D01*
X0031410Y0172290D01*
X0031410Y0170630D01*
X0030310Y0170630D02*
X0029060Y0170630D01*
X0028640Y0171040D01*
X0029060Y0171460D01*
X0030310Y0171460D01*
X0030310Y0171880D02*
X0030310Y0170630D01*
X0030310Y0171880D02*
X0029900Y0172290D01*
X0029060Y0172290D01*
X0027550Y0172710D02*
X0027550Y0171040D01*
X0027130Y0170630D01*
X0025880Y0170630D01*
X0025880Y0173130D01*
X0027130Y0173130D01*
X0027550Y0172710D01*
X0034170Y0172290D02*
X0034590Y0172290D01*
X0034590Y0170630D01*
X0035000Y0170630D02*
X0034170Y0170630D01*
X0036010Y0171040D02*
X0036010Y0171880D01*
X0036430Y0172290D01*
X0037260Y0172290D01*
X0037680Y0171880D01*
X0037680Y0171460D01*
X0036010Y0171460D01*
X0036010Y0171040D02*
X0036430Y0170630D01*
X0037260Y0170630D01*
X0038770Y0170630D02*
X0039610Y0170630D01*
X0039190Y0170630D02*
X0039190Y0173130D01*
X0038770Y0173130D01*
X0034590Y0173130D02*
X0034590Y0173540D01*
X0043380Y0173130D02*
X0043380Y0170630D01*
X0043380Y0171460D02*
X0044630Y0171460D01*
X0045050Y0171880D01*
X0045050Y0172710D01*
X0044630Y0173130D01*
X0043380Y0173130D01*
X0044210Y0171460D02*
X0045050Y0170630D01*
X0046140Y0171040D02*
X0046140Y0171880D01*
X0046560Y0172290D01*
X0047390Y0172290D01*
X0047810Y0171880D01*
X0047810Y0171040D01*
X0047390Y0170630D01*
X0046560Y0170630D01*
X0046140Y0171040D01*
X0048900Y0169790D02*
X0049320Y0169790D01*
X0049740Y0170210D01*
X0049740Y0172290D01*
X0049740Y0173130D02*
X0049740Y0173540D01*
X0051160Y0172290D02*
X0051990Y0172290D01*
X0052410Y0171880D01*
X0052410Y0170630D01*
X0051160Y0170630D01*
X0050740Y0171040D01*
X0051160Y0171460D01*
X0052410Y0171460D01*
X0053510Y0171880D02*
X0053920Y0172290D01*
X0055170Y0172290D01*
X0054760Y0171460D02*
X0053920Y0171460D01*
X0053510Y0171880D01*
X0053510Y0170630D02*
X0054760Y0170630D01*
X0055170Y0171040D01*
X0054760Y0171460D01*
X0059030Y0171040D02*
X0060700Y0172710D01*
X0060700Y0171040D01*
X0060280Y0170630D01*
X0059450Y0170630D01*
X0059030Y0171040D01*
X0059030Y0172710D01*
X0059450Y0173130D01*
X0060280Y0173130D01*
X0060700Y0172710D01*
X0061790Y0171880D02*
X0063040Y0171880D01*
X0063460Y0171460D01*
X0063460Y0171040D01*
X0063040Y0170630D01*
X0062210Y0170630D01*
X0061790Y0171040D01*
X0061790Y0171880D01*
X0062630Y0172710D01*
X0063460Y0173130D01*
X0064560Y0170630D02*
X0066220Y0173130D01*
X0067320Y0172710D02*
X0067730Y0173130D01*
X0068570Y0173130D01*
X0068990Y0172710D01*
X0068990Y0172290D01*
X0067320Y0170630D01*
X0068990Y0170630D01*
X0070080Y0171040D02*
X0071750Y0172710D01*
X0071750Y0171040D01*
X0071330Y0170630D01*
X0070500Y0170630D01*
X0070080Y0171040D01*
X0070080Y0172710D01*
X0070500Y0173130D01*
X0071330Y0173130D01*
X0071750Y0172710D01*
X0072840Y0172290D02*
X0073680Y0173130D01*
X0073680Y0170630D01*
X0074510Y0170630D02*
X0072840Y0170630D01*
X0075600Y0171880D02*
X0077270Y0171880D01*
X0076860Y0170630D02*
X0076860Y0173130D01*
X0075600Y0171880D01*
X0082490Y0171670D02*
X0082490Y0170000D01*
X0082490Y0171250D02*
X0084160Y0171250D01*
X0084160Y0171670D02*
X0084160Y0170000D01*
X0085250Y0170420D02*
X0085250Y0170830D01*
X0085670Y0171250D01*
X0086500Y0171250D01*
X0086920Y0170830D01*
X0086920Y0170420D01*
X0086500Y0170000D01*
X0085670Y0170000D01*
X0085250Y0170420D01*
X0085670Y0171250D02*
X0085250Y0171670D01*
X0085250Y0172090D01*
X0085670Y0172500D01*
X0086500Y0172500D01*
X0086920Y0172090D01*
X0086920Y0171670D01*
X0086500Y0171250D01*
X0084160Y0171670D02*
X0083320Y0172500D01*
X0082490Y0171670D01*
X0016920Y0170000D02*
X0015250Y0170000D01*
X0016080Y0170000D02*
X0016080Y0172500D01*
X0015250Y0171670D01*
X0014160Y0171670D02*
X0014160Y0170000D01*
X0014160Y0171250D02*
X0012490Y0171250D01*
X0012490Y0171670D02*
X0012490Y0170000D01*
X0012490Y0171670D02*
X0013320Y0172500D01*
X0014160Y0171670D01*
X0082490Y0100000D02*
X0083740Y0100000D01*
X0084160Y0099590D01*
X0084160Y0099170D01*
X0083740Y0098750D01*
X0082490Y0098750D01*
X0083740Y0098750D02*
X0084160Y0098330D01*
X0084160Y0097920D01*
X0083740Y0097500D01*
X0082490Y0097500D01*
X0082490Y0100000D01*
X0085250Y0099590D02*
X0085250Y0099170D01*
X0085670Y0098750D01*
X0086500Y0098750D01*
X0086920Y0098330D01*
X0086920Y0097920D01*
X0086500Y0097500D01*
X0085670Y0097500D01*
X0085250Y0097920D01*
X0085250Y0098330D01*
X0085670Y0098750D01*
X0086500Y0098750D02*
X0086920Y0099170D01*
X0086920Y0099590D01*
X0086500Y0100000D01*
X0085670Y0100000D01*
X0085250Y0099590D01*
D10*
X0064740Y0115220D02*
X0062760Y0115220D01*
X0044230Y0133750D01*
X0063750Y0153270D01*
X0083270Y0133750D01*
X0064740Y0115220D01*
X0062340Y0118480D02*
X0062360Y0118710D01*
X0062420Y0118940D01*
X0062510Y0119150D01*
X0062640Y0119350D01*
X0062800Y0119520D01*
X0062980Y0119660D01*
X0063180Y0119770D01*
X0063400Y0119850D01*
X0063630Y0119890D01*
X0063870Y0119890D01*
X0064100Y0119850D01*
X0064320Y0119770D01*
X0064520Y0119660D01*
X0064700Y0119520D01*
X0064860Y0119350D01*
X0064990Y0119150D01*
X0065080Y0118940D01*
X0065140Y0118710D01*
X0065160Y0118480D01*
X0065140Y0118250D01*
X0065080Y0118020D01*
X0064990Y0117810D01*
X0064860Y0117610D01*
X0064700Y0117440D01*
X0064520Y0117300D01*
X0064320Y0117190D01*
X0064100Y0117110D01*
X0063870Y0117070D01*
X0063630Y0117070D01*
X0063400Y0117110D01*
X0063180Y0117190D01*
X0062980Y0117300D01*
X0062800Y0117440D01*
X0062640Y0117610D01*
X0062510Y0117810D01*
X0062420Y0118020D01*
X0062360Y0118250D01*
X0062340Y0118480D01*
D10*
X0036950Y0119180D02*
X0036950Y0136350D01*
X0018050Y0136350D01*
X0018050Y0138320D01*
X0018050Y0136350D02*
X0018050Y0119180D01*
X0036950Y0136350D02*
X0036950Y0138320D01*
D15*
X0035000Y0141700D03*
X0030000Y0141700D03*
X0025000Y0141700D03*
X0020000Y0141700D03*
X0020000Y0115800D03*
X0025000Y0115800D03*
X0030000Y0115800D03*
X0035000Y0115800D03*
D10*
X0010400Y0094600D02*
X0010400Y0175400D01*
X0010400Y0175400D02*
X0090400Y0175400D01*
X0090400Y0094600D01*
X0010400Y0094600D01*
X0010000Y0180000D02*
G75*
%LPD*%
D10*
X0010000Y0180000D02*
X0090000Y0180000D01*
X0090000Y0260000D01*
X0010000Y0260000D01*
X0010000Y0180000D01*
D10*
X0012490Y0182500D02*
X0013740Y0182500D01*
X0014160Y0182920D01*
X0014160Y0183330D01*
X0013740Y0183750D01*
X0012490Y0183750D01*
X0012490Y0182500D02*
X0012490Y0185000D01*
X0013740Y0185000D01*
X0014160Y0184590D01*
X0014160Y0184170D01*
X0013740Y0183750D01*
X0015250Y0184170D02*
X0016080Y0185000D01*
X0016080Y0182500D01*
X0015250Y0182500D02*
X0016920Y0182500D01*
X0019460Y0208750D02*
X0020710Y0208750D01*
X0021130Y0209170D01*
X0021130Y0210840D01*
X0020710Y0211250D01*
X0019460Y0211250D01*
X0019460Y0208750D01*
X0022230Y0209170D02*
X0022640Y0208750D01*
X0023480Y0208750D01*
X0023890Y0209170D01*
X0023890Y0209580D01*
X0023480Y0210000D01*
X0022640Y0210000D01*
X0022230Y0210420D01*
X0022230Y0210840D01*
X0022640Y0211250D01*
X0023480Y0211250D01*
X0023890Y0210840D01*
X0024990Y0210420D02*
X0025820Y0211250D01*
X0025820Y0208750D01*
X0024990Y0208750D02*
X0026660Y0208750D01*
X0027750Y0209170D02*
X0028170Y0208750D01*
X0029000Y0208750D01*
X0029420Y0209170D01*
X0029420Y0209580D01*
X0029000Y0210000D01*
X0028580Y0210000D01*
X0029000Y0210000D02*
X0029420Y0210420D01*
X0029420Y0210840D01*
X0029000Y0211250D01*
X0028170Y0211250D01*
X0027750Y0210840D01*
X0030510Y0210840D02*
X0030510Y0209170D01*
X0032180Y0210840D01*
X0032180Y0209170D01*
X0031760Y0208750D01*
X0030930Y0208750D01*
X0030510Y0209170D01*
X0030510Y0210840D02*
X0030930Y0211250D01*
X0031760Y0211250D01*
X0032180Y0210840D01*
X0033270Y0211250D02*
X0034940Y0211250D01*
X0034940Y0210840D01*
X0033270Y0209170D01*
X0033270Y0208750D01*
X0048440Y0218160D02*
X0048440Y0219340D01*
X0049620Y0219340D01*
X0050800Y0218160D01*
X0049920Y0219050D02*
X0048740Y0217870D01*
X0048440Y0218160D02*
X0049620Y0216980D01*
X0051330Y0215860D02*
X0051330Y0215270D01*
X0051330Y0215860D02*
X0051920Y0216450D01*
X0052510Y0216450D01*
X0052800Y0216160D01*
X0052800Y0215570D01*
X0053390Y0215570D01*
X0053690Y0215270D01*
X0053690Y0214680D01*
X0053100Y0214100D01*
X0052510Y0214100D01*
X0052510Y0215270D02*
X0052800Y0215570D01*
X0053280Y0217230D02*
X0053280Y0217820D01*
X0053870Y0218410D01*
X0054460Y0218410D01*
X0054760Y0218110D01*
X0054760Y0215750D01*
X0055940Y0216930D01*
X0056410Y0218000D02*
X0056120Y0218300D01*
X0056120Y0218890D01*
X0056710Y0219480D01*
X0057300Y0219480D01*
X0057590Y0219180D01*
X0057590Y0218590D01*
X0057000Y0218000D01*
X0056410Y0218000D01*
X0056120Y0218890D02*
X0055530Y0218890D01*
X0055240Y0219180D01*
X0055240Y0219770D01*
X0055830Y0220360D01*
X0056410Y0220360D01*
X0056710Y0220070D01*
X0056710Y0219480D01*
X0058070Y0220250D02*
X0058960Y0221130D01*
X0058960Y0221720D01*
X0058370Y0222310D01*
X0057780Y0222310D01*
X0056890Y0221430D01*
X0058660Y0219660D01*
X0055780Y0223140D02*
X0055190Y0223140D01*
X0054600Y0223730D01*
X0054600Y0224320D01*
X0055190Y0224910D01*
X0055780Y0224910D01*
X0056070Y0224610D01*
X0054890Y0223430D01*
X0055780Y0223140D02*
X0056370Y0223730D01*
X0057140Y0225090D02*
X0057730Y0225090D01*
X0058610Y0225970D01*
X0058910Y0225680D02*
X0057430Y0227150D01*
X0056550Y0226270D01*
X0056550Y0225680D01*
X0057140Y0225090D01*
X0058610Y0224800D02*
X0058910Y0225090D01*
X0058910Y0225680D01*
X0059090Y0227040D02*
X0059090Y0227630D01*
X0059980Y0228520D01*
X0059680Y0228810D02*
X0060570Y0227930D01*
X0059680Y0227040D01*
X0059090Y0227040D01*
X0058500Y0228220D02*
X0059090Y0228810D01*
X0059680Y0228810D01*
X0053820Y0222950D02*
X0054710Y0222070D01*
X0054120Y0221480D02*
X0053230Y0222360D01*
X0053230Y0222950D01*
X0053820Y0222950D01*
X0053230Y0222360D02*
X0052640Y0222360D01*
X0052350Y0222070D01*
X0053530Y0220890D01*
X0052160Y0219530D02*
X0050400Y0221290D01*
X0050980Y0221880D02*
X0049810Y0220700D01*
X0035830Y0241250D02*
X0034160Y0241250D01*
X0035830Y0242920D01*
X0034160Y0242920D01*
X0033070Y0242500D02*
X0031400Y0242500D01*
X0031400Y0241250D02*
X0031400Y0243750D01*
X0030350Y0242920D02*
X0029100Y0242080D01*
X0030350Y0241250D01*
X0029100Y0241250D02*
X0029100Y0243750D01*
X0028000Y0243340D02*
X0028000Y0242920D01*
X0026340Y0241250D01*
X0028000Y0241250D01*
X0028000Y0243340D02*
X0027590Y0243750D01*
X0026750Y0243750D01*
X0026340Y0243340D01*
X0025240Y0243340D02*
X0025240Y0242920D01*
X0024830Y0242500D01*
X0025240Y0242080D01*
X0025240Y0241670D01*
X0024830Y0241250D01*
X0023990Y0241250D01*
X0023570Y0241670D01*
X0024410Y0242500D02*
X0024830Y0242500D01*
X0025240Y0243340D02*
X0024830Y0243750D01*
X0023990Y0243750D01*
X0023570Y0243340D01*
X0033070Y0243750D02*
X0033070Y0241250D01*
X0033080Y0255630D02*
X0033080Y0256880D01*
X0032660Y0257290D01*
X0031410Y0257290D01*
X0031410Y0255630D01*
X0030310Y0255630D02*
X0029060Y0255630D01*
X0028640Y0256040D01*
X0029060Y0256460D01*
X0030310Y0256460D01*
X0030310Y0256880D02*
X0030310Y0255630D01*
X0030310Y0256880D02*
X0029900Y0257290D01*
X0029060Y0257290D01*
X0027550Y0257710D02*
X0027550Y0256040D01*
X0027130Y0255630D01*
X0025880Y0255630D01*
X0025880Y0258130D01*
X0027130Y0258130D01*
X0027550Y0257710D01*
X0034170Y0257290D02*
X0034590Y0257290D01*
X0034590Y0255630D01*
X0035000Y0255630D02*
X0034170Y0255630D01*
X0036010Y0256040D02*
X0036010Y0256880D01*
X0036430Y0257290D01*
X0037260Y0257290D01*
X0037680Y0256880D01*
X0037680Y0256460D01*
X0036010Y0256460D01*
X0036010Y0256040D02*
X0036430Y0255630D01*
X0037260Y0255630D01*
X0038770Y0255630D02*
X0039610Y0255630D01*
X0039190Y0255630D02*
X0039190Y0258130D01*
X0038770Y0258130D01*
X0034590Y0258130D02*
X0034590Y0258540D01*
X0043380Y0258130D02*
X0043380Y0255630D01*
X0043380Y0256460D02*
X0044630Y0256460D01*
X0045050Y0256880D01*
X0045050Y0257710D01*
X0044630Y0258130D01*
X0043380Y0258130D01*
X0044210Y0256460D02*
X0045050Y0255630D01*
X0046140Y0256040D02*
X0046140Y0256880D01*
X0046560Y0257290D01*
X0047390Y0257290D01*
X0047810Y0256880D01*
X0047810Y0256040D01*
X0047390Y0255630D01*
X0046560Y0255630D01*
X0046140Y0256040D01*
X0048900Y0254790D02*
X0049320Y0254790D01*
X0049740Y0255210D01*
X0049740Y0257290D01*
X0049740Y0258130D02*
X0049740Y0258540D01*
X0051160Y0257290D02*
X0051990Y0257290D01*
X0052410Y0256880D01*
X0052410Y0255630D01*
X0051160Y0255630D01*
X0050740Y0256040D01*
X0051160Y0256460D01*
X0052410Y0256460D01*
X0053510Y0256880D02*
X0053920Y0257290D01*
X0055170Y0257290D01*
X0054760Y0256460D02*
X0053920Y0256460D01*
X0053510Y0256880D01*
X0053510Y0255630D02*
X0054760Y0255630D01*
X0055170Y0256040D01*
X0054760Y0256460D01*
X0059030Y0256040D02*
X0060700Y0257710D01*
X0060700Y0256040D01*
X0060280Y0255630D01*
X0059450Y0255630D01*
X0059030Y0256040D01*
X0059030Y0257710D01*
X0059450Y0258130D01*
X0060280Y0258130D01*
X0060700Y0257710D01*
X0061790Y0256880D02*
X0063040Y0256880D01*
X0063460Y0256460D01*
X0063460Y0256040D01*
X0063040Y0255630D01*
X0062210Y0255630D01*
X0061790Y0256040D01*
X0061790Y0256880D01*
X0062630Y0257710D01*
X0063460Y0258130D01*
X0064560Y0255630D02*
X0066220Y0258130D01*
X0067320Y0257710D02*
X0067730Y0258130D01*
X0068570Y0258130D01*
X0068990Y0257710D01*
X0068990Y0257290D01*
X0067320Y0255630D01*
X0068990Y0255630D01*
X0070080Y0256040D02*
X0071750Y0257710D01*
X0071750Y0256040D01*
X0071330Y0255630D01*
X0070500Y0255630D01*
X0070080Y0256040D01*
X0070080Y0257710D01*
X0070500Y0258130D01*
X0071330Y0258130D01*
X0071750Y0257710D01*
X0072840Y0257290D02*
X0073680Y0258130D01*
X0073680Y0255630D01*
X0074510Y0255630D02*
X0072840Y0255630D01*
X0075600Y0256880D02*
X0077270Y0256880D01*
X0076860Y0255630D02*
X0076860Y0258130D01*
X0075600Y0256880D01*
X0082490Y0256670D02*
X0082490Y0255000D01*
X0082490Y0256250D02*
X0084160Y0256250D01*
X0084160Y0256670D02*
X0084160Y0255000D01*
X0085250Y0255420D02*
X0085250Y0255830D01*
X0085670Y0256250D01*
X0086500Y0256250D01*
X0086920Y0255830D01*
X0086920Y0255420D01*
X0086500Y0255000D01*
X0085670Y0255000D01*
X0085250Y0255420D01*
X0085670Y0256250D02*
X0085250Y0256670D01*
X0085250Y0257090D01*
X0085670Y0257500D01*
X0086500Y0257500D01*
X0086920Y0257090D01*
X0086920Y0256670D01*
X0086500Y0256250D01*
X0084160Y0256670D02*
X0083320Y0257500D01*
X0082490Y0256670D01*
X0016920Y0255000D02*
X0015250Y0255000D01*
X0016080Y0255000D02*
X0016080Y0257500D01*
X0015250Y0256670D01*
X0014160Y0256670D02*
X0014160Y0255000D01*
X0014160Y0256250D02*
X0012490Y0256250D01*
X0012490Y0256670D02*
X0012490Y0255000D01*
X0012490Y0256670D02*
X0013320Y0257500D01*
X0014160Y0256670D01*
X0082490Y0185000D02*
X0083740Y0185000D01*
X0084160Y0184590D01*
X0084160Y0184170D01*
X0083740Y0183750D01*
X0082490Y0183750D01*
X0083740Y0183750D02*
X0084160Y0183330D01*
X0084160Y0182920D01*
X0083740Y0182500D01*
X0082490Y0182500D01*
X0082490Y0185000D01*
X0085250Y0184590D02*
X0085250Y0184170D01*
X0085670Y0183750D01*
X0086500Y0183750D01*
X0086920Y0183330D01*
X0086920Y0182920D01*
X0086500Y0182500D01*
X0085670Y0182500D01*
X0085250Y0182920D01*
X0085250Y0183330D01*
X0085670Y0183750D01*
X0086500Y0183750D02*
X0086920Y0184170D01*
X0086920Y0184590D01*
X0086500Y0185000D01*
X0085670Y0185000D01*
X0085250Y0184590D01*
D10*
X0064740Y0200220D02*
X0062760Y0200220D01*
X0044230Y0218750D01*
X0063750Y0238270D01*
X0083270Y0218750D01*
X0064740Y0200220D01*
X0062340Y0203480D02*
X0062360Y0203710D01*
X0062420Y0203940D01*
X0062510Y0204150D01*
X0062640Y0204350D01*
X0062800Y0204520D01*
X0062980Y0204660D01*
X0063180Y0204770D01*
X0063400Y0204850D01*
X0063630Y0204890D01*
X0063870Y0204890D01*
X0064100Y0204850D01*
X0064320Y0204770D01*
X0064520Y0204660D01*
X0064700Y0204520D01*
X0064860Y0204350D01*
X0064990Y0204150D01*
X0065080Y0203940D01*
X0065140Y0203710D01*
X0065160Y0203480D01*
X0065140Y0203250D01*
X0065080Y0203020D01*
X0064990Y0202810D01*
X0064860Y0202610D01*
X0064700Y0202440D01*
X0064520Y0202300D01*
X0064320Y0202190D01*
X0064100Y0202110D01*
X0063870Y0202070D01*
X0063630Y0202070D01*
X0063400Y0202110D01*
X0063180Y0202190D01*
X0062980Y0202300D01*
X0062800Y0202440D01*
X0062640Y0202610D01*
X0062510Y0202810D01*
X0062420Y0203020D01*
X0062360Y0203250D01*
X0062340Y0203480D01*
D10*
X0036950Y0204180D02*
X0036950Y0221350D01*
X0018050Y0221350D01*
X0018050Y0223320D01*
X0018050Y0221350D02*
X0018050Y0204180D01*
X0036950Y0221350D02*
X0036950Y0223320D01*
D15*
X0035000Y0226700D03*
X0030000Y0226700D03*
X0025000Y0226700D03*
X0020000Y0226700D03*
X0020000Y0200800D03*
X0025000Y0200800D03*
X0030000Y0200800D03*
X0035000Y0200800D03*
D10*
X0010400Y0179600D02*
X0010400Y0259600D01*
X0010400Y0259600D02*
X0090400Y0259600D01*
X0090400Y0259600D02*
X0090400Y0179600D01*
X0010400Y0179600D01*
X0095000Y0010000D02*
G75*
%LPD*%
D10*
X0095000Y0010000D02*
X0175000Y0010000D01*
X0175000Y0090000D01*
X0095000Y0090000D01*
X0095000Y0010000D01*
D10*
X0097490Y0012500D02*
X0098740Y0012500D01*
X0099160Y0012920D01*
X0099160Y0013330D01*
X0098740Y0013750D01*
X0097490Y0013750D01*
X0097490Y0012500D02*
X0097490Y0015000D01*
X0098740Y0015000D01*
X0099160Y0014590D01*
X0099160Y0014170D01*
X0098740Y0013750D01*
X0100250Y0014170D02*
X0101080Y0015000D01*
X0101080Y0012500D01*
X0100250Y0012500D02*
X0101920Y0012500D01*
X0104460Y0038750D02*
X0105710Y0038750D01*
X0106130Y0039170D01*
X0106130Y0040840D01*
X0105710Y0041250D01*
X0104460Y0041250D01*
X0104460Y0038750D01*
X0107230Y0039170D02*
X0107640Y0038750D01*
X0108480Y0038750D01*
X0108890Y0039170D01*
X0108890Y0039580D01*
X0108480Y0040000D01*
X0107640Y0040000D01*
X0107230Y0040420D01*
X0107230Y0040840D01*
X0107640Y0041250D01*
X0108480Y0041250D01*
X0108890Y0040840D01*
X0109990Y0040420D02*
X0110820Y0041250D01*
X0110820Y0038750D01*
X0109990Y0038750D02*
X0111660Y0038750D01*
X0112750Y0039170D02*
X0113170Y0038750D01*
X0114000Y0038750D01*
X0114420Y0039170D01*
X0114420Y0039580D01*
X0114000Y0040000D01*
X0113580Y0040000D01*
X0114000Y0040000D02*
X0114420Y0040420D01*
X0114420Y0040840D01*
X0114000Y0041250D01*
X0113170Y0041250D01*
X0112750Y0040840D01*
X0115510Y0040840D02*
X0115510Y0039170D01*
X0117180Y0040840D01*
X0117180Y0039170D01*
X0116760Y0038750D01*
X0115930Y0038750D01*
X0115510Y0039170D01*
X0115510Y0040840D02*
X0115930Y0041250D01*
X0116760Y0041250D01*
X0117180Y0040840D01*
X0118270Y0041250D02*
X0119940Y0041250D01*
X0119940Y0040840D01*
X0118270Y0039170D01*
X0118270Y0038750D01*
X0133440Y0048160D02*
X0133440Y0049340D01*
X0134620Y0049340D01*
X0135800Y0048160D01*
X0134920Y0049050D02*
X0133740Y0047870D01*
X0133440Y0048160D02*
X0134620Y0046980D01*
X0136330Y0045860D02*
X0136330Y0045270D01*
X0136330Y0045860D02*
X0136920Y0046450D01*
X0137510Y0046450D01*
X0137800Y0046160D01*
X0137800Y0045570D01*
X0138390Y0045570D01*
X0138690Y0045270D01*
X0138690Y0044680D01*
X0138100Y0044100D01*
X0137510Y0044100D01*
X0137510Y0045270D02*
X0137800Y0045570D01*
X0138280Y0047230D02*
X0138280Y0047820D01*
X0138870Y0048410D01*
X0139460Y0048410D01*
X0139760Y0048110D01*
X0139760Y0045750D01*
X0140940Y0046930D01*
X0141410Y0048000D02*
X0141120Y0048300D01*
X0141120Y0048890D01*
X0141710Y0049480D01*
X0142300Y0049480D01*
X0142590Y0049180D01*
X0142590Y0048590D01*
X0142000Y0048000D01*
X0141410Y0048000D01*
X0141120Y0048890D02*
X0140530Y0048890D01*
X0140240Y0049180D01*
X0140240Y0049770D01*
X0140830Y0050360D01*
X0141410Y0050360D01*
X0141710Y0050070D01*
X0141710Y0049480D01*
X0143070Y0050250D02*
X0143960Y0051130D01*
X0143960Y0051720D01*
X0143370Y0052310D01*
X0142780Y0052310D01*
X0141890Y0051430D01*
X0143660Y0049660D01*
X0140780Y0053140D02*
X0140190Y0053140D01*
X0139600Y0053730D01*
X0139600Y0054320D01*
X0140190Y0054910D01*
X0140780Y0054910D01*
X0141070Y0054610D01*
X0139890Y0053430D01*
X0140780Y0053140D02*
X0141370Y0053730D01*
X0142140Y0055090D02*
X0142730Y0055090D01*
X0143610Y0055970D01*
X0143910Y0055680D02*
X0142430Y0057150D01*
X0141550Y0056270D01*
X0141550Y0055680D01*
X0142140Y0055090D01*
X0143610Y0054800D02*
X0143910Y0055090D01*
X0143910Y0055680D01*
X0144090Y0057040D02*
X0144090Y0057630D01*
X0144980Y0058520D01*
X0144680Y0058810D02*
X0145570Y0057930D01*
X0144680Y0057040D01*
X0144090Y0057040D01*
X0143500Y0058220D02*
X0144090Y0058810D01*
X0144680Y0058810D01*
X0138820Y0052950D02*
X0139710Y0052070D01*
X0139120Y0051480D02*
X0138230Y0052360D01*
X0138230Y0052950D01*
X0138820Y0052950D01*
X0138230Y0052360D02*
X0137640Y0052360D01*
X0137350Y0052070D01*
X0138530Y0050890D01*
X0137160Y0049530D02*
X0135400Y0051290D01*
X0135980Y0051880D02*
X0134810Y0050700D01*
X0120830Y0071250D02*
X0119160Y0071250D01*
X0120830Y0072920D01*
X0119160Y0072920D01*
X0118070Y0072500D02*
X0116400Y0072500D01*
X0116400Y0071250D02*
X0116400Y0073750D01*
X0115350Y0072920D02*
X0114100Y0072080D01*
X0115350Y0071250D01*
X0114100Y0071250D02*
X0114100Y0073750D01*
X0113000Y0073340D02*
X0113000Y0072920D01*
X0111340Y0071250D01*
X0113000Y0071250D01*
X0113000Y0073340D02*
X0112590Y0073750D01*
X0111750Y0073750D01*
X0111340Y0073340D01*
X0110240Y0073340D02*
X0110240Y0072920D01*
X0109830Y0072500D01*
X0110240Y0072080D01*
X0110240Y0071670D01*
X0109830Y0071250D01*
X0108990Y0071250D01*
X0108570Y0071670D01*
X0109410Y0072500D02*
X0109830Y0072500D01*
X0110240Y0073340D02*
X0109830Y0073750D01*
X0108990Y0073750D01*
X0108570Y0073340D01*
X0118070Y0073750D02*
X0118070Y0071250D01*
X0118080Y0085630D02*
X0118080Y0086880D01*
X0117660Y0087290D01*
X0116410Y0087290D01*
X0116410Y0085630D01*
X0115310Y0085630D02*
X0114060Y0085630D01*
X0113640Y0086040D01*
X0114060Y0086460D01*
X0115310Y0086460D01*
X0115310Y0086880D02*
X0115310Y0085630D01*
X0115310Y0086880D02*
X0114900Y0087290D01*
X0114060Y0087290D01*
X0112550Y0087710D02*
X0112550Y0086040D01*
X0112130Y0085630D01*
X0110880Y0085630D01*
X0110880Y0088130D01*
X0112130Y0088130D01*
X0112550Y0087710D01*
X0119170Y0087290D02*
X0119590Y0087290D01*
X0119590Y0085630D01*
X0120000Y0085630D02*
X0119170Y0085630D01*
X0121010Y0086040D02*
X0121010Y0086880D01*
X0121430Y0087290D01*
X0122260Y0087290D01*
X0122680Y0086880D01*
X0122680Y0086460D01*
X0121010Y0086460D01*
X0121010Y0086040D02*
X0121430Y0085630D01*
X0122260Y0085630D01*
X0123770Y0085630D02*
X0124610Y0085630D01*
X0124190Y0085630D02*
X0124190Y0088130D01*
X0123770Y0088130D01*
X0119590Y0088130D02*
X0119590Y0088540D01*
X0128380Y0088130D02*
X0128380Y0085630D01*
X0128380Y0086460D02*
X0129630Y0086460D01*
X0130050Y0086880D01*
X0130050Y0087710D01*
X0129630Y0088130D01*
X0128380Y0088130D01*
X0129210Y0086460D02*
X0130050Y0085630D01*
X0131140Y0086040D02*
X0131140Y0086880D01*
X0131560Y0087290D01*
X0132390Y0087290D01*
X0132810Y0086880D01*
X0132810Y0086040D01*
X0132390Y0085630D01*
X0131560Y0085630D01*
X0131140Y0086040D01*
X0133900Y0084790D02*
X0134320Y0084790D01*
X0134740Y0085210D01*
X0134740Y0087290D01*
X0134740Y0088130D02*
X0134740Y0088540D01*
X0136160Y0087290D02*
X0136990Y0087290D01*
X0137410Y0086880D01*
X0137410Y0085630D01*
X0136160Y0085630D01*
X0135740Y0086040D01*
X0136160Y0086460D01*
X0137410Y0086460D01*
X0138510Y0086880D02*
X0138920Y0087290D01*
X0140170Y0087290D01*
X0139760Y0086460D02*
X0138920Y0086460D01*
X0138510Y0086880D01*
X0138510Y0085630D02*
X0139760Y0085630D01*
X0140170Y0086040D01*
X0139760Y0086460D01*
X0144030Y0086040D02*
X0145700Y0087710D01*
X0145700Y0086040D01*
X0145280Y0085630D01*
X0144450Y0085630D01*
X0144030Y0086040D01*
X0144030Y0087710D01*
X0144450Y0088130D01*
X0145280Y0088130D01*
X0145700Y0087710D01*
X0146790Y0086880D02*
X0148040Y0086880D01*
X0148460Y0086460D01*
X0148460Y0086040D01*
X0148040Y0085630D01*
X0147210Y0085630D01*
X0146790Y0086040D01*
X0146790Y0086880D01*
X0147630Y0087710D01*
X0148460Y0088130D01*
X0149560Y0085630D02*
X0151220Y0088130D01*
X0152320Y0087710D02*
X0152730Y0088130D01*
X0153570Y0088130D01*
X0153990Y0087710D01*
X0153990Y0087290D01*
X0152320Y0085630D01*
X0153990Y0085630D01*
X0155080Y0086040D02*
X0156750Y0087710D01*
X0156750Y0086040D01*
X0156330Y0085630D01*
X0155500Y0085630D01*
X0155080Y0086040D01*
X0155080Y0087710D01*
X0155500Y0088130D01*
X0156330Y0088130D01*
X0156750Y0087710D01*
X0157840Y0087290D02*
X0158680Y0088130D01*
X0158680Y0085630D01*
X0159510Y0085630D02*
X0157840Y0085630D01*
X0160600Y0086880D02*
X0162270Y0086880D01*
X0161860Y0085630D02*
X0161860Y0088130D01*
X0160600Y0086880D01*
X0167490Y0086670D02*
X0167490Y0085000D01*
X0167490Y0086250D02*
X0169160Y0086250D01*
X0169160Y0086670D02*
X0169160Y0085000D01*
X0170250Y0085420D02*
X0170250Y0085830D01*
X0170670Y0086250D01*
X0171500Y0086250D01*
X0171920Y0085830D01*
X0171920Y0085420D01*
X0171500Y0085000D01*
X0170670Y0085000D01*
X0170250Y0085420D01*
X0170670Y0086250D02*
X0170250Y0086670D01*
X0170250Y0087090D01*
X0170670Y0087500D01*
X0171500Y0087500D01*
X0171920Y0087090D01*
X0171920Y0086670D01*
X0171500Y0086250D01*
X0169160Y0086670D02*
X0168320Y0087500D01*
X0167490Y0086670D01*
X0101920Y0085000D02*
X0100250Y0085000D01*
X0101080Y0085000D02*
X0101080Y0087500D01*
X0100250Y0086670D01*
X0099160Y0086670D02*
X0099160Y0085000D01*
X0099160Y0086250D02*
X0097490Y0086250D01*
X0097490Y0086670D02*
X0097490Y0085000D01*
X0097490Y0086670D02*
X0098320Y0087500D01*
X0099160Y0086670D01*
X0167490Y0015000D02*
X0168740Y0015000D01*
X0169160Y0014590D01*
X0169160Y0014170D01*
X0168740Y0013750D01*
X0167490Y0013750D01*
X0168740Y0013750D02*
X0169160Y0013330D01*
X0169160Y0012920D01*
X0168740Y0012500D01*
X0167490Y0012500D01*
X0167490Y0015000D01*
X0170250Y0014590D02*
X0170250Y0014170D01*
X0170670Y0013750D01*
X0171500Y0013750D01*
X0171920Y0013330D01*
X0171920Y0012920D01*
X0171500Y0012500D01*
X0170670Y0012500D01*
X0170250Y0012920D01*
X0170250Y0013330D01*
X0170670Y0013750D01*
X0171500Y0013750D02*
X0171920Y0014170D01*
X0171920Y0014590D01*
X0171500Y0015000D01*
X0170670Y0015000D01*
X0170250Y0014590D01*
D10*
X0149740Y0030220D02*
X0147760Y0030220D01*
X0129230Y0048750D01*
X0148750Y0068270D01*
X0168270Y0048750D01*
X0149740Y0030220D01*
X0147340Y0033480D02*
X0147360Y0033710D01*
X0147420Y0033940D01*
X0147510Y0034150D01*
X0147640Y0034350D01*
X0147800Y0034520D01*
X0147980Y0034660D01*
X0148180Y0034770D01*
X0148400Y0034850D01*
X0148630Y0034890D01*
X0148870Y0034890D01*
X0149100Y0034850D01*
X0149320Y0034770D01*
X0149520Y0034660D01*
X0149700Y0034520D01*
X0149860Y0034350D01*
X0149990Y0034150D01*
X0150080Y0033940D01*
X0150140Y0033710D01*
X0150160Y0033480D01*
X0150140Y0033250D01*
X0150080Y0033020D01*
X0149990Y0032810D01*
X0149860Y0032610D01*
X0149700Y0032440D01*
X0149520Y0032300D01*
X0149320Y0032190D01*
X0149100Y0032110D01*
X0148870Y0032070D01*
X0148630Y0032070D01*
X0148400Y0032110D01*
X0148180Y0032190D01*
X0147980Y0032300D01*
X0147800Y0032440D01*
X0147640Y0032610D01*
X0147510Y0032810D01*
X0147420Y0033020D01*
X0147360Y0033250D01*
X0147340Y0033480D01*
D10*
X0121950Y0034180D02*
X0121950Y0051350D01*
X0103050Y0051350D01*
X0103050Y0053320D01*
X0103050Y0051350D02*
X0103050Y0034180D01*
X0121950Y0051350D02*
X0121950Y0053320D01*
D15*
X0120000Y0056700D03*
X0115000Y0056700D03*
X0110000Y0056700D03*
X0105000Y0056700D03*
X0105000Y0030800D03*
X0110000Y0030800D03*
X0115000Y0030800D03*
X0120000Y0030800D03*
D10*
X0094600Y0010400D02*
X0094600Y0090400D01*
X0175400Y0090400D01*
X0175400Y0010400D01*
X0094600Y0010400D01*
X0095000Y0095000D02*
G75*
%LPD*%
D10*
X0095000Y0095000D02*
X0175000Y0095000D01*
X0175000Y0175000D01*
X0095000Y0175000D01*
X0095000Y0095000D01*
D10*
X0097490Y0097500D02*
X0098740Y0097500D01*
X0099160Y0097920D01*
X0099160Y0098330D01*
X0098740Y0098750D01*
X0097490Y0098750D01*
X0097490Y0097500D02*
X0097490Y0100000D01*
X0098740Y0100000D01*
X0099160Y0099590D01*
X0099160Y0099170D01*
X0098740Y0098750D01*
X0100250Y0099170D02*
X0101080Y0100000D01*
X0101080Y0097500D01*
X0100250Y0097500D02*
X0101920Y0097500D01*
X0104460Y0123750D02*
X0105710Y0123750D01*
X0106130Y0124170D01*
X0106130Y0125840D01*
X0105710Y0126250D01*
X0104460Y0126250D01*
X0104460Y0123750D01*
X0107230Y0124170D02*
X0107640Y0123750D01*
X0108480Y0123750D01*
X0108890Y0124170D01*
X0108890Y0124580D01*
X0108480Y0125000D01*
X0107640Y0125000D01*
X0107230Y0125420D01*
X0107230Y0125840D01*
X0107640Y0126250D01*
X0108480Y0126250D01*
X0108890Y0125840D01*
X0109990Y0125420D02*
X0110820Y0126250D01*
X0110820Y0123750D01*
X0109990Y0123750D02*
X0111660Y0123750D01*
X0112750Y0124170D02*
X0113170Y0123750D01*
X0114000Y0123750D01*
X0114420Y0124170D01*
X0114420Y0124580D01*
X0114000Y0125000D01*
X0113580Y0125000D01*
X0114000Y0125000D02*
X0114420Y0125420D01*
X0114420Y0125840D01*
X0114000Y0126250D01*
X0113170Y0126250D01*
X0112750Y0125840D01*
X0115510Y0125840D02*
X0115510Y0124170D01*
X0117180Y0125840D01*
X0117180Y0124170D01*
X0116760Y0123750D01*
X0115930Y0123750D01*
X0115510Y0124170D01*
X0115510Y0125840D02*
X0115930Y0126250D01*
X0116760Y0126250D01*
X0117180Y0125840D01*
X0118270Y0126250D02*
X0119940Y0126250D01*
X0119940Y0125840D01*
X0118270Y0124170D01*
X0118270Y0123750D01*
X0133440Y0133160D02*
X0133440Y0134340D01*
X0134620Y0134340D01*
X0135800Y0133160D01*
X0134920Y0134050D02*
X0133740Y0132870D01*
X0133440Y0133160D02*
X0134620Y0131980D01*
X0136330Y0130860D02*
X0136330Y0130270D01*
X0136330Y0130860D02*
X0136920Y0131450D01*
X0137510Y0131450D01*
X0137800Y0131160D01*
X0137800Y0130570D01*
X0138390Y0130570D01*
X0138690Y0130270D01*
X0138690Y0129680D01*
X0138100Y0129100D01*
X0137510Y0129100D01*
X0137510Y0130270D02*
X0137800Y0130570D01*
X0138280Y0132230D02*
X0138280Y0132820D01*
X0138870Y0133410D01*
X0139460Y0133410D01*
X0139760Y0133110D01*
X0139760Y0130750D01*
X0140940Y0131930D01*
X0141410Y0133000D02*
X0141120Y0133300D01*
X0141120Y0133890D01*
X0141710Y0134480D01*
X0142300Y0134480D01*
X0142590Y0134180D01*
X0142590Y0133590D01*
X0142000Y0133000D01*
X0141410Y0133000D01*
X0141120Y0133890D02*
X0140530Y0133890D01*
X0140240Y0134180D01*
X0140240Y0134770D01*
X0140830Y0135360D01*
X0141410Y0135360D01*
X0141710Y0135070D01*
X0141710Y0134480D01*
X0143070Y0135250D02*
X0143960Y0136130D01*
X0143960Y0136720D01*
X0143370Y0137310D01*
X0142780Y0137310D01*
X0141890Y0136430D01*
X0143660Y0134660D01*
X0140780Y0138140D02*
X0140190Y0138140D01*
X0139600Y0138730D01*
X0139600Y0139320D01*
X0140190Y0139910D01*
X0140780Y0139910D01*
X0141070Y0139610D01*
X0139890Y0138430D01*
X0140780Y0138140D02*
X0141370Y0138730D01*
X0142140Y0140090D02*
X0142730Y0140090D01*
X0143610Y0140970D01*
X0143910Y0140680D02*
X0142430Y0142150D01*
X0141550Y0141270D01*
X0141550Y0140680D01*
X0142140Y0140090D01*
X0143610Y0139800D02*
X0143910Y0140090D01*
X0143910Y0140680D01*
X0144090Y0142040D02*
X0144090Y0142630D01*
X0144980Y0143520D01*
X0144680Y0143810D02*
X0145570Y0142930D01*
X0144680Y0142040D01*
X0144090Y0142040D01*
X0143500Y0143220D02*
X0144090Y0143810D01*
X0144680Y0143810D01*
X0138820Y0137950D02*
X0139710Y0137070D01*
X0139120Y0136480D02*
X0138230Y0137360D01*
X0138230Y0137950D01*
X0138820Y0137950D01*
X0138230Y0137360D02*
X0137640Y0137360D01*
X0137350Y0137070D01*
X0138530Y0135890D01*
X0137160Y0134530D02*
X0135400Y0136290D01*
X0135980Y0136880D02*
X0134810Y0135700D01*
X0120830Y0156250D02*
X0119160Y0156250D01*
X0120830Y0157920D01*
X0119160Y0157920D01*
X0118070Y0157500D02*
X0116400Y0157500D01*
X0116400Y0156250D02*
X0116400Y0158750D01*
X0115350Y0157920D02*
X0114100Y0157080D01*
X0115350Y0156250D01*
X0114100Y0156250D02*
X0114100Y0158750D01*
X0113000Y0158340D02*
X0113000Y0157920D01*
X0111340Y0156250D01*
X0113000Y0156250D01*
X0113000Y0158340D02*
X0112590Y0158750D01*
X0111750Y0158750D01*
X0111340Y0158340D01*
X0110240Y0158340D02*
X0110240Y0157920D01*
X0109830Y0157500D01*
X0110240Y0157080D01*
X0110240Y0156670D01*
X0109830Y0156250D01*
X0108990Y0156250D01*
X0108570Y0156670D01*
X0109410Y0157500D02*
X0109830Y0157500D01*
X0110240Y0158340D02*
X0109830Y0158750D01*
X0108990Y0158750D01*
X0108570Y0158340D01*
X0118070Y0158750D02*
X0118070Y0156250D01*
X0118080Y0170630D02*
X0118080Y0171880D01*
X0117660Y0172290D01*
X0116410Y0172290D01*
X0116410Y0170630D01*
X0115310Y0170630D02*
X0114060Y0170630D01*
X0113640Y0171040D01*
X0114060Y0171460D01*
X0115310Y0171460D01*
X0115310Y0171880D02*
X0115310Y0170630D01*
X0115310Y0171880D02*
X0114900Y0172290D01*
X0114060Y0172290D01*
X0112550Y0172710D02*
X0112550Y0171040D01*
X0112130Y0170630D01*
X0110880Y0170630D01*
X0110880Y0173130D01*
X0112130Y0173130D01*
X0112550Y0172710D01*
X0119170Y0172290D02*
X0119590Y0172290D01*
X0119590Y0170630D01*
X0120000Y0170630D02*
X0119170Y0170630D01*
X0121010Y0171040D02*
X0121010Y0171880D01*
X0121430Y0172290D01*
X0122260Y0172290D01*
X0122680Y0171880D01*
X0122680Y0171460D01*
X0121010Y0171460D01*
X0121010Y0171040D02*
X0121430Y0170630D01*
X0122260Y0170630D01*
X0123770Y0170630D02*
X0124610Y0170630D01*
X0124190Y0170630D02*
X0124190Y0173130D01*
X0123770Y0173130D01*
X0119590Y0173130D02*
X0119590Y0173540D01*
X0128380Y0173130D02*
X0128380Y0170630D01*
X0128380Y0171460D02*
X0129630Y0171460D01*
X0130050Y0171880D01*
X0130050Y0172710D01*
X0129630Y0173130D01*
X0128380Y0173130D01*
X0129210Y0171460D02*
X0130050Y0170630D01*
X0131140Y0171040D02*
X0131140Y0171880D01*
X0131560Y0172290D01*
X0132390Y0172290D01*
X0132810Y0171880D01*
X0132810Y0171040D01*
X0132390Y0170630D01*
X0131560Y0170630D01*
X0131140Y0171040D01*
X0133900Y0169790D02*
X0134320Y0169790D01*
X0134740Y0170210D01*
X0134740Y0172290D01*
X0134740Y0173130D02*
X0134740Y0173540D01*
X0136160Y0172290D02*
X0136990Y0172290D01*
X0137410Y0171880D01*
X0137410Y0170630D01*
X0136160Y0170630D01*
X0135740Y0171040D01*
X0136160Y0171460D01*
X0137410Y0171460D01*
X0138510Y0171880D02*
X0138920Y0172290D01*
X0140170Y0172290D01*
X0139760Y0171460D02*
X0138920Y0171460D01*
X0138510Y0171880D01*
X0138510Y0170630D02*
X0139760Y0170630D01*
X0140170Y0171040D01*
X0139760Y0171460D01*
X0144030Y0171040D02*
X0145700Y0172710D01*
X0145700Y0171040D01*
X0145280Y0170630D01*
X0144450Y0170630D01*
X0144030Y0171040D01*
X0144030Y0172710D01*
X0144450Y0173130D01*
X0145280Y0173130D01*
X0145700Y0172710D01*
X0146790Y0171880D02*
X0148040Y0171880D01*
X0148460Y0171460D01*
X0148460Y0171040D01*
X0148040Y0170630D01*
X0147210Y0170630D01*
X0146790Y0171040D01*
X0146790Y0171880D01*
X0147630Y0172710D01*
X0148460Y0173130D01*
X0149560Y0170630D02*
X0151220Y0173130D01*
X0152320Y0172710D02*
X0152730Y0173130D01*
X0153570Y0173130D01*
X0153990Y0172710D01*
X0153990Y0172290D01*
X0152320Y0170630D01*
X0153990Y0170630D01*
X0155080Y0171040D02*
X0156750Y0172710D01*
X0156750Y0171040D01*
X0156330Y0170630D01*
X0155500Y0170630D01*
X0155080Y0171040D01*
X0155080Y0172710D01*
X0155500Y0173130D01*
X0156330Y0173130D01*
X0156750Y0172710D01*
X0157840Y0172290D02*
X0158680Y0173130D01*
X0158680Y0170630D01*
X0159510Y0170630D02*
X0157840Y0170630D01*
X0160600Y0171880D02*
X0162270Y0171880D01*
X0161860Y0170630D02*
X0161860Y0173130D01*
X0160600Y0171880D01*
X0167490Y0171670D02*
X0167490Y0170000D01*
X0167490Y0171250D02*
X0169160Y0171250D01*
X0169160Y0171670D02*
X0169160Y0170000D01*
X0170250Y0170420D02*
X0170250Y0170830D01*
X0170670Y0171250D01*
X0171500Y0171250D01*
X0171920Y0170830D01*
X0171920Y0170420D01*
X0171500Y0170000D01*
X0170670Y0170000D01*
X0170250Y0170420D01*
X0170670Y0171250D02*
X0170250Y0171670D01*
X0170250Y0172090D01*
X0170670Y0172500D01*
X0171500Y0172500D01*
X0171920Y0172090D01*
X0171920Y0171670D01*
X0171500Y0171250D01*
X0169160Y0171670D02*
X0168320Y0172500D01*
X0167490Y0171670D01*
X0101920Y0170000D02*
X0100250Y0170000D01*
X0101080Y0170000D02*
X0101080Y0172500D01*
X0100250Y0171670D01*
X0099160Y0171670D02*
X0099160Y0170000D01*
X0099160Y0171250D02*
X0097490Y0171250D01*
X0097490Y0171670D02*
X0097490Y0170000D01*
X0097490Y0171670D02*
X0098320Y0172500D01*
X0099160Y0171670D01*
X0167490Y0100000D02*
X0168740Y0100000D01*
X0169160Y0099590D01*
X0169160Y0099170D01*
X0168740Y0098750D01*
X0167490Y0098750D01*
X0168740Y0098750D02*
X0169160Y0098330D01*
X0169160Y0097920D01*
X0168740Y0097500D01*
X0167490Y0097500D01*
X0167490Y0100000D01*
X0170250Y0099590D02*
X0170250Y0099170D01*
X0170670Y0098750D01*
X0171500Y0098750D01*
X0171920Y0098330D01*
X0171920Y0097920D01*
X0171500Y0097500D01*
X0170670Y0097500D01*
X0170250Y0097920D01*
X0170250Y0098330D01*
X0170670Y0098750D01*
X0171500Y0098750D02*
X0171920Y0099170D01*
X0171920Y0099590D01*
X0171500Y0100000D01*
X0170670Y0100000D01*
X0170250Y0099590D01*
D10*
X0149740Y0115220D02*
X0147760Y0115220D01*
X0129230Y0133750D01*
X0148750Y0153270D01*
X0168270Y0133750D01*
X0149740Y0115220D01*
X0147340Y0118480D02*
X0147360Y0118710D01*
X0147420Y0118940D01*
X0147510Y0119150D01*
X0147640Y0119350D01*
X0147800Y0119520D01*
X0147980Y0119660D01*
X0148180Y0119770D01*
X0148400Y0119850D01*
X0148630Y0119890D01*
X0148870Y0119890D01*
X0149100Y0119850D01*
X0149320Y0119770D01*
X0149520Y0119660D01*
X0149700Y0119520D01*
X0149860Y0119350D01*
X0149990Y0119150D01*
X0150080Y0118940D01*
X0150140Y0118710D01*
X0150160Y0118480D01*
X0150140Y0118250D01*
X0150080Y0118020D01*
X0149990Y0117810D01*
X0149860Y0117610D01*
X0149700Y0117440D01*
X0149520Y0117300D01*
X0149320Y0117190D01*
X0149100Y0117110D01*
X0148870Y0117070D01*
X0148630Y0117070D01*
X0148400Y0117110D01*
X0148180Y0117190D01*
X0147980Y0117300D01*
X0147800Y0117440D01*
X0147640Y0117610D01*
X0147510Y0117810D01*
X0147420Y0118020D01*
X0147360Y0118250D01*
X0147340Y0118480D01*
D10*
X0121950Y0119180D02*
X0121950Y0136350D01*
X0103050Y0136350D01*
X0103050Y0138320D01*
X0103050Y0136350D02*
X0103050Y0119180D01*
X0121950Y0136350D02*
X0121950Y0138320D01*
D15*
X0120000Y0141700D03*
X0115000Y0141700D03*
X0110000Y0141700D03*
X0105000Y0141700D03*
X0105000Y0115800D03*
X0110000Y0115800D03*
X0115000Y0115800D03*
X0120000Y0115800D03*
D10*
X0094600Y0094600D02*
X0094600Y0175400D01*
X0175400Y0175400D01*
X0175400Y0094600D01*
X0094600Y0094600D01*
X0095000Y0180000D02*
G75*
%LPD*%
D10*
X0095000Y0180000D02*
X0175000Y0180000D01*
X0175000Y0260000D01*
X0095000Y0260000D01*
X0095000Y0180000D01*
D10*
X0097490Y0182500D02*
X0098740Y0182500D01*
X0099160Y0182920D01*
X0099160Y0183330D01*
X0098740Y0183750D01*
X0097490Y0183750D01*
X0097490Y0182500D02*
X0097490Y0185000D01*
X0098740Y0185000D01*
X0099160Y0184590D01*
X0099160Y0184170D01*
X0098740Y0183750D01*
X0100250Y0184170D02*
X0101080Y0185000D01*
X0101080Y0182500D01*
X0100250Y0182500D02*
X0101920Y0182500D01*
X0104460Y0208750D02*
X0105710Y0208750D01*
X0106130Y0209170D01*
X0106130Y0210840D01*
X0105710Y0211250D01*
X0104460Y0211250D01*
X0104460Y0208750D01*
X0107230Y0209170D02*
X0107640Y0208750D01*
X0108480Y0208750D01*
X0108890Y0209170D01*
X0108890Y0209580D01*
X0108480Y0210000D01*
X0107640Y0210000D01*
X0107230Y0210420D01*
X0107230Y0210840D01*
X0107640Y0211250D01*
X0108480Y0211250D01*
X0108890Y0210840D01*
X0109990Y0210420D02*
X0110820Y0211250D01*
X0110820Y0208750D01*
X0109990Y0208750D02*
X0111660Y0208750D01*
X0112750Y0209170D02*
X0113170Y0208750D01*
X0114000Y0208750D01*
X0114420Y0209170D01*
X0114420Y0209580D01*
X0114000Y0210000D01*
X0113580Y0210000D01*
X0114000Y0210000D02*
X0114420Y0210420D01*
X0114420Y0210840D01*
X0114000Y0211250D01*
X0113170Y0211250D01*
X0112750Y0210840D01*
X0115510Y0210840D02*
X0115510Y0209170D01*
X0117180Y0210840D01*
X0117180Y0209170D01*
X0116760Y0208750D01*
X0115930Y0208750D01*
X0115510Y0209170D01*
X0115510Y0210840D02*
X0115930Y0211250D01*
X0116760Y0211250D01*
X0117180Y0210840D01*
X0118270Y0211250D02*
X0119940Y0211250D01*
X0119940Y0210840D01*
X0118270Y0209170D01*
X0118270Y0208750D01*
X0133440Y0218160D02*
X0133440Y0219340D01*
X0134620Y0219340D01*
X0135800Y0218160D01*
X0134920Y0219050D02*
X0133740Y0217870D01*
X0133440Y0218160D02*
X0134620Y0216980D01*
X0136330Y0215860D02*
X0136330Y0215270D01*
X0136330Y0215860D02*
X0136920Y0216450D01*
X0137510Y0216450D01*
X0137800Y0216160D01*
X0137800Y0215570D01*
X0138390Y0215570D01*
X0138690Y0215270D01*
X0138690Y0214680D01*
X0138100Y0214100D01*
X0137510Y0214100D01*
X0137510Y0215270D02*
X0137800Y0215570D01*
X0138280Y0217230D02*
X0138280Y0217820D01*
X0138870Y0218410D01*
X0139460Y0218410D01*
X0139760Y0218110D01*
X0139760Y0215750D01*
X0140940Y0216930D01*
X0141410Y0218000D02*
X0141120Y0218300D01*
X0141120Y0218890D01*
X0141710Y0219480D01*
X0142300Y0219480D01*
X0142590Y0219180D01*
X0142590Y0218590D01*
X0142000Y0218000D01*
X0141410Y0218000D01*
X0141120Y0218890D02*
X0140530Y0218890D01*
X0140240Y0219180D01*
X0140240Y0219770D01*
X0140830Y0220360D01*
X0141410Y0220360D01*
X0141710Y0220070D01*
X0141710Y0219480D01*
X0143070Y0220250D02*
X0143960Y0221130D01*
X0143960Y0221720D01*
X0143370Y0222310D01*
X0142780Y0222310D01*
X0141890Y0221430D01*
X0143660Y0219660D01*
X0140780Y0223140D02*
X0140190Y0223140D01*
X0139600Y0223730D01*
X0139600Y0224320D01*
X0140190Y0224910D01*
X0140780Y0224910D01*
X0141070Y0224610D01*
X0139890Y0223430D01*
X0140780Y0223140D02*
X0141370Y0223730D01*
X0142140Y0225090D02*
X0142730Y0225090D01*
X0143610Y0225970D01*
X0143910Y0225680D02*
X0142430Y0227150D01*
X0141550Y0226270D01*
X0141550Y0225680D01*
X0142140Y0225090D01*
X0143610Y0224800D02*
X0143910Y0225090D01*
X0143910Y0225680D01*
X0144090Y0227040D02*
X0144090Y0227630D01*
X0144980Y0228520D01*
X0144680Y0228810D02*
X0145570Y0227930D01*
X0144680Y0227040D01*
X0144090Y0227040D01*
X0143500Y0228220D02*
X0144090Y0228810D01*
X0144680Y0228810D01*
X0138820Y0222950D02*
X0139710Y0222070D01*
X0139120Y0221480D02*
X0138230Y0222360D01*
X0138230Y0222950D01*
X0138820Y0222950D01*
X0138230Y0222360D02*
X0137640Y0222360D01*
X0137350Y0222070D01*
X0138530Y0220890D01*
X0137160Y0219530D02*
X0135400Y0221290D01*
X0135980Y0221880D02*
X0134810Y0220700D01*
X0120830Y0241250D02*
X0119160Y0241250D01*
X0120830Y0242920D01*
X0119160Y0242920D01*
X0118070Y0242500D02*
X0116400Y0242500D01*
X0116400Y0241250D02*
X0116400Y0243750D01*
X0115350Y0242920D02*
X0114100Y0242080D01*
X0115350Y0241250D01*
X0114100Y0241250D02*
X0114100Y0243750D01*
X0113000Y0243340D02*
X0113000Y0242920D01*
X0111340Y0241250D01*
X0113000Y0241250D01*
X0113000Y0243340D02*
X0112590Y0243750D01*
X0111750Y0243750D01*
X0111340Y0243340D01*
X0110240Y0243340D02*
X0110240Y0242920D01*
X0109830Y0242500D01*
X0110240Y0242080D01*
X0110240Y0241670D01*
X0109830Y0241250D01*
X0108990Y0241250D01*
X0108570Y0241670D01*
X0109410Y0242500D02*
X0109830Y0242500D01*
X0110240Y0243340D02*
X0109830Y0243750D01*
X0108990Y0243750D01*
X0108570Y0243340D01*
X0118070Y0243750D02*
X0118070Y0241250D01*
X0118080Y0255630D02*
X0118080Y0256880D01*
X0117660Y0257290D01*
X0116410Y0257290D01*
X0116410Y0255630D01*
X0115310Y0255630D02*
X0114060Y0255630D01*
X0113640Y0256040D01*
X0114060Y0256460D01*
X0115310Y0256460D01*
X0115310Y0256880D02*
X0115310Y0255630D01*
X0115310Y0256880D02*
X0114900Y0257290D01*
X0114060Y0257290D01*
X0112550Y0257710D02*
X0112550Y0256040D01*
X0112130Y0255630D01*
X0110880Y0255630D01*
X0110880Y0258130D01*
X0112130Y0258130D01*
X0112550Y0257710D01*
X0119170Y0257290D02*
X0119590Y0257290D01*
X0119590Y0255630D01*
X0120000Y0255630D02*
X0119170Y0255630D01*
X0121010Y0256040D02*
X0121010Y0256880D01*
X0121430Y0257290D01*
X0122260Y0257290D01*
X0122680Y0256880D01*
X0122680Y0256460D01*
X0121010Y0256460D01*
X0121010Y0256040D02*
X0121430Y0255630D01*
X0122260Y0255630D01*
X0123770Y0255630D02*
X0124610Y0255630D01*
X0124190Y0255630D02*
X0124190Y0258130D01*
X0123770Y0258130D01*
X0119590Y0258130D02*
X0119590Y0258540D01*
X0128380Y0258130D02*
X0128380Y0255630D01*
X0128380Y0256460D02*
X0129630Y0256460D01*
X0130050Y0256880D01*
X0130050Y0257710D01*
X0129630Y0258130D01*
X0128380Y0258130D01*
X0129210Y0256460D02*
X0130050Y0255630D01*
X0131140Y0256040D02*
X0131140Y0256880D01*
X0131560Y0257290D01*
X0132390Y0257290D01*
X0132810Y0256880D01*
X0132810Y0256040D01*
X0132390Y0255630D01*
X0131560Y0255630D01*
X0131140Y0256040D01*
X0133900Y0254790D02*
X0134320Y0254790D01*
X0134740Y0255210D01*
X0134740Y0257290D01*
X0134740Y0258130D02*
X0134740Y0258540D01*
X0136160Y0257290D02*
X0136990Y0257290D01*
X0137410Y0256880D01*
X0137410Y0255630D01*
X0136160Y0255630D01*
X0135740Y0256040D01*
X0136160Y0256460D01*
X0137410Y0256460D01*
X0138510Y0256880D02*
X0138920Y0257290D01*
X0140170Y0257290D01*
X0139760Y0256460D02*
X0138920Y0256460D01*
X0138510Y0256880D01*
X0138510Y0255630D02*
X0139760Y0255630D01*
X0140170Y0256040D01*
X0139760Y0256460D01*
X0144030Y0256040D02*
X0145700Y0257710D01*
X0145700Y0256040D01*
X0145280Y0255630D01*
X0144450Y0255630D01*
X0144030Y0256040D01*
X0144030Y0257710D01*
X0144450Y0258130D01*
X0145280Y0258130D01*
X0145700Y0257710D01*
X0146790Y0256880D02*
X0148040Y0256880D01*
X0148460Y0256460D01*
X0148460Y0256040D01*
X0148040Y0255630D01*
X0147210Y0255630D01*
X0146790Y0256040D01*
X0146790Y0256880D01*
X0147630Y0257710D01*
X0148460Y0258130D01*
X0149560Y0255630D02*
X0151220Y0258130D01*
X0152320Y0257710D02*
X0152730Y0258130D01*
X0153570Y0258130D01*
X0153990Y0257710D01*
X0153990Y0257290D01*
X0152320Y0255630D01*
X0153990Y0255630D01*
X0155080Y0256040D02*
X0156750Y0257710D01*
X0156750Y0256040D01*
X0156330Y0255630D01*
X0155500Y0255630D01*
X0155080Y0256040D01*
X0155080Y0257710D01*
X0155500Y0258130D01*
X0156330Y0258130D01*
X0156750Y0257710D01*
X0157840Y0257290D02*
X0158680Y0258130D01*
X0158680Y0255630D01*
X0159510Y0255630D02*
X0157840Y0255630D01*
X0160600Y0256880D02*
X0162270Y0256880D01*
X0161860Y0255630D02*
X0161860Y0258130D01*
X0160600Y0256880D01*
X0167490Y0256670D02*
X0167490Y0255000D01*
X0167490Y0256250D02*
X0169160Y0256250D01*
X0169160Y0256670D02*
X0169160Y0255000D01*
X0170250Y0255420D02*
X0170250Y0255830D01*
X0170670Y0256250D01*
X0171500Y0256250D01*
X0171920Y0255830D01*
X0171920Y0255420D01*
X0171500Y0255000D01*
X0170670Y0255000D01*
X0170250Y0255420D01*
X0170670Y0256250D02*
X0170250Y0256670D01*
X0170250Y0257090D01*
X0170670Y0257500D01*
X0171500Y0257500D01*
X0171920Y0257090D01*
X0171920Y0256670D01*
X0171500Y0256250D01*
X0169160Y0256670D02*
X0168320Y0257500D01*
X0167490Y0256670D01*
X0101920Y0255000D02*
X0100250Y0255000D01*
X0101080Y0255000D02*
X0101080Y0257500D01*
X0100250Y0256670D01*
X0099160Y0256670D02*
X0099160Y0255000D01*
X0099160Y0256250D02*
X0097490Y0256250D01*
X0097490Y0256670D02*
X0097490Y0255000D01*
X0097490Y0256670D02*
X0098320Y0257500D01*
X0099160Y0256670D01*
X0167490Y0185000D02*
X0168740Y0185000D01*
X0169160Y0184590D01*
X0169160Y0184170D01*
X0168740Y0183750D01*
X0167490Y0183750D01*
X0168740Y0183750D02*
X0169160Y0183330D01*
X0169160Y0182920D01*
X0168740Y0182500D01*
X0167490Y0182500D01*
X0167490Y0185000D01*
X0170250Y0184590D02*
X0170250Y0184170D01*
X0170670Y0183750D01*
X0171500Y0183750D01*
X0171920Y0183330D01*
X0171920Y0182920D01*
X0171500Y0182500D01*
X0170670Y0182500D01*
X0170250Y0182920D01*
X0170250Y0183330D01*
X0170670Y0183750D01*
X0171500Y0183750D02*
X0171920Y0184170D01*
X0171920Y0184590D01*
X0171500Y0185000D01*
X0170670Y0185000D01*
X0170250Y0184590D01*
D10*
X0149740Y0200220D02*
X0147760Y0200220D01*
X0129230Y0218750D01*
X0148750Y0238270D01*
X0168270Y0218750D01*
X0149740Y0200220D01*
X0147340Y0203480D02*
X0147360Y0203710D01*
X0147420Y0203940D01*
X0147510Y0204150D01*
X0147640Y0204350D01*
X0147800Y0204520D01*
X0147980Y0204660D01*
X0148180Y0204770D01*
X0148400Y0204850D01*
X0148630Y0204890D01*
X0148870Y0204890D01*
X0149100Y0204850D01*
X0149320Y0204770D01*
X0149520Y0204660D01*
X0149700Y0204520D01*
X0149860Y0204350D01*
X0149990Y0204150D01*
X0150080Y0203940D01*
X0150140Y0203710D01*
X0150160Y0203480D01*
X0150140Y0203250D01*
X0150080Y0203020D01*
X0149990Y0202810D01*
X0149860Y0202610D01*
X0149700Y0202440D01*
X0149520Y0202300D01*
X0149320Y0202190D01*
X0149100Y0202110D01*
X0148870Y0202070D01*
X0148630Y0202070D01*
X0148400Y0202110D01*
X0148180Y0202190D01*
X0147980Y0202300D01*
X0147800Y0202440D01*
X0147640Y0202610D01*
X0147510Y0202810D01*
X0147420Y0203020D01*
X0147360Y0203250D01*
X0147340Y0203480D01*
D10*
X0121950Y0204180D02*
X0121950Y0221350D01*
X0103050Y0221350D01*
X0103050Y0223320D01*
X0103050Y0221350D02*
X0103050Y0204180D01*
X0121950Y0221350D02*
X0121950Y0223320D01*
D15*
X0120000Y0226700D03*
X0115000Y0226700D03*
X0110000Y0226700D03*
X0105000Y0226700D03*
X0105000Y0200800D03*
X0110000Y0200800D03*
X0115000Y0200800D03*
X0120000Y0200800D03*
D10*
X0094600Y0179600D02*
X0094600Y0259600D01*
X0175400Y0259600D01*
X0175400Y0259600D02*
X0175400Y0179600D01*
X0094600Y0179600D01*
X0180000Y0010000D02*
G75*
%LPD*%
D10*
X0180000Y0010000D02*
X0260000Y0010000D01*
X0260000Y0090000D01*
X0180000Y0090000D01*
X0180000Y0010000D01*
D10*
X0182490Y0012500D02*
X0183740Y0012500D01*
X0184160Y0012920D01*
X0184160Y0013330D01*
X0183740Y0013750D01*
X0182490Y0013750D01*
X0182490Y0012500D02*
X0182490Y0015000D01*
X0183740Y0015000D01*
X0184160Y0014590D01*
X0184160Y0014170D01*
X0183740Y0013750D01*
X0185250Y0014170D02*
X0186080Y0015000D01*
X0186080Y0012500D01*
X0185250Y0012500D02*
X0186920Y0012500D01*
X0189460Y0038750D02*
X0190710Y0038750D01*
X0191130Y0039170D01*
X0191130Y0040840D01*
X0190710Y0041250D01*
X0189460Y0041250D01*
X0189460Y0038750D01*
X0192230Y0039170D02*
X0192640Y0038750D01*
X0193480Y0038750D01*
X0193890Y0039170D01*
X0193890Y0039580D01*
X0193480Y0040000D01*
X0192640Y0040000D01*
X0192230Y0040420D01*
X0192230Y0040840D01*
X0192640Y0041250D01*
X0193480Y0041250D01*
X0193890Y0040840D01*
X0194990Y0040420D02*
X0195820Y0041250D01*
X0195820Y0038750D01*
X0194990Y0038750D02*
X0196660Y0038750D01*
X0197750Y0039170D02*
X0198170Y0038750D01*
X0199000Y0038750D01*
X0199420Y0039170D01*
X0199420Y0039580D01*
X0199000Y0040000D01*
X0198580Y0040000D01*
X0199000Y0040000D02*
X0199420Y0040420D01*
X0199420Y0040840D01*
X0199000Y0041250D01*
X0198170Y0041250D01*
X0197750Y0040840D01*
X0200510Y0040840D02*
X0200510Y0039170D01*
X0202180Y0040840D01*
X0202180Y0039170D01*
X0201760Y0038750D01*
X0200930Y0038750D01*
X0200510Y0039170D01*
X0200510Y0040840D02*
X0200930Y0041250D01*
X0201760Y0041250D01*
X0202180Y0040840D01*
X0203270Y0041250D02*
X0204940Y0041250D01*
X0204940Y0040840D01*
X0203270Y0039170D01*
X0203270Y0038750D01*
X0218440Y0048160D02*
X0218440Y0049340D01*
X0219620Y0049340D01*
X0220800Y0048160D01*
X0219920Y0049050D02*
X0218740Y0047870D01*
X0218440Y0048160D02*
X0219620Y0046980D01*
X0221330Y0045860D02*
X0221330Y0045270D01*
X0221330Y0045860D02*
X0221920Y0046450D01*
X0222510Y0046450D01*
X0222800Y0046160D01*
X0222800Y0045570D01*
X0223390Y0045570D01*
X0223690Y0045270D01*
X0223690Y0044680D01*
X0223100Y0044100D01*
X0222510Y0044100D01*
X0222510Y0045270D02*
X0222800Y0045570D01*
X0223280Y0047230D02*
X0223280Y0047820D01*
X0223870Y0048410D01*
X0224460Y0048410D01*
X0224760Y0048110D01*
X0224760Y0045750D01*
X0225940Y0046930D01*
X0226410Y0048000D02*
X0226120Y0048300D01*
X0226120Y0048890D01*
X0226710Y0049480D01*
X0227300Y0049480D01*
X0227590Y0049180D01*
X0227590Y0048590D01*
X0227000Y0048000D01*
X0226410Y0048000D01*
X0226120Y0048890D02*
X0225530Y0048890D01*
X0225240Y0049180D01*
X0225240Y0049770D01*
X0225830Y0050360D01*
X0226410Y0050360D01*
X0226710Y0050070D01*
X0226710Y0049480D01*
X0228070Y0050250D02*
X0228960Y0051130D01*
X0228960Y0051720D01*
X0228370Y0052310D01*
X0227780Y0052310D01*
X0226890Y0051430D01*
X0228660Y0049660D01*
X0225780Y0053140D02*
X0225190Y0053140D01*
X0224600Y0053730D01*
X0224600Y0054320D01*
X0225190Y0054910D01*
X0225780Y0054910D01*
X0226070Y0054610D01*
X0224890Y0053430D01*
X0225780Y0053140D02*
X0226370Y0053730D01*
X0227140Y0055090D02*
X0227730Y0055090D01*
X0228610Y0055970D01*
X0228910Y0055680D02*
X0227430Y0057150D01*
X0226550Y0056270D01*
X0226550Y0055680D01*
X0227140Y0055090D01*
X0228610Y0054800D02*
X0228910Y0055090D01*
X0228910Y0055680D01*
X0229090Y0057040D02*
X0229090Y0057630D01*
X0229980Y0058520D01*
X0229680Y0058810D02*
X0230570Y0057930D01*
X0229680Y0057040D01*
X0229090Y0057040D01*
X0228500Y0058220D02*
X0229090Y0058810D01*
X0229680Y0058810D01*
X0223820Y0052950D02*
X0224710Y0052070D01*
X0224120Y0051480D02*
X0223230Y0052360D01*
X0223230Y0052950D01*
X0223820Y0052950D01*
X0223230Y0052360D02*
X0222640Y0052360D01*
X0222350Y0052070D01*
X0223530Y0050890D01*
X0222160Y0049530D02*
X0220400Y0051290D01*
X0220980Y0051880D02*
X0219810Y0050700D01*
X0205830Y0071250D02*
X0204160Y0071250D01*
X0205830Y0072920D01*
X0204160Y0072920D01*
X0203070Y0072500D02*
X0201400Y0072500D01*
X0201400Y0071250D02*
X0201400Y0073750D01*
X0200350Y0072920D02*
X0199100Y0072080D01*
X0200350Y0071250D01*
X0199100Y0071250D02*
X0199100Y0073750D01*
X0198000Y0073340D02*
X0198000Y0072920D01*
X0196340Y0071250D01*
X0198000Y0071250D01*
X0198000Y0073340D02*
X0197590Y0073750D01*
X0196750Y0073750D01*
X0196340Y0073340D01*
X0195240Y0073340D02*
X0195240Y0072920D01*
X0194830Y0072500D01*
X0195240Y0072080D01*
X0195240Y0071670D01*
X0194830Y0071250D01*
X0193990Y0071250D01*
X0193570Y0071670D01*
X0194410Y0072500D02*
X0194830Y0072500D01*
X0195240Y0073340D02*
X0194830Y0073750D01*
X0193990Y0073750D01*
X0193570Y0073340D01*
X0203070Y0073750D02*
X0203070Y0071250D01*
X0203080Y0085630D02*
X0203080Y0086880D01*
X0202660Y0087290D01*
X0201410Y0087290D01*
X0201410Y0085630D01*
X0200310Y0085630D02*
X0199060Y0085630D01*
X0198640Y0086040D01*
X0199060Y0086460D01*
X0200310Y0086460D01*
X0200310Y0086880D02*
X0200310Y0085630D01*
X0200310Y0086880D02*
X0199900Y0087290D01*
X0199060Y0087290D01*
X0197550Y0087710D02*
X0197550Y0086040D01*
X0197130Y0085630D01*
X0195880Y0085630D01*
X0195880Y0088130D01*
X0197130Y0088130D01*
X0197550Y0087710D01*
X0204170Y0087290D02*
X0204590Y0087290D01*
X0204590Y0085630D01*
X0205000Y0085630D02*
X0204170Y0085630D01*
X0206010Y0086040D02*
X0206010Y0086880D01*
X0206430Y0087290D01*
X0207260Y0087290D01*
X0207680Y0086880D01*
X0207680Y0086460D01*
X0206010Y0086460D01*
X0206010Y0086040D02*
X0206430Y0085630D01*
X0207260Y0085630D01*
X0208770Y0085630D02*
X0209610Y0085630D01*
X0209190Y0085630D02*
X0209190Y0088130D01*
X0208770Y0088130D01*
X0204590Y0088130D02*
X0204590Y0088540D01*
X0213380Y0088130D02*
X0213380Y0085630D01*
X0213380Y0086460D02*
X0214630Y0086460D01*
X0215050Y0086880D01*
X0215050Y0087710D01*
X0214630Y0088130D01*
X0213380Y0088130D01*
X0214210Y0086460D02*
X0215050Y0085630D01*
X0216140Y0086040D02*
X0216140Y0086880D01*
X0216560Y0087290D01*
X0217390Y0087290D01*
X0217810Y0086880D01*
X0217810Y0086040D01*
X0217390Y0085630D01*
X0216560Y0085630D01*
X0216140Y0086040D01*
X0218900Y0084790D02*
X0219320Y0084790D01*
X0219740Y0085210D01*
X0219740Y0087290D01*
X0219740Y0088130D02*
X0219740Y0088540D01*
X0221160Y0087290D02*
X0221990Y0087290D01*
X0222410Y0086880D01*
X0222410Y0085630D01*
X0221160Y0085630D01*
X0220740Y0086040D01*
X0221160Y0086460D01*
X0222410Y0086460D01*
X0223510Y0086880D02*
X0223920Y0087290D01*
X0225170Y0087290D01*
X0224760Y0086460D02*
X0223920Y0086460D01*
X0223510Y0086880D01*
X0223510Y0085630D02*
X0224760Y0085630D01*
X0225170Y0086040D01*
X0224760Y0086460D01*
X0229030Y0086040D02*
X0230700Y0087710D01*
X0230700Y0086040D01*
X0230280Y0085630D01*
X0229450Y0085630D01*
X0229030Y0086040D01*
X0229030Y0087710D01*
X0229450Y0088130D01*
X0230280Y0088130D01*
X0230700Y0087710D01*
X0231790Y0086880D02*
X0233040Y0086880D01*
X0233460Y0086460D01*
X0233460Y0086040D01*
X0233040Y0085630D01*
X0232210Y0085630D01*
X0231790Y0086040D01*
X0231790Y0086880D01*
X0232630Y0087710D01*
X0233460Y0088130D01*
X0234560Y0085630D02*
X0236220Y0088130D01*
X0237320Y0087710D02*
X0237730Y0088130D01*
X0238570Y0088130D01*
X0238990Y0087710D01*
X0238990Y0087290D01*
X0237320Y0085630D01*
X0238990Y0085630D01*
X0240080Y0086040D02*
X0241750Y0087710D01*
X0241750Y0086040D01*
X0241330Y0085630D01*
X0240500Y0085630D01*
X0240080Y0086040D01*
X0240080Y0087710D01*
X0240500Y0088130D01*
X0241330Y0088130D01*
X0241750Y0087710D01*
X0242840Y0087290D02*
X0243680Y0088130D01*
X0243680Y0085630D01*
X0244510Y0085630D02*
X0242840Y0085630D01*
X0245600Y0086880D02*
X0247270Y0086880D01*
X0246860Y0085630D02*
X0246860Y0088130D01*
X0245600Y0086880D01*
X0252490Y0086670D02*
X0252490Y0085000D01*
X0252490Y0086250D02*
X0254160Y0086250D01*
X0254160Y0086670D02*
X0254160Y0085000D01*
X0255250Y0085420D02*
X0255250Y0085830D01*
X0255670Y0086250D01*
X0256500Y0086250D01*
X0256920Y0085830D01*
X0256920Y0085420D01*
X0256500Y0085000D01*
X0255670Y0085000D01*
X0255250Y0085420D01*
X0255670Y0086250D02*
X0255250Y0086670D01*
X0255250Y0087090D01*
X0255670Y0087500D01*
X0256500Y0087500D01*
X0256920Y0087090D01*
X0256920Y0086670D01*
X0256500Y0086250D01*
X0254160Y0086670D02*
X0253320Y0087500D01*
X0252490Y0086670D01*
X0186920Y0085000D02*
X0185250Y0085000D01*
X0186080Y0085000D02*
X0186080Y0087500D01*
X0185250Y0086670D01*
X0184160Y0086670D02*
X0184160Y0085000D01*
X0184160Y0086250D02*
X0182490Y0086250D01*
X0182490Y0086670D02*
X0182490Y0085000D01*
X0182490Y0086670D02*
X0183320Y0087500D01*
X0184160Y0086670D01*
X0252490Y0015000D02*
X0253740Y0015000D01*
X0254160Y0014590D01*
X0254160Y0014170D01*
X0253740Y0013750D01*
X0252490Y0013750D01*
X0253740Y0013750D02*
X0254160Y0013330D01*
X0254160Y0012920D01*
X0253740Y0012500D01*
X0252490Y0012500D01*
X0252490Y0015000D01*
X0255250Y0014590D02*
X0255250Y0014170D01*
X0255670Y0013750D01*
X0256500Y0013750D01*
X0256920Y0013330D01*
X0256920Y0012920D01*
X0256500Y0012500D01*
X0255670Y0012500D01*
X0255250Y0012920D01*
X0255250Y0013330D01*
X0255670Y0013750D01*
X0256500Y0013750D02*
X0256920Y0014170D01*
X0256920Y0014590D01*
X0256500Y0015000D01*
X0255670Y0015000D01*
X0255250Y0014590D01*
D10*
X0234740Y0030220D02*
X0232760Y0030220D01*
X0214230Y0048750D01*
X0233750Y0068270D01*
X0253270Y0048750D01*
X0234740Y0030220D01*
X0232340Y0033480D02*
X0232360Y0033710D01*
X0232420Y0033940D01*
X0232510Y0034150D01*
X0232640Y0034350D01*
X0232800Y0034520D01*
X0232980Y0034660D01*
X0233180Y0034770D01*
X0233400Y0034850D01*
X0233630Y0034890D01*
X0233870Y0034890D01*
X0234100Y0034850D01*
X0234320Y0034770D01*
X0234520Y0034660D01*
X0234700Y0034520D01*
X0234860Y0034350D01*
X0234990Y0034150D01*
X0235080Y0033940D01*
X0235140Y0033710D01*
X0235160Y0033480D01*
X0235140Y0033250D01*
X0235080Y0033020D01*
X0234990Y0032810D01*
X0234860Y0032610D01*
X0234700Y0032440D01*
X0234520Y0032300D01*
X0234320Y0032190D01*
X0234100Y0032110D01*
X0233870Y0032070D01*
X0233630Y0032070D01*
X0233400Y0032110D01*
X0233180Y0032190D01*
X0232980Y0032300D01*
X0232800Y0032440D01*
X0232640Y0032610D01*
X0232510Y0032810D01*
X0232420Y0033020D01*
X0232360Y0033250D01*
X0232340Y0033480D01*
D10*
X0206950Y0034180D02*
X0206950Y0051350D01*
X0188050Y0051350D01*
X0188050Y0053320D01*
X0188050Y0051350D02*
X0188050Y0034180D01*
X0206950Y0051350D02*
X0206950Y0053320D01*
D15*
X0205000Y0056700D03*
X0200000Y0056700D03*
X0195000Y0056700D03*
X0190000Y0056700D03*
X0190000Y0030800D03*
X0195000Y0030800D03*
X0200000Y0030800D03*
X0205000Y0030800D03*
D10*
X0179600Y0010400D02*
X0179600Y0090400D01*
X0259600Y0090400D01*
X0259600Y0010400D01*
X0259600Y0010400D02*
X0179600Y0010400D01*
X0180000Y0095000D02*
G75*
%LPD*%
D10*
X0180000Y0095000D02*
X0260000Y0095000D01*
X0260000Y0175000D01*
X0180000Y0175000D01*
X0180000Y0095000D01*
D10*
X0182490Y0097500D02*
X0183740Y0097500D01*
X0184160Y0097920D01*
X0184160Y0098330D01*
X0183740Y0098750D01*
X0182490Y0098750D01*
X0182490Y0097500D02*
X0182490Y0100000D01*
X0183740Y0100000D01*
X0184160Y0099590D01*
X0184160Y0099170D01*
X0183740Y0098750D01*
X0185250Y0099170D02*
X0186080Y0100000D01*
X0186080Y0097500D01*
X0185250Y0097500D02*
X0186920Y0097500D01*
X0189460Y0123750D02*
X0190710Y0123750D01*
X0191130Y0124170D01*
X0191130Y0125840D01*
X0190710Y0126250D01*
X0189460Y0126250D01*
X0189460Y0123750D01*
X0192230Y0124170D02*
X0192640Y0123750D01*
X0193480Y0123750D01*
X0193890Y0124170D01*
X0193890Y0124580D01*
X0193480Y0125000D01*
X0192640Y0125000D01*
X0192230Y0125420D01*
X0192230Y0125840D01*
X0192640Y0126250D01*
X0193480Y0126250D01*
X0193890Y0125840D01*
X0194990Y0125420D02*
X0195820Y0126250D01*
X0195820Y0123750D01*
X0194990Y0123750D02*
X0196660Y0123750D01*
X0197750Y0124170D02*
X0198170Y0123750D01*
X0199000Y0123750D01*
X0199420Y0124170D01*
X0199420Y0124580D01*
X0199000Y0125000D01*
X0198580Y0125000D01*
X0199000Y0125000D02*
X0199420Y0125420D01*
X0199420Y0125840D01*
X0199000Y0126250D01*
X0198170Y0126250D01*
X0197750Y0125840D01*
X0200510Y0125840D02*
X0200510Y0124170D01*
X0202180Y0125840D01*
X0202180Y0124170D01*
X0201760Y0123750D01*
X0200930Y0123750D01*
X0200510Y0124170D01*
X0200510Y0125840D02*
X0200930Y0126250D01*
X0201760Y0126250D01*
X0202180Y0125840D01*
X0203270Y0126250D02*
X0204940Y0126250D01*
X0204940Y0125840D01*
X0203270Y0124170D01*
X0203270Y0123750D01*
X0218440Y0133160D02*
X0218440Y0134340D01*
X0219620Y0134340D01*
X0220800Y0133160D01*
X0219920Y0134050D02*
X0218740Y0132870D01*
X0218440Y0133160D02*
X0219620Y0131980D01*
X0221330Y0130860D02*
X0221330Y0130270D01*
X0221330Y0130860D02*
X0221920Y0131450D01*
X0222510Y0131450D01*
X0222800Y0131160D01*
X0222800Y0130570D01*
X0223390Y0130570D01*
X0223690Y0130270D01*
X0223690Y0129680D01*
X0223100Y0129100D01*
X0222510Y0129100D01*
X0222510Y0130270D02*
X0222800Y0130570D01*
X0223280Y0132230D02*
X0223280Y0132820D01*
X0223870Y0133410D01*
X0224460Y0133410D01*
X0224760Y0133110D01*
X0224760Y0130750D01*
X0225940Y0131930D01*
X0226410Y0133000D02*
X0226120Y0133300D01*
X0226120Y0133890D01*
X0226710Y0134480D01*
X0227300Y0134480D01*
X0227590Y0134180D01*
X0227590Y0133590D01*
X0227000Y0133000D01*
X0226410Y0133000D01*
X0226120Y0133890D02*
X0225530Y0133890D01*
X0225240Y0134180D01*
X0225240Y0134770D01*
X0225830Y0135360D01*
X0226410Y0135360D01*
X0226710Y0135070D01*
X0226710Y0134480D01*
X0228070Y0135250D02*
X0228960Y0136130D01*
X0228960Y0136720D01*
X0228370Y0137310D01*
X0227780Y0137310D01*
X0226890Y0136430D01*
X0228660Y0134660D01*
X0225780Y0138140D02*
X0225190Y0138140D01*
X0224600Y0138730D01*
X0224600Y0139320D01*
X0225190Y0139910D01*
X0225780Y0139910D01*
X0226070Y0139610D01*
X0224890Y0138430D01*
X0225780Y0138140D02*
X0226370Y0138730D01*
X0227140Y0140090D02*
X0227730Y0140090D01*
X0228610Y0140970D01*
X0228910Y0140680D02*
X0227430Y0142150D01*
X0226550Y0141270D01*
X0226550Y0140680D01*
X0227140Y0140090D01*
X0228610Y0139800D02*
X0228910Y0140090D01*
X0228910Y0140680D01*
X0229090Y0142040D02*
X0229090Y0142630D01*
X0229980Y0143520D01*
X0229680Y0143810D02*
X0230570Y0142930D01*
X0229680Y0142040D01*
X0229090Y0142040D01*
X0228500Y0143220D02*
X0229090Y0143810D01*
X0229680Y0143810D01*
X0223820Y0137950D02*
X0224710Y0137070D01*
X0224120Y0136480D02*
X0223230Y0137360D01*
X0223230Y0137950D01*
X0223820Y0137950D01*
X0223230Y0137360D02*
X0222640Y0137360D01*
X0222350Y0137070D01*
X0223530Y0135890D01*
X0222160Y0134530D02*
X0220400Y0136290D01*
X0220980Y0136880D02*
X0219810Y0135700D01*
X0205830Y0156250D02*
X0204160Y0156250D01*
X0205830Y0157920D01*
X0204160Y0157920D01*
X0203070Y0157500D02*
X0201400Y0157500D01*
X0201400Y0156250D02*
X0201400Y0158750D01*
X0200350Y0157920D02*
X0199100Y0157080D01*
X0200350Y0156250D01*
X0199100Y0156250D02*
X0199100Y0158750D01*
X0198000Y0158340D02*
X0198000Y0157920D01*
X0196340Y0156250D01*
X0198000Y0156250D01*
X0198000Y0158340D02*
X0197590Y0158750D01*
X0196750Y0158750D01*
X0196340Y0158340D01*
X0195240Y0158340D02*
X0195240Y0157920D01*
X0194830Y0157500D01*
X0195240Y0157080D01*
X0195240Y0156670D01*
X0194830Y0156250D01*
X0193990Y0156250D01*
X0193570Y0156670D01*
X0194410Y0157500D02*
X0194830Y0157500D01*
X0195240Y0158340D02*
X0194830Y0158750D01*
X0193990Y0158750D01*
X0193570Y0158340D01*
X0203070Y0158750D02*
X0203070Y0156250D01*
X0203080Y0170630D02*
X0203080Y0171880D01*
X0202660Y0172290D01*
X0201410Y0172290D01*
X0201410Y0170630D01*
X0200310Y0170630D02*
X0199060Y0170630D01*
X0198640Y0171040D01*
X0199060Y0171460D01*
X0200310Y0171460D01*
X0200310Y0171880D02*
X0200310Y0170630D01*
X0200310Y0171880D02*
X0199900Y0172290D01*
X0199060Y0172290D01*
X0197550Y0172710D02*
X0197550Y0171040D01*
X0197130Y0170630D01*
X0195880Y0170630D01*
X0195880Y0173130D01*
X0197130Y0173130D01*
X0197550Y0172710D01*
X0204170Y0172290D02*
X0204590Y0172290D01*
X0204590Y0170630D01*
X0205000Y0170630D02*
X0204170Y0170630D01*
X0206010Y0171040D02*
X0206010Y0171880D01*
X0206430Y0172290D01*
X0207260Y0172290D01*
X0207680Y0171880D01*
X0207680Y0171460D01*
X0206010Y0171460D01*
X0206010Y0171040D02*
X0206430Y0170630D01*
X0207260Y0170630D01*
X0208770Y0170630D02*
X0209610Y0170630D01*
X0209190Y0170630D02*
X0209190Y0173130D01*
X0208770Y0173130D01*
X0204590Y0173130D02*
X0204590Y0173540D01*
X0213380Y0173130D02*
X0213380Y0170630D01*
X0213380Y0171460D02*
X0214630Y0171460D01*
X0215050Y0171880D01*
X0215050Y0172710D01*
X0214630Y0173130D01*
X0213380Y0173130D01*
X0214210Y0171460D02*
X0215050Y0170630D01*
X0216140Y0171040D02*
X0216140Y0171880D01*
X0216560Y0172290D01*
X0217390Y0172290D01*
X0217810Y0171880D01*
X0217810Y0171040D01*
X0217390Y0170630D01*
X0216560Y0170630D01*
X0216140Y0171040D01*
X0218900Y0169790D02*
X0219320Y0169790D01*
X0219740Y0170210D01*
X0219740Y0172290D01*
X0219740Y0173130D02*
X0219740Y0173540D01*
X0221160Y0172290D02*
X0221990Y0172290D01*
X0222410Y0171880D01*
X0222410Y0170630D01*
X0221160Y0170630D01*
X0220740Y0171040D01*
X0221160Y0171460D01*
X0222410Y0171460D01*
X0223510Y0171880D02*
X0223920Y0172290D01*
X0225170Y0172290D01*
X0224760Y0171460D02*
X0223920Y0171460D01*
X0223510Y0171880D01*
X0223510Y0170630D02*
X0224760Y0170630D01*
X0225170Y0171040D01*
X0224760Y0171460D01*
X0229030Y0171040D02*
X0230700Y0172710D01*
X0230700Y0171040D01*
X0230280Y0170630D01*
X0229450Y0170630D01*
X0229030Y0171040D01*
X0229030Y0172710D01*
X0229450Y0173130D01*
X0230280Y0173130D01*
X0230700Y0172710D01*
X0231790Y0171880D02*
X0233040Y0171880D01*
X0233460Y0171460D01*
X0233460Y0171040D01*
X0233040Y0170630D01*
X0232210Y0170630D01*
X0231790Y0171040D01*
X0231790Y0171880D01*
X0232630Y0172710D01*
X0233460Y0173130D01*
X0234560Y0170630D02*
X0236220Y0173130D01*
X0237320Y0172710D02*
X0237730Y0173130D01*
X0238570Y0173130D01*
X0238990Y0172710D01*
X0238990Y0172290D01*
X0237320Y0170630D01*
X0238990Y0170630D01*
X0240080Y0171040D02*
X0241750Y0172710D01*
X0241750Y0171040D01*
X0241330Y0170630D01*
X0240500Y0170630D01*
X0240080Y0171040D01*
X0240080Y0172710D01*
X0240500Y0173130D01*
X0241330Y0173130D01*
X0241750Y0172710D01*
X0242840Y0172290D02*
X0243680Y0173130D01*
X0243680Y0170630D01*
X0244510Y0170630D02*
X0242840Y0170630D01*
X0245600Y0171880D02*
X0247270Y0171880D01*
X0246860Y0170630D02*
X0246860Y0173130D01*
X0245600Y0171880D01*
X0252490Y0171670D02*
X0252490Y0170000D01*
X0252490Y0171250D02*
X0254160Y0171250D01*
X0254160Y0171670D02*
X0254160Y0170000D01*
X0255250Y0170420D02*
X0255250Y0170830D01*
X0255670Y0171250D01*
X0256500Y0171250D01*
X0256920Y0170830D01*
X0256920Y0170420D01*
X0256500Y0170000D01*
X0255670Y0170000D01*
X0255250Y0170420D01*
X0255670Y0171250D02*
X0255250Y0171670D01*
X0255250Y0172090D01*
X0255670Y0172500D01*
X0256500Y0172500D01*
X0256920Y0172090D01*
X0256920Y0171670D01*
X0256500Y0171250D01*
X0254160Y0171670D02*
X0253320Y0172500D01*
X0252490Y0171670D01*
X0186920Y0170000D02*
X0185250Y0170000D01*
X0186080Y0170000D02*
X0186080Y0172500D01*
X0185250Y0171670D01*
X0184160Y0171670D02*
X0184160Y0170000D01*
X0184160Y0171250D02*
X0182490Y0171250D01*
X0182490Y0171670D02*
X0182490Y0170000D01*
X0182490Y0171670D02*
X0183320Y0172500D01*
X0184160Y0171670D01*
X0252490Y0100000D02*
X0253740Y0100000D01*
X0254160Y0099590D01*
X0254160Y0099170D01*
X0253740Y0098750D01*
X0252490Y0098750D01*
X0253740Y0098750D02*
X0254160Y0098330D01*
X0254160Y0097920D01*
X0253740Y0097500D01*
X0252490Y0097500D01*
X0252490Y0100000D01*
X0255250Y0099590D02*
X0255250Y0099170D01*
X0255670Y0098750D01*
X0256500Y0098750D01*
X0256920Y0098330D01*
X0256920Y0097920D01*
X0256500Y0097500D01*
X0255670Y0097500D01*
X0255250Y0097920D01*
X0255250Y0098330D01*
X0255670Y0098750D01*
X0256500Y0098750D02*
X0256920Y0099170D01*
X0256920Y0099590D01*
X0256500Y0100000D01*
X0255670Y0100000D01*
X0255250Y0099590D01*
D10*
X0234740Y0115220D02*
X0232760Y0115220D01*
X0214230Y0133750D01*
X0233750Y0153270D01*
X0253270Y0133750D01*
X0234740Y0115220D01*
X0232340Y0118480D02*
X0232360Y0118710D01*
X0232420Y0118940D01*
X0232510Y0119150D01*
X0232640Y0119350D01*
X0232800Y0119520D01*
X0232980Y0119660D01*
X0233180Y0119770D01*
X0233400Y0119850D01*
X0233630Y0119890D01*
X0233870Y0119890D01*
X0234100Y0119850D01*
X0234320Y0119770D01*
X0234520Y0119660D01*
X0234700Y0119520D01*
X0234860Y0119350D01*
X0234990Y0119150D01*
X0235080Y0118940D01*
X0235140Y0118710D01*
X0235160Y0118480D01*
X0235140Y0118250D01*
X0235080Y0118020D01*
X0234990Y0117810D01*
X0234860Y0117610D01*
X0234700Y0117440D01*
X0234520Y0117300D01*
X0234320Y0117190D01*
X0234100Y0117110D01*
X0233870Y0117070D01*
X0233630Y0117070D01*
X0233400Y0117110D01*
X0233180Y0117190D01*
X0232980Y0117300D01*
X0232800Y0117440D01*
X0232640Y0117610D01*
X0232510Y0117810D01*
X0232420Y0118020D01*
X0232360Y0118250D01*
X0232340Y0118480D01*
D10*
X0206950Y0119180D02*
X0206950Y0136350D01*
X0188050Y0136350D01*
X0188050Y0138320D01*
X0188050Y0136350D02*
X0188050Y0119180D01*
X0206950Y0136350D02*
X0206950Y0138320D01*
D15*
X0205000Y0141700D03*
X0200000Y0141700D03*
X0195000Y0141700D03*
X0190000Y0141700D03*
X0190000Y0115800D03*
X0195000Y0115800D03*
X0200000Y0115800D03*
X0205000Y0115800D03*
D10*
X0179600Y0094600D02*
X0179600Y0175400D01*
X0259600Y0175400D01*
X0259600Y0094600D01*
X0259600Y0094600D02*
X0179600Y0094600D01*
X0180000Y0180000D02*
G75*
%LPD*%
D10*
X0180000Y0180000D02*
X0260000Y0180000D01*
X0260000Y0260000D01*
X0180000Y0260000D01*
X0180000Y0180000D01*
D10*
X0182490Y0182500D02*
X0183740Y0182500D01*
X0184160Y0182920D01*
X0184160Y0183330D01*
X0183740Y0183750D01*
X0182490Y0183750D01*
X0182490Y0182500D02*
X0182490Y0185000D01*
X0183740Y0185000D01*
X0184160Y0184590D01*
X0184160Y0184170D01*
X0183740Y0183750D01*
X0185250Y0184170D02*
X0186080Y0185000D01*
X0186080Y0182500D01*
X0185250Y0182500D02*
X0186920Y0182500D01*
X0189460Y0208750D02*
X0190710Y0208750D01*
X0191130Y0209170D01*
X0191130Y0210840D01*
X0190710Y0211250D01*
X0189460Y0211250D01*
X0189460Y0208750D01*
X0192230Y0209170D02*
X0192640Y0208750D01*
X0193480Y0208750D01*
X0193890Y0209170D01*
X0193890Y0209580D01*
X0193480Y0210000D01*
X0192640Y0210000D01*
X0192230Y0210420D01*
X0192230Y0210840D01*
X0192640Y0211250D01*
X0193480Y0211250D01*
X0193890Y0210840D01*
X0194990Y0210420D02*
X0195820Y0211250D01*
X0195820Y0208750D01*
X0194990Y0208750D02*
X0196660Y0208750D01*
X0197750Y0209170D02*
X0198170Y0208750D01*
X0199000Y0208750D01*
X0199420Y0209170D01*
X0199420Y0209580D01*
X0199000Y0210000D01*
X0198580Y0210000D01*
X0199000Y0210000D02*
X0199420Y0210420D01*
X0199420Y0210840D01*
X0199000Y0211250D01*
X0198170Y0211250D01*
X0197750Y0210840D01*
X0200510Y0210840D02*
X0200510Y0209170D01*
X0202180Y0210840D01*
X0202180Y0209170D01*
X0201760Y0208750D01*
X0200930Y0208750D01*
X0200510Y0209170D01*
X0200510Y0210840D02*
X0200930Y0211250D01*
X0201760Y0211250D01*
X0202180Y0210840D01*
X0203270Y0211250D02*
X0204940Y0211250D01*
X0204940Y0210840D01*
X0203270Y0209170D01*
X0203270Y0208750D01*
X0218440Y0218160D02*
X0218440Y0219340D01*
X0219620Y0219340D01*
X0220800Y0218160D01*
X0219920Y0219050D02*
X0218740Y0217870D01*
X0218440Y0218160D02*
X0219620Y0216980D01*
X0221330Y0215860D02*
X0221330Y0215270D01*
X0221330Y0215860D02*
X0221920Y0216450D01*
X0222510Y0216450D01*
X0222800Y0216160D01*
X0222800Y0215570D01*
X0223390Y0215570D01*
X0223690Y0215270D01*
X0223690Y0214680D01*
X0223100Y0214100D01*
X0222510Y0214100D01*
X0222510Y0215270D02*
X0222800Y0215570D01*
X0223280Y0217230D02*
X0223280Y0217820D01*
X0223870Y0218410D01*
X0224460Y0218410D01*
X0224760Y0218110D01*
X0224760Y0215750D01*
X0225940Y0216930D01*
X0226410Y0218000D02*
X0226120Y0218300D01*
X0226120Y0218890D01*
X0226710Y0219480D01*
X0227300Y0219480D01*
X0227590Y0219180D01*
X0227590Y0218590D01*
X0227000Y0218000D01*
X0226410Y0218000D01*
X0226120Y0218890D02*
X0225530Y0218890D01*
X0225240Y0219180D01*
X0225240Y0219770D01*
X0225830Y0220360D01*
X0226410Y0220360D01*
X0226710Y0220070D01*
X0226710Y0219480D01*
X0228070Y0220250D02*
X0228960Y0221130D01*
X0228960Y0221720D01*
X0228370Y0222310D01*
X0227780Y0222310D01*
X0226890Y0221430D01*
X0228660Y0219660D01*
X0225780Y0223140D02*
X0225190Y0223140D01*
X0224600Y0223730D01*
X0224600Y0224320D01*
X0225190Y0224910D01*
X0225780Y0224910D01*
X0226070Y0224610D01*
X0224890Y0223430D01*
X0225780Y0223140D02*
X0226370Y0223730D01*
X0227140Y0225090D02*
X0227730Y0225090D01*
X0228610Y0225970D01*
X0228910Y0225680D02*
X0227430Y0227150D01*
X0226550Y0226270D01*
X0226550Y0225680D01*
X0227140Y0225090D01*
X0228610Y0224800D02*
X0228910Y0225090D01*
X0228910Y0225680D01*
X0229090Y0227040D02*
X0229090Y0227630D01*
X0229980Y0228520D01*
X0229680Y0228810D02*
X0230570Y0227930D01*
X0229680Y0227040D01*
X0229090Y0227040D01*
X0228500Y0228220D02*
X0229090Y0228810D01*
X0229680Y0228810D01*
X0223820Y0222950D02*
X0224710Y0222070D01*
X0224120Y0221480D02*
X0223230Y0222360D01*
X0223230Y0222950D01*
X0223820Y0222950D01*
X0223230Y0222360D02*
X0222640Y0222360D01*
X0222350Y0222070D01*
X0223530Y0220890D01*
X0222160Y0219530D02*
X0220400Y0221290D01*
X0220980Y0221880D02*
X0219810Y0220700D01*
X0205830Y0241250D02*
X0204160Y0241250D01*
X0205830Y0242920D01*
X0204160Y0242920D01*
X0203070Y0242500D02*
X0201400Y0242500D01*
X0201400Y0241250D02*
X0201400Y0243750D01*
X0200350Y0242920D02*
X0199100Y0242080D01*
X0200350Y0241250D01*
X0199100Y0241250D02*
X0199100Y0243750D01*
X0198000Y0243340D02*
X0198000Y0242920D01*
X0196340Y0241250D01*
X0198000Y0241250D01*
X0198000Y0243340D02*
X0197590Y0243750D01*
X0196750Y0243750D01*
X0196340Y0243340D01*
X0195240Y0243340D02*
X0195240Y0242920D01*
X0194830Y0242500D01*
X0195240Y0242080D01*
X0195240Y0241670D01*
X0194830Y0241250D01*
X0193990Y0241250D01*
X0193570Y0241670D01*
X0194410Y0242500D02*
X0194830Y0242500D01*
X0195240Y0243340D02*
X0194830Y0243750D01*
X0193990Y0243750D01*
X0193570Y0243340D01*
X0203070Y0243750D02*
X0203070Y0241250D01*
X0203080Y0255630D02*
X0203080Y0256880D01*
X0202660Y0257290D01*
X0201410Y0257290D01*
X0201410Y0255630D01*
X0200310Y0255630D02*
X0199060Y0255630D01*
X0198640Y0256040D01*
X0199060Y0256460D01*
X0200310Y0256460D01*
X0200310Y0256880D02*
X0200310Y0255630D01*
X0200310Y0256880D02*
X0199900Y0257290D01*
X0199060Y0257290D01*
X0197550Y0257710D02*
X0197550Y0256040D01*
X0197130Y0255630D01*
X0195880Y0255630D01*
X0195880Y0258130D01*
X0197130Y0258130D01*
X0197550Y0257710D01*
X0204170Y0257290D02*
X0204590Y0257290D01*
X0204590Y0255630D01*
X0205000Y0255630D02*
X0204170Y0255630D01*
X0206010Y0256040D02*
X0206010Y0256880D01*
X0206430Y0257290D01*
X0207260Y0257290D01*
X0207680Y0256880D01*
X0207680Y0256460D01*
X0206010Y0256460D01*
X0206010Y0256040D02*
X0206430Y0255630D01*
X0207260Y0255630D01*
X0208770Y0255630D02*
X0209610Y0255630D01*
X0209190Y0255630D02*
X0209190Y0258130D01*
X0208770Y0258130D01*
X0204590Y0258130D02*
X0204590Y0258540D01*
X0213380Y0258130D02*
X0213380Y0255630D01*
X0213380Y0256460D02*
X0214630Y0256460D01*
X0215050Y0256880D01*
X0215050Y0257710D01*
X0214630Y0258130D01*
X0213380Y0258130D01*
X0214210Y0256460D02*
X0215050Y0255630D01*
X0216140Y0256040D02*
X0216140Y0256880D01*
X0216560Y0257290D01*
X0217390Y0257290D01*
X0217810Y0256880D01*
X0217810Y0256040D01*
X0217390Y0255630D01*
X0216560Y0255630D01*
X0216140Y0256040D01*
X0218900Y0254790D02*
X0219320Y0254790D01*
X0219740Y0255210D01*
X0219740Y0257290D01*
X0219740Y0258130D02*
X0219740Y0258540D01*
X0221160Y0257290D02*
X0221990Y0257290D01*
X0222410Y0256880D01*
X0222410Y0255630D01*
X0221160Y0255630D01*
X0220740Y0256040D01*
X0221160Y0256460D01*
X0222410Y0256460D01*
X0223510Y0256880D02*
X0223920Y0257290D01*
X0225170Y0257290D01*
X0224760Y0256460D02*
X0223920Y0256460D01*
X0223510Y0256880D01*
X0223510Y0255630D02*
X0224760Y0255630D01*
X0225170Y0256040D01*
X0224760Y0256460D01*
X0229030Y0256040D02*
X0230700Y0257710D01*
X0230700Y0256040D01*
X0230280Y0255630D01*
X0229450Y0255630D01*
X0229030Y0256040D01*
X0229030Y0257710D01*
X0229450Y0258130D01*
X0230280Y0258130D01*
X0230700Y0257710D01*
X0231790Y0256880D02*
X0233040Y0256880D01*
X0233460Y0256460D01*
X0233460Y0256040D01*
X0233040Y0255630D01*
X0232210Y0255630D01*
X0231790Y0256040D01*
X0231790Y0256880D01*
X0232630Y0257710D01*
X0233460Y0258130D01*
X0234560Y0255630D02*
X0236220Y0258130D01*
X0237320Y0257710D02*
X0237730Y0258130D01*
X0238570Y0258130D01*
X0238990Y0257710D01*
X0238990Y0257290D01*
X0237320Y0255630D01*
X0238990Y0255630D01*
X0240080Y0256040D02*
X0241750Y0257710D01*
X0241750Y0256040D01*
X0241330Y0255630D01*
X0240500Y0255630D01*
X0240080Y0256040D01*
X0240080Y0257710D01*
X0240500Y0258130D01*
X0241330Y0258130D01*
X0241750Y0257710D01*
X0242840Y0257290D02*
X0243680Y0258130D01*
X0243680Y0255630D01*
X0244510Y0255630D02*
X0242840Y0255630D01*
X0245600Y0256880D02*
X0247270Y0256880D01*
X0246860Y0255630D02*
X0246860Y0258130D01*
X0245600Y0256880D01*
X0252490Y0256670D02*
X0252490Y0255000D01*
X0252490Y0256250D02*
X0254160Y0256250D01*
X0254160Y0256670D02*
X0254160Y0255000D01*
X0255250Y0255420D02*
X0255250Y0255830D01*
X0255670Y0256250D01*
X0256500Y0256250D01*
X0256920Y0255830D01*
X0256920Y0255420D01*
X0256500Y0255000D01*
X0255670Y0255000D01*
X0255250Y0255420D01*
X0255670Y0256250D02*
X0255250Y0256670D01*
X0255250Y0257090D01*
X0255670Y0257500D01*
X0256500Y0257500D01*
X0256920Y0257090D01*
X0256920Y0256670D01*
X0256500Y0256250D01*
X0254160Y0256670D02*
X0253320Y0257500D01*
X0252490Y0256670D01*
X0186920Y0255000D02*
X0185250Y0255000D01*
X0186080Y0255000D02*
X0186080Y0257500D01*
X0185250Y0256670D01*
X0184160Y0256670D02*
X0184160Y0255000D01*
X0184160Y0256250D02*
X0182490Y0256250D01*
X0182490Y0256670D02*
X0182490Y0255000D01*
X0182490Y0256670D02*
X0183320Y0257500D01*
X0184160Y0256670D01*
X0252490Y0185000D02*
X0253740Y0185000D01*
X0254160Y0184590D01*
X0254160Y0184170D01*
X0253740Y0183750D01*
X0252490Y0183750D01*
X0253740Y0183750D02*
X0254160Y0183330D01*
X0254160Y0182920D01*
X0253740Y0182500D01*
X0252490Y0182500D01*
X0252490Y0185000D01*
X0255250Y0184590D02*
X0255250Y0184170D01*
X0255670Y0183750D01*
X0256500Y0183750D01*
X0256920Y0183330D01*
X0256920Y0182920D01*
X0256500Y0182500D01*
X0255670Y0182500D01*
X0255250Y0182920D01*
X0255250Y0183330D01*
X0255670Y0183750D01*
X0256500Y0183750D02*
X0256920Y0184170D01*
X0256920Y0184590D01*
X0256500Y0185000D01*
X0255670Y0185000D01*
X0255250Y0184590D01*
D10*
X0234740Y0200220D02*
X0232760Y0200220D01*
X0214230Y0218750D01*
X0233750Y0238270D01*
X0253270Y0218750D01*
X0234740Y0200220D01*
X0232340Y0203480D02*
X0232360Y0203710D01*
X0232420Y0203940D01*
X0232510Y0204150D01*
X0232640Y0204350D01*
X0232800Y0204520D01*
X0232980Y0204660D01*
X0233180Y0204770D01*
X0233400Y0204850D01*
X0233630Y0204890D01*
X0233870Y0204890D01*
X0234100Y0204850D01*
X0234320Y0204770D01*
X0234520Y0204660D01*
X0234700Y0204520D01*
X0234860Y0204350D01*
X0234990Y0204150D01*
X0235080Y0203940D01*
X0235140Y0203710D01*
X0235160Y0203480D01*
X0235140Y0203250D01*
X0235080Y0203020D01*
X0234990Y0202810D01*
X0234860Y0202610D01*
X0234700Y0202440D01*
X0234520Y0202300D01*
X0234320Y0202190D01*
X0234100Y0202110D01*
X0233870Y0202070D01*
X0233630Y0202070D01*
X0233400Y0202110D01*
X0233180Y0202190D01*
X0232980Y0202300D01*
X0232800Y0202440D01*
X0232640Y0202610D01*
X0232510Y0202810D01*
X0232420Y0203020D01*
X0232360Y0203250D01*
X0232340Y0203480D01*
D10*
X0206950Y0204180D02*
X0206950Y0221350D01*
X0188050Y0221350D01*
X0188050Y0223320D01*
X0188050Y0221350D02*
X0188050Y0204180D01*
X0206950Y0221350D02*
X0206950Y0223320D01*
D15*
X0205000Y0226700D03*
X0200000Y0226700D03*
X0195000Y0226700D03*
X0190000Y0226700D03*
X0190000Y0200800D03*
X0195000Y0200800D03*
X0200000Y0200800D03*
X0205000Y0200800D03*
D10*
X0179600Y0179600D02*
X0179600Y0259600D01*
X0259600Y0259600D01*
X0259600Y0259600D02*
X0259600Y0179600D01*
X0259600Y0179600D02*
X0179600Y0179600D01*
D10*
X0022900Y0010400D02*
X0010400Y0010400D01*
X0010400Y0022900D01*
X0259600Y0022900D02*
X0259600Y0010400D01*
X0247100Y0010400D01*
X0247100Y0259600D02*
X0259600Y0259600D01*
X0259600Y0247100D01*
X0010400Y0247100D02*
X0010400Y0259600D01*
X0022900Y0259600D01*
M02*
