G75*
G70*
%OFA0B0*%
%FSLAX25Y25*%
%IPPOS*%
%LPD*%
%AMOC8*
5,1,8,0,0,1.08239X$1,22.5*
%
%ADD13C,0.10400*%
%ADD14C,0.05400*%
%ADD20R,0.05520X0.06310*%
%ADD25R,0.08080X0.10240*%
%ADD34R,0.06700X0.05910*%
%ADD37C,0.00000*%
%ADD38OC8,0.07400*%
X0010000Y0010000D02*
G75*
%LPD*%
D37*
X0010000Y0010000D02*
X0090000Y0010000D01*
X0090000Y0090000D01*
X0010000Y0090000D01*
X0010000Y0010000D01*
D14*
X0020000Y0013750D03*
X0030000Y0013750D03*
X0075000Y0036250D03*
X0075000Y0046250D03*
X0075000Y0056250D03*
X0070000Y0065000D03*
X0070000Y0072500D03*
X0085000Y0056250D03*
X0085000Y0046250D03*
X0085000Y0036250D03*
D13*
X0053750Y0070000D03*
X0048750Y0057500D03*
X0032500Y0057500D03*
X0017500Y0057500D03*
D38*
X0015000Y0080000D03*
X0025000Y0080000D03*
X0035000Y0080000D03*
X0045000Y0080000D03*
X0055000Y0080000D03*
X0065000Y0080000D03*
X0075000Y0080000D03*
X0085000Y0080000D03*
X0085000Y0020000D03*
X0075000Y0020000D03*
X0065000Y0020000D03*
X0055000Y0020000D03*
X0045000Y0020000D03*
X0035000Y0020000D03*
X0025000Y0020000D03*
X0015000Y0020000D03*
D34*
X0017210Y0028640D03*
X0017210Y0037500D03*
X0017210Y0046360D03*
X0050290Y0046360D03*
X0050290Y0028640D03*
D20*
G36*
X0055840Y0030970D02*
X0051940Y0034870D01*
X0056380Y0039310D01*
X0060280Y0035410D01*
X0055840Y0030970D01*
G37*
G36*
X0061120Y0025690D02*
X0057220Y0029590D01*
X0061660Y0034030D01*
X0065560Y0030130D01*
X0061120Y0025690D01*
G37*
D25*
X0039750Y0070000D03*
X0027750Y0070000D03*
X0010000Y0095000D02*
G75*
%LPD*%
D37*
X0010000Y0095000D02*
X0090000Y0095000D01*
X0090000Y0175000D01*
X0010000Y0175000D01*
X0010000Y0095000D01*
D14*
X0020000Y0098750D03*
X0030000Y0098750D03*
X0075000Y0121250D03*
X0075000Y0131250D03*
X0075000Y0141250D03*
X0070000Y0150000D03*
X0070000Y0157500D03*
X0085000Y0141250D03*
X0085000Y0131250D03*
X0085000Y0121250D03*
D13*
X0053750Y0155000D03*
X0048750Y0142500D03*
X0032500Y0142500D03*
X0017500Y0142500D03*
D38*
X0015000Y0165000D03*
X0025000Y0165000D03*
X0035000Y0165000D03*
X0045000Y0165000D03*
X0055000Y0165000D03*
X0065000Y0165000D03*
X0075000Y0165000D03*
X0085000Y0165000D03*
X0085000Y0105000D03*
X0075000Y0105000D03*
X0065000Y0105000D03*
X0055000Y0105000D03*
X0045000Y0105000D03*
X0035000Y0105000D03*
X0025000Y0105000D03*
X0015000Y0105000D03*
D34*
X0017210Y0113640D03*
X0017210Y0122500D03*
X0017210Y0131360D03*
X0050290Y0131360D03*
X0050290Y0113640D03*
D20*
G36*
X0055840Y0115970D02*
X0051940Y0119870D01*
X0056380Y0124310D01*
X0060280Y0120410D01*
X0055840Y0115970D01*
G37*
G36*
X0061120Y0110690D02*
X0057220Y0114590D01*
X0061660Y0119030D01*
X0065560Y0115130D01*
X0061120Y0110690D01*
G37*
D25*
X0039750Y0155000D03*
X0027750Y0155000D03*
X0010000Y0180000D02*
G75*
%LPD*%
D37*
X0010000Y0180000D02*
X0090000Y0180000D01*
X0090000Y0260000D01*
X0010000Y0260000D01*
X0010000Y0180000D01*
D14*
X0020000Y0183750D03*
X0030000Y0183750D03*
X0075000Y0206250D03*
X0075000Y0216250D03*
X0075000Y0226250D03*
X0070000Y0235000D03*
X0070000Y0242500D03*
X0085000Y0226250D03*
X0085000Y0216250D03*
X0085000Y0206250D03*
D13*
X0053750Y0240000D03*
X0048750Y0227500D03*
X0032500Y0227500D03*
X0017500Y0227500D03*
D38*
X0015000Y0250000D03*
X0025000Y0250000D03*
X0035000Y0250000D03*
X0045000Y0250000D03*
X0055000Y0250000D03*
X0065000Y0250000D03*
X0075000Y0250000D03*
X0085000Y0250000D03*
X0085000Y0190000D03*
X0075000Y0190000D03*
X0065000Y0190000D03*
X0055000Y0190000D03*
X0045000Y0190000D03*
X0035000Y0190000D03*
X0025000Y0190000D03*
X0015000Y0190000D03*
D34*
X0017210Y0198640D03*
X0017210Y0207500D03*
X0017210Y0216360D03*
X0050290Y0216360D03*
X0050290Y0198640D03*
D20*
G36*
X0055840Y0200970D02*
X0051940Y0204870D01*
X0056380Y0209310D01*
X0060280Y0205410D01*
X0055840Y0200970D01*
G37*
G36*
X0061120Y0195690D02*
X0057220Y0199590D01*
X0061660Y0204030D01*
X0065560Y0200130D01*
X0061120Y0195690D01*
G37*
D25*
X0039750Y0240000D03*
X0027750Y0240000D03*
X0095000Y0010000D02*
G75*
%LPD*%
D37*
X0095000Y0010000D02*
X0175000Y0010000D01*
X0175000Y0090000D01*
X0095000Y0090000D01*
X0095000Y0010000D01*
D14*
X0105000Y0013750D03*
X0115000Y0013750D03*
X0160000Y0036250D03*
X0160000Y0046250D03*
X0160000Y0056250D03*
X0155000Y0065000D03*
X0155000Y0072500D03*
X0170000Y0056250D03*
X0170000Y0046250D03*
X0170000Y0036250D03*
D13*
X0138750Y0070000D03*
X0133750Y0057500D03*
X0117500Y0057500D03*
X0102500Y0057500D03*
D38*
X0100000Y0080000D03*
X0110000Y0080000D03*
X0120000Y0080000D03*
X0130000Y0080000D03*
X0140000Y0080000D03*
X0150000Y0080000D03*
X0160000Y0080000D03*
X0170000Y0080000D03*
X0170000Y0020000D03*
X0160000Y0020000D03*
X0150000Y0020000D03*
X0140000Y0020000D03*
X0130000Y0020000D03*
X0120000Y0020000D03*
X0110000Y0020000D03*
X0100000Y0020000D03*
D34*
X0102210Y0028640D03*
X0102210Y0037500D03*
X0102210Y0046360D03*
X0135290Y0046360D03*
X0135290Y0028640D03*
D20*
G36*
X0140840Y0030970D02*
X0136940Y0034870D01*
X0141380Y0039310D01*
X0145280Y0035410D01*
X0140840Y0030970D01*
G37*
G36*
X0146120Y0025690D02*
X0142220Y0029590D01*
X0146660Y0034030D01*
X0150560Y0030130D01*
X0146120Y0025690D01*
G37*
D25*
X0124750Y0070000D03*
X0112750Y0070000D03*
X0095000Y0095000D02*
G75*
%LPD*%
D37*
X0095000Y0095000D02*
X0175000Y0095000D01*
X0175000Y0175000D01*
X0095000Y0175000D01*
X0095000Y0095000D01*
D14*
X0105000Y0098750D03*
X0115000Y0098750D03*
X0160000Y0121250D03*
X0160000Y0131250D03*
X0160000Y0141250D03*
X0155000Y0150000D03*
X0155000Y0157500D03*
X0170000Y0141250D03*
X0170000Y0131250D03*
X0170000Y0121250D03*
D13*
X0138750Y0155000D03*
X0133750Y0142500D03*
X0117500Y0142500D03*
X0102500Y0142500D03*
D38*
X0100000Y0165000D03*
X0110000Y0165000D03*
X0120000Y0165000D03*
X0130000Y0165000D03*
X0140000Y0165000D03*
X0150000Y0165000D03*
X0160000Y0165000D03*
X0170000Y0165000D03*
X0170000Y0105000D03*
X0160000Y0105000D03*
X0150000Y0105000D03*
X0140000Y0105000D03*
X0130000Y0105000D03*
X0120000Y0105000D03*
X0110000Y0105000D03*
X0100000Y0105000D03*
D34*
X0102210Y0113640D03*
X0102210Y0122500D03*
X0102210Y0131360D03*
X0135290Y0131360D03*
X0135290Y0113640D03*
D20*
G36*
X0140840Y0115970D02*
X0136940Y0119870D01*
X0141380Y0124310D01*
X0145280Y0120410D01*
X0140840Y0115970D01*
G37*
G36*
X0146120Y0110690D02*
X0142220Y0114590D01*
X0146660Y0119030D01*
X0150560Y0115130D01*
X0146120Y0110690D01*
G37*
D25*
X0124750Y0155000D03*
X0112750Y0155000D03*
X0095000Y0180000D02*
G75*
%LPD*%
D37*
X0095000Y0180000D02*
X0175000Y0180000D01*
X0175000Y0260000D01*
X0095000Y0260000D01*
X0095000Y0180000D01*
D14*
X0105000Y0183750D03*
X0115000Y0183750D03*
X0160000Y0206250D03*
X0160000Y0216250D03*
X0160000Y0226250D03*
X0155000Y0235000D03*
X0155000Y0242500D03*
X0170000Y0226250D03*
X0170000Y0216250D03*
X0170000Y0206250D03*
D13*
X0138750Y0240000D03*
X0133750Y0227500D03*
X0117500Y0227500D03*
X0102500Y0227500D03*
D38*
X0100000Y0250000D03*
X0110000Y0250000D03*
X0120000Y0250000D03*
X0130000Y0250000D03*
X0140000Y0250000D03*
X0150000Y0250000D03*
X0160000Y0250000D03*
X0170000Y0250000D03*
X0170000Y0190000D03*
X0160000Y0190000D03*
X0150000Y0190000D03*
X0140000Y0190000D03*
X0130000Y0190000D03*
X0120000Y0190000D03*
X0110000Y0190000D03*
X0100000Y0190000D03*
D34*
X0102210Y0198640D03*
X0102210Y0207500D03*
X0102210Y0216360D03*
X0135290Y0216360D03*
X0135290Y0198640D03*
D20*
G36*
X0140840Y0200970D02*
X0136940Y0204870D01*
X0141380Y0209310D01*
X0145280Y0205410D01*
X0140840Y0200970D01*
G37*
G36*
X0146120Y0195690D02*
X0142220Y0199590D01*
X0146660Y0204030D01*
X0150560Y0200130D01*
X0146120Y0195690D01*
G37*
D25*
X0124750Y0240000D03*
X0112750Y0240000D03*
X0180000Y0010000D02*
G75*
%LPD*%
D37*
X0180000Y0010000D02*
X0260000Y0010000D01*
X0260000Y0090000D01*
X0180000Y0090000D01*
X0180000Y0010000D01*
D14*
X0190000Y0013750D03*
X0200000Y0013750D03*
X0245000Y0036250D03*
X0245000Y0046250D03*
X0245000Y0056250D03*
X0240000Y0065000D03*
X0240000Y0072500D03*
X0255000Y0056250D03*
X0255000Y0046250D03*
X0255000Y0036250D03*
D13*
X0223750Y0070000D03*
X0218750Y0057500D03*
X0202500Y0057500D03*
X0187500Y0057500D03*
D38*
X0185000Y0080000D03*
X0195000Y0080000D03*
X0205000Y0080000D03*
X0215000Y0080000D03*
X0225000Y0080000D03*
X0235000Y0080000D03*
X0245000Y0080000D03*
X0255000Y0080000D03*
X0255000Y0020000D03*
X0245000Y0020000D03*
X0235000Y0020000D03*
X0225000Y0020000D03*
X0215000Y0020000D03*
X0205000Y0020000D03*
X0195000Y0020000D03*
X0185000Y0020000D03*
D34*
X0187210Y0028640D03*
X0187210Y0037500D03*
X0187210Y0046360D03*
X0220290Y0046360D03*
X0220290Y0028640D03*
D20*
G36*
X0225840Y0030970D02*
X0221940Y0034870D01*
X0226380Y0039310D01*
X0230280Y0035410D01*
X0225840Y0030970D01*
G37*
G36*
X0231120Y0025690D02*
X0227220Y0029590D01*
X0231660Y0034030D01*
X0235560Y0030130D01*
X0231120Y0025690D01*
G37*
D25*
X0209750Y0070000D03*
X0197750Y0070000D03*
X0180000Y0095000D02*
G75*
%LPD*%
D37*
X0180000Y0095000D02*
X0260000Y0095000D01*
X0260000Y0175000D01*
X0180000Y0175000D01*
X0180000Y0095000D01*
D14*
X0190000Y0098750D03*
X0200000Y0098750D03*
X0245000Y0121250D03*
X0245000Y0131250D03*
X0245000Y0141250D03*
X0240000Y0150000D03*
X0240000Y0157500D03*
X0255000Y0141250D03*
X0255000Y0131250D03*
X0255000Y0121250D03*
D13*
X0223750Y0155000D03*
X0218750Y0142500D03*
X0202500Y0142500D03*
X0187500Y0142500D03*
D38*
X0185000Y0165000D03*
X0195000Y0165000D03*
X0205000Y0165000D03*
X0215000Y0165000D03*
X0225000Y0165000D03*
X0235000Y0165000D03*
X0245000Y0165000D03*
X0255000Y0165000D03*
X0255000Y0105000D03*
X0245000Y0105000D03*
X0235000Y0105000D03*
X0225000Y0105000D03*
X0215000Y0105000D03*
X0205000Y0105000D03*
X0195000Y0105000D03*
X0185000Y0105000D03*
D34*
X0187210Y0113640D03*
X0187210Y0122500D03*
X0187210Y0131360D03*
X0220290Y0131360D03*
X0220290Y0113640D03*
D20*
G36*
X0225840Y0115970D02*
X0221940Y0119870D01*
X0226380Y0124310D01*
X0230280Y0120410D01*
X0225840Y0115970D01*
G37*
G36*
X0231120Y0110690D02*
X0227220Y0114590D01*
X0231660Y0119030D01*
X0235560Y0115130D01*
X0231120Y0110690D01*
G37*
D25*
X0209750Y0155000D03*
X0197750Y0155000D03*
X0180000Y0180000D02*
G75*
%LPD*%
D37*
X0180000Y0180000D02*
X0260000Y0180000D01*
X0260000Y0260000D01*
X0180000Y0260000D01*
X0180000Y0180000D01*
D14*
X0190000Y0183750D03*
X0200000Y0183750D03*
X0245000Y0206250D03*
X0245000Y0216250D03*
X0245000Y0226250D03*
X0240000Y0235000D03*
X0240000Y0242500D03*
X0255000Y0226250D03*
X0255000Y0216250D03*
X0255000Y0206250D03*
D13*
X0223750Y0240000D03*
X0218750Y0227500D03*
X0202500Y0227500D03*
X0187500Y0227500D03*
D38*
X0185000Y0250000D03*
X0195000Y0250000D03*
X0205000Y0250000D03*
X0215000Y0250000D03*
X0225000Y0250000D03*
X0235000Y0250000D03*
X0245000Y0250000D03*
X0255000Y0250000D03*
X0255000Y0190000D03*
X0245000Y0190000D03*
X0235000Y0190000D03*
X0225000Y0190000D03*
X0215000Y0190000D03*
X0205000Y0190000D03*
X0195000Y0190000D03*
X0185000Y0190000D03*
D34*
X0187210Y0198640D03*
X0187210Y0207500D03*
X0187210Y0216360D03*
X0220290Y0216360D03*
X0220290Y0198640D03*
D20*
G36*
X0225840Y0200970D02*
X0221940Y0204870D01*
X0226380Y0209310D01*
X0230280Y0205410D01*
X0225840Y0200970D01*
G37*
G36*
X0231120Y0195690D02*
X0227220Y0199590D01*
X0231660Y0204030D01*
X0235560Y0200130D01*
X0231120Y0195690D01*
G37*
D25*
X0209750Y0240000D03*
X0197750Y0240000D03*
M02*
