G75*
G70*
%OFA0B0*%
%FSLAX25Y25*%
%IPPOS*%
%LPD*%
%AMOC8*
5,1,8,0,0,1.08239X$1,22.5*
%
%ADD23R,0.02600X0.05400*%
%ADD32R,0.05400X0.02600*%
%ADD37C,0.00000*%
%ADD38OC8,0.07400*%
%ADD40R,0.02760X0.09060*%
%ADD42R,0.06700X0.07490*%
X0010000Y0010000D02*
G75*
%LPD*%
D37*
X0010000Y0010000D02*
X0090000Y0010000D01*
X0090000Y0090000D01*
X0010000Y0090000D01*
X0010000Y0010000D01*
D32*
G36*
X0043030Y0055730D02*
X0046830Y0051930D01*
X0044990Y0050090D01*
X0041190Y0053890D01*
X0043030Y0055730D01*
G37*
G36*
X0045250Y0057950D02*
X0049050Y0054150D01*
X0047210Y0052310D01*
X0043410Y0056110D01*
X0045250Y0057950D01*
G37*
G36*
X0047480Y0060180D02*
X0051280Y0056380D01*
X0049440Y0054540D01*
X0045640Y0058340D01*
X0047480Y0060180D01*
G37*
G36*
X0049710Y0062410D02*
X0053510Y0058610D01*
X0051670Y0056770D01*
X0047870Y0060570D01*
X0049710Y0062410D01*
G37*
G36*
X0051930Y0064630D02*
X0055730Y0060830D01*
X0053890Y0058990D01*
X0050090Y0062790D01*
X0051930Y0064630D01*
G37*
G36*
X0054160Y0066860D02*
X0057960Y0063060D01*
X0056120Y0061220D01*
X0052320Y0065020D01*
X0054160Y0066860D01*
G37*
G36*
X0056390Y0069090D02*
X0060190Y0065290D01*
X0058350Y0063450D01*
X0054550Y0067250D01*
X0056390Y0069090D01*
G37*
G36*
X0058610Y0071310D02*
X0062410Y0067510D01*
X0060570Y0065670D01*
X0056770Y0069470D01*
X0058610Y0071310D01*
G37*
G36*
X0082510Y0047410D02*
X0086310Y0043610D01*
X0084470Y0041770D01*
X0080670Y0045570D01*
X0082510Y0047410D01*
G37*
G36*
X0080290Y0045190D02*
X0084090Y0041390D01*
X0082250Y0039550D01*
X0078450Y0043350D01*
X0080290Y0045190D01*
G37*
G36*
X0078060Y0042960D02*
X0081860Y0039160D01*
X0080020Y0037320D01*
X0076220Y0041120D01*
X0078060Y0042960D01*
G37*
G36*
X0075830Y0040730D02*
X0079630Y0036930D01*
X0077790Y0035090D01*
X0073990Y0038890D01*
X0075830Y0040730D01*
G37*
G36*
X0073610Y0038510D02*
X0077410Y0034710D01*
X0075570Y0032870D01*
X0071770Y0036670D01*
X0073610Y0038510D01*
G37*
G36*
X0071380Y0036280D02*
X0075180Y0032480D01*
X0073340Y0030640D01*
X0069540Y0034440D01*
X0071380Y0036280D01*
G37*
G36*
X0069150Y0034050D02*
X0072950Y0030250D01*
X0071110Y0028410D01*
X0067310Y0032210D01*
X0069150Y0034050D01*
G37*
G36*
X0066930Y0031830D02*
X0070730Y0028030D01*
X0068890Y0026190D01*
X0065090Y0029990D01*
X0066930Y0031830D01*
G37*
D23*
G36*
X0060570Y0031830D02*
X0062410Y0029990D01*
X0058610Y0026190D01*
X0056770Y0028030D01*
X0060570Y0031830D01*
G37*
G36*
X0058350Y0034050D02*
X0060190Y0032210D01*
X0056390Y0028410D01*
X0054550Y0030250D01*
X0058350Y0034050D01*
G37*
G36*
X0056120Y0036280D02*
X0057960Y0034440D01*
X0054160Y0030640D01*
X0052320Y0032480D01*
X0056120Y0036280D01*
G37*
G36*
X0053890Y0038510D02*
X0055730Y0036670D01*
X0051930Y0032870D01*
X0050090Y0034710D01*
X0053890Y0038510D01*
G37*
G36*
X0051670Y0040730D02*
X0053510Y0038890D01*
X0049710Y0035090D01*
X0047870Y0036930D01*
X0051670Y0040730D01*
G37*
G36*
X0049440Y0042960D02*
X0051280Y0041120D01*
X0047480Y0037320D01*
X0045640Y0039160D01*
X0049440Y0042960D01*
G37*
G36*
X0047210Y0045190D02*
X0049050Y0043350D01*
X0045250Y0039550D01*
X0043410Y0041390D01*
X0047210Y0045190D01*
G37*
G36*
X0044990Y0047410D02*
X0046830Y0045570D01*
X0043030Y0041770D01*
X0041190Y0043610D01*
X0044990Y0047410D01*
G37*
G36*
X0068890Y0071310D02*
X0070730Y0069470D01*
X0066930Y0065670D01*
X0065090Y0067510D01*
X0068890Y0071310D01*
G37*
G36*
X0071110Y0069090D02*
X0072950Y0067250D01*
X0069150Y0063450D01*
X0067310Y0065290D01*
X0071110Y0069090D01*
G37*
G36*
X0073340Y0066860D02*
X0075180Y0065020D01*
X0071380Y0061220D01*
X0069540Y0063060D01*
X0073340Y0066860D01*
G37*
G36*
X0075570Y0064630D02*
X0077410Y0062790D01*
X0073610Y0058990D01*
X0071770Y0060830D01*
X0075570Y0064630D01*
G37*
G36*
X0077790Y0062410D02*
X0079630Y0060570D01*
X0075830Y0056770D01*
X0073990Y0058610D01*
X0077790Y0062410D01*
G37*
G36*
X0080020Y0060180D02*
X0081860Y0058340D01*
X0078060Y0054540D01*
X0076220Y0056380D01*
X0080020Y0060180D01*
G37*
G36*
X0082250Y0057950D02*
X0084090Y0056110D01*
X0080290Y0052310D01*
X0078450Y0054150D01*
X0082250Y0057950D01*
G37*
G36*
X0084470Y0055730D02*
X0086310Y0053890D01*
X0082510Y0050090D01*
X0080670Y0051930D01*
X0084470Y0055730D01*
G37*
D40*
X0035000Y0056860D03*
X0030000Y0056860D03*
X0025000Y0056860D03*
X0020000Y0056860D03*
X0020000Y0030640D03*
X0025000Y0030640D03*
X0030000Y0030640D03*
X0035000Y0030640D03*
D38*
X0035000Y0020000D03*
X0025000Y0020000D03*
X0015000Y0020000D03*
X0045000Y0020000D03*
X0055000Y0020000D03*
X0065000Y0020000D03*
X0075000Y0020000D03*
X0085000Y0020000D03*
X0085000Y0080000D03*
X0075000Y0080000D03*
X0065000Y0080000D03*
X0055000Y0080000D03*
X0045000Y0080000D03*
X0035000Y0080000D03*
X0025000Y0080000D03*
X0015000Y0080000D03*
D42*
X0024490Y0066250D03*
X0035510Y0066250D03*
X0010000Y0095000D02*
G75*
%LPD*%
D37*
X0010000Y0095000D02*
X0090000Y0095000D01*
X0090000Y0175000D01*
X0010000Y0175000D01*
X0010000Y0095000D01*
D32*
G36*
X0043030Y0140730D02*
X0046830Y0136930D01*
X0044990Y0135090D01*
X0041190Y0138890D01*
X0043030Y0140730D01*
G37*
G36*
X0045250Y0142950D02*
X0049050Y0139150D01*
X0047210Y0137310D01*
X0043410Y0141110D01*
X0045250Y0142950D01*
G37*
G36*
X0047480Y0145180D02*
X0051280Y0141380D01*
X0049440Y0139540D01*
X0045640Y0143340D01*
X0047480Y0145180D01*
G37*
G36*
X0049710Y0147410D02*
X0053510Y0143610D01*
X0051670Y0141770D01*
X0047870Y0145570D01*
X0049710Y0147410D01*
G37*
G36*
X0051930Y0149630D02*
X0055730Y0145830D01*
X0053890Y0143990D01*
X0050090Y0147790D01*
X0051930Y0149630D01*
G37*
G36*
X0054160Y0151860D02*
X0057960Y0148060D01*
X0056120Y0146220D01*
X0052320Y0150020D01*
X0054160Y0151860D01*
G37*
G36*
X0056390Y0154090D02*
X0060190Y0150290D01*
X0058350Y0148450D01*
X0054550Y0152250D01*
X0056390Y0154090D01*
G37*
G36*
X0058610Y0156310D02*
X0062410Y0152510D01*
X0060570Y0150670D01*
X0056770Y0154470D01*
X0058610Y0156310D01*
G37*
G36*
X0082510Y0132410D02*
X0086310Y0128610D01*
X0084470Y0126770D01*
X0080670Y0130570D01*
X0082510Y0132410D01*
G37*
G36*
X0080290Y0130190D02*
X0084090Y0126390D01*
X0082250Y0124550D01*
X0078450Y0128350D01*
X0080290Y0130190D01*
G37*
G36*
X0078060Y0127960D02*
X0081860Y0124160D01*
X0080020Y0122320D01*
X0076220Y0126120D01*
X0078060Y0127960D01*
G37*
G36*
X0075830Y0125730D02*
X0079630Y0121930D01*
X0077790Y0120090D01*
X0073990Y0123890D01*
X0075830Y0125730D01*
G37*
G36*
X0073610Y0123510D02*
X0077410Y0119710D01*
X0075570Y0117870D01*
X0071770Y0121670D01*
X0073610Y0123510D01*
G37*
G36*
X0071380Y0121280D02*
X0075180Y0117480D01*
X0073340Y0115640D01*
X0069540Y0119440D01*
X0071380Y0121280D01*
G37*
G36*
X0069150Y0119050D02*
X0072950Y0115250D01*
X0071110Y0113410D01*
X0067310Y0117210D01*
X0069150Y0119050D01*
G37*
G36*
X0066930Y0116830D02*
X0070730Y0113030D01*
X0068890Y0111190D01*
X0065090Y0114990D01*
X0066930Y0116830D01*
G37*
D23*
G36*
X0060570Y0116830D02*
X0062410Y0114990D01*
X0058610Y0111190D01*
X0056770Y0113030D01*
X0060570Y0116830D01*
G37*
G36*
X0058350Y0119050D02*
X0060190Y0117210D01*
X0056390Y0113410D01*
X0054550Y0115250D01*
X0058350Y0119050D01*
G37*
G36*
X0056120Y0121280D02*
X0057960Y0119440D01*
X0054160Y0115640D01*
X0052320Y0117480D01*
X0056120Y0121280D01*
G37*
G36*
X0053890Y0123510D02*
X0055730Y0121670D01*
X0051930Y0117870D01*
X0050090Y0119710D01*
X0053890Y0123510D01*
G37*
G36*
X0051670Y0125730D02*
X0053510Y0123890D01*
X0049710Y0120090D01*
X0047870Y0121930D01*
X0051670Y0125730D01*
G37*
G36*
X0049440Y0127960D02*
X0051280Y0126120D01*
X0047480Y0122320D01*
X0045640Y0124160D01*
X0049440Y0127960D01*
G37*
G36*
X0047210Y0130190D02*
X0049050Y0128350D01*
X0045250Y0124550D01*
X0043410Y0126390D01*
X0047210Y0130190D01*
G37*
G36*
X0044990Y0132410D02*
X0046830Y0130570D01*
X0043030Y0126770D01*
X0041190Y0128610D01*
X0044990Y0132410D01*
G37*
G36*
X0068890Y0156310D02*
X0070730Y0154470D01*
X0066930Y0150670D01*
X0065090Y0152510D01*
X0068890Y0156310D01*
G37*
G36*
X0071110Y0154090D02*
X0072950Y0152250D01*
X0069150Y0148450D01*
X0067310Y0150290D01*
X0071110Y0154090D01*
G37*
G36*
X0073340Y0151860D02*
X0075180Y0150020D01*
X0071380Y0146220D01*
X0069540Y0148060D01*
X0073340Y0151860D01*
G37*
G36*
X0075570Y0149630D02*
X0077410Y0147790D01*
X0073610Y0143990D01*
X0071770Y0145830D01*
X0075570Y0149630D01*
G37*
G36*
X0077790Y0147410D02*
X0079630Y0145570D01*
X0075830Y0141770D01*
X0073990Y0143610D01*
X0077790Y0147410D01*
G37*
G36*
X0080020Y0145180D02*
X0081860Y0143340D01*
X0078060Y0139540D01*
X0076220Y0141380D01*
X0080020Y0145180D01*
G37*
G36*
X0082250Y0142950D02*
X0084090Y0141110D01*
X0080290Y0137310D01*
X0078450Y0139150D01*
X0082250Y0142950D01*
G37*
G36*
X0084470Y0140730D02*
X0086310Y0138890D01*
X0082510Y0135090D01*
X0080670Y0136930D01*
X0084470Y0140730D01*
G37*
D40*
X0035000Y0141860D03*
X0030000Y0141860D03*
X0025000Y0141860D03*
X0020000Y0141860D03*
X0020000Y0115640D03*
X0025000Y0115640D03*
X0030000Y0115640D03*
X0035000Y0115640D03*
D38*
X0035000Y0105000D03*
X0025000Y0105000D03*
X0015000Y0105000D03*
X0045000Y0105000D03*
X0055000Y0105000D03*
X0065000Y0105000D03*
X0075000Y0105000D03*
X0085000Y0105000D03*
X0085000Y0165000D03*
X0075000Y0165000D03*
X0065000Y0165000D03*
X0055000Y0165000D03*
X0045000Y0165000D03*
X0035000Y0165000D03*
X0025000Y0165000D03*
X0015000Y0165000D03*
D42*
X0024490Y0151250D03*
X0035510Y0151250D03*
X0010000Y0180000D02*
G75*
%LPD*%
D37*
X0010000Y0180000D02*
X0090000Y0180000D01*
X0090000Y0260000D01*
X0010000Y0260000D01*
X0010000Y0180000D01*
D32*
G36*
X0043030Y0225730D02*
X0046830Y0221930D01*
X0044990Y0220090D01*
X0041190Y0223890D01*
X0043030Y0225730D01*
G37*
G36*
X0045250Y0227950D02*
X0049050Y0224150D01*
X0047210Y0222310D01*
X0043410Y0226110D01*
X0045250Y0227950D01*
G37*
G36*
X0047480Y0230180D02*
X0051280Y0226380D01*
X0049440Y0224540D01*
X0045640Y0228340D01*
X0047480Y0230180D01*
G37*
G36*
X0049710Y0232410D02*
X0053510Y0228610D01*
X0051670Y0226770D01*
X0047870Y0230570D01*
X0049710Y0232410D01*
G37*
G36*
X0051930Y0234630D02*
X0055730Y0230830D01*
X0053890Y0228990D01*
X0050090Y0232790D01*
X0051930Y0234630D01*
G37*
G36*
X0054160Y0236860D02*
X0057960Y0233060D01*
X0056120Y0231220D01*
X0052320Y0235020D01*
X0054160Y0236860D01*
G37*
G36*
X0056390Y0239090D02*
X0060190Y0235290D01*
X0058350Y0233450D01*
X0054550Y0237250D01*
X0056390Y0239090D01*
G37*
G36*
X0058610Y0241310D02*
X0062410Y0237510D01*
X0060570Y0235670D01*
X0056770Y0239470D01*
X0058610Y0241310D01*
G37*
G36*
X0082510Y0217410D02*
X0086310Y0213610D01*
X0084470Y0211770D01*
X0080670Y0215570D01*
X0082510Y0217410D01*
G37*
G36*
X0080290Y0215190D02*
X0084090Y0211390D01*
X0082250Y0209550D01*
X0078450Y0213350D01*
X0080290Y0215190D01*
G37*
G36*
X0078060Y0212960D02*
X0081860Y0209160D01*
X0080020Y0207320D01*
X0076220Y0211120D01*
X0078060Y0212960D01*
G37*
G36*
X0075830Y0210730D02*
X0079630Y0206930D01*
X0077790Y0205090D01*
X0073990Y0208890D01*
X0075830Y0210730D01*
G37*
G36*
X0073610Y0208510D02*
X0077410Y0204710D01*
X0075570Y0202870D01*
X0071770Y0206670D01*
X0073610Y0208510D01*
G37*
G36*
X0071380Y0206280D02*
X0075180Y0202480D01*
X0073340Y0200640D01*
X0069540Y0204440D01*
X0071380Y0206280D01*
G37*
G36*
X0069150Y0204050D02*
X0072950Y0200250D01*
X0071110Y0198410D01*
X0067310Y0202210D01*
X0069150Y0204050D01*
G37*
G36*
X0066930Y0201830D02*
X0070730Y0198030D01*
X0068890Y0196190D01*
X0065090Y0199990D01*
X0066930Y0201830D01*
G37*
D23*
G36*
X0060570Y0201830D02*
X0062410Y0199990D01*
X0058610Y0196190D01*
X0056770Y0198030D01*
X0060570Y0201830D01*
G37*
G36*
X0058350Y0204050D02*
X0060190Y0202210D01*
X0056390Y0198410D01*
X0054550Y0200250D01*
X0058350Y0204050D01*
G37*
G36*
X0056120Y0206280D02*
X0057960Y0204440D01*
X0054160Y0200640D01*
X0052320Y0202480D01*
X0056120Y0206280D01*
G37*
G36*
X0053890Y0208510D02*
X0055730Y0206670D01*
X0051930Y0202870D01*
X0050090Y0204710D01*
X0053890Y0208510D01*
G37*
G36*
X0051670Y0210730D02*
X0053510Y0208890D01*
X0049710Y0205090D01*
X0047870Y0206930D01*
X0051670Y0210730D01*
G37*
G36*
X0049440Y0212960D02*
X0051280Y0211120D01*
X0047480Y0207320D01*
X0045640Y0209160D01*
X0049440Y0212960D01*
G37*
G36*
X0047210Y0215190D02*
X0049050Y0213350D01*
X0045250Y0209550D01*
X0043410Y0211390D01*
X0047210Y0215190D01*
G37*
G36*
X0044990Y0217410D02*
X0046830Y0215570D01*
X0043030Y0211770D01*
X0041190Y0213610D01*
X0044990Y0217410D01*
G37*
G36*
X0068890Y0241310D02*
X0070730Y0239470D01*
X0066930Y0235670D01*
X0065090Y0237510D01*
X0068890Y0241310D01*
G37*
G36*
X0071110Y0239090D02*
X0072950Y0237250D01*
X0069150Y0233450D01*
X0067310Y0235290D01*
X0071110Y0239090D01*
G37*
G36*
X0073340Y0236860D02*
X0075180Y0235020D01*
X0071380Y0231220D01*
X0069540Y0233060D01*
X0073340Y0236860D01*
G37*
G36*
X0075570Y0234630D02*
X0077410Y0232790D01*
X0073610Y0228990D01*
X0071770Y0230830D01*
X0075570Y0234630D01*
G37*
G36*
X0077790Y0232410D02*
X0079630Y0230570D01*
X0075830Y0226770D01*
X0073990Y0228610D01*
X0077790Y0232410D01*
G37*
G36*
X0080020Y0230180D02*
X0081860Y0228340D01*
X0078060Y0224540D01*
X0076220Y0226380D01*
X0080020Y0230180D01*
G37*
G36*
X0082250Y0227950D02*
X0084090Y0226110D01*
X0080290Y0222310D01*
X0078450Y0224150D01*
X0082250Y0227950D01*
G37*
G36*
X0084470Y0225730D02*
X0086310Y0223890D01*
X0082510Y0220090D01*
X0080670Y0221930D01*
X0084470Y0225730D01*
G37*
D40*
X0035000Y0226860D03*
X0030000Y0226860D03*
X0025000Y0226860D03*
X0020000Y0226860D03*
X0020000Y0200640D03*
X0025000Y0200640D03*
X0030000Y0200640D03*
X0035000Y0200640D03*
D38*
X0035000Y0190000D03*
X0025000Y0190000D03*
X0015000Y0190000D03*
X0045000Y0190000D03*
X0055000Y0190000D03*
X0065000Y0190000D03*
X0075000Y0190000D03*
X0085000Y0190000D03*
X0085000Y0250000D03*
X0075000Y0250000D03*
X0065000Y0250000D03*
X0055000Y0250000D03*
X0045000Y0250000D03*
X0035000Y0250000D03*
X0025000Y0250000D03*
X0015000Y0250000D03*
D42*
X0024490Y0236250D03*
X0035510Y0236250D03*
X0095000Y0010000D02*
G75*
%LPD*%
D37*
X0095000Y0010000D02*
X0175000Y0010000D01*
X0175000Y0090000D01*
X0095000Y0090000D01*
X0095000Y0010000D01*
D32*
G36*
X0128030Y0055730D02*
X0131830Y0051930D01*
X0129990Y0050090D01*
X0126190Y0053890D01*
X0128030Y0055730D01*
G37*
G36*
X0130250Y0057950D02*
X0134050Y0054150D01*
X0132210Y0052310D01*
X0128410Y0056110D01*
X0130250Y0057950D01*
G37*
G36*
X0132480Y0060180D02*
X0136280Y0056380D01*
X0134440Y0054540D01*
X0130640Y0058340D01*
X0132480Y0060180D01*
G37*
G36*
X0134710Y0062410D02*
X0138510Y0058610D01*
X0136670Y0056770D01*
X0132870Y0060570D01*
X0134710Y0062410D01*
G37*
G36*
X0136930Y0064630D02*
X0140730Y0060830D01*
X0138890Y0058990D01*
X0135090Y0062790D01*
X0136930Y0064630D01*
G37*
G36*
X0139160Y0066860D02*
X0142960Y0063060D01*
X0141120Y0061220D01*
X0137320Y0065020D01*
X0139160Y0066860D01*
G37*
G36*
X0141390Y0069090D02*
X0145190Y0065290D01*
X0143350Y0063450D01*
X0139550Y0067250D01*
X0141390Y0069090D01*
G37*
G36*
X0143610Y0071310D02*
X0147410Y0067510D01*
X0145570Y0065670D01*
X0141770Y0069470D01*
X0143610Y0071310D01*
G37*
G36*
X0167510Y0047410D02*
X0171310Y0043610D01*
X0169470Y0041770D01*
X0165670Y0045570D01*
X0167510Y0047410D01*
G37*
G36*
X0165290Y0045190D02*
X0169090Y0041390D01*
X0167250Y0039550D01*
X0163450Y0043350D01*
X0165290Y0045190D01*
G37*
G36*
X0163060Y0042960D02*
X0166860Y0039160D01*
X0165020Y0037320D01*
X0161220Y0041120D01*
X0163060Y0042960D01*
G37*
G36*
X0160830Y0040730D02*
X0164630Y0036930D01*
X0162790Y0035090D01*
X0158990Y0038890D01*
X0160830Y0040730D01*
G37*
G36*
X0158610Y0038510D02*
X0162410Y0034710D01*
X0160570Y0032870D01*
X0156770Y0036670D01*
X0158610Y0038510D01*
G37*
G36*
X0156380Y0036280D02*
X0160180Y0032480D01*
X0158340Y0030640D01*
X0154540Y0034440D01*
X0156380Y0036280D01*
G37*
G36*
X0154150Y0034050D02*
X0157950Y0030250D01*
X0156110Y0028410D01*
X0152310Y0032210D01*
X0154150Y0034050D01*
G37*
G36*
X0151930Y0031830D02*
X0155730Y0028030D01*
X0153890Y0026190D01*
X0150090Y0029990D01*
X0151930Y0031830D01*
G37*
D23*
G36*
X0145570Y0031830D02*
X0147410Y0029990D01*
X0143610Y0026190D01*
X0141770Y0028030D01*
X0145570Y0031830D01*
G37*
G36*
X0143350Y0034050D02*
X0145190Y0032210D01*
X0141390Y0028410D01*
X0139550Y0030250D01*
X0143350Y0034050D01*
G37*
G36*
X0141120Y0036280D02*
X0142960Y0034440D01*
X0139160Y0030640D01*
X0137320Y0032480D01*
X0141120Y0036280D01*
G37*
G36*
X0138890Y0038510D02*
X0140730Y0036670D01*
X0136930Y0032870D01*
X0135090Y0034710D01*
X0138890Y0038510D01*
G37*
G36*
X0136670Y0040730D02*
X0138510Y0038890D01*
X0134710Y0035090D01*
X0132870Y0036930D01*
X0136670Y0040730D01*
G37*
G36*
X0134440Y0042960D02*
X0136280Y0041120D01*
X0132480Y0037320D01*
X0130640Y0039160D01*
X0134440Y0042960D01*
G37*
G36*
X0132210Y0045190D02*
X0134050Y0043350D01*
X0130250Y0039550D01*
X0128410Y0041390D01*
X0132210Y0045190D01*
G37*
G36*
X0129990Y0047410D02*
X0131830Y0045570D01*
X0128030Y0041770D01*
X0126190Y0043610D01*
X0129990Y0047410D01*
G37*
G36*
X0153890Y0071310D02*
X0155730Y0069470D01*
X0151930Y0065670D01*
X0150090Y0067510D01*
X0153890Y0071310D01*
G37*
G36*
X0156110Y0069090D02*
X0157950Y0067250D01*
X0154150Y0063450D01*
X0152310Y0065290D01*
X0156110Y0069090D01*
G37*
G36*
X0158340Y0066860D02*
X0160180Y0065020D01*
X0156380Y0061220D01*
X0154540Y0063060D01*
X0158340Y0066860D01*
G37*
G36*
X0160570Y0064630D02*
X0162410Y0062790D01*
X0158610Y0058990D01*
X0156770Y0060830D01*
X0160570Y0064630D01*
G37*
G36*
X0162790Y0062410D02*
X0164630Y0060570D01*
X0160830Y0056770D01*
X0158990Y0058610D01*
X0162790Y0062410D01*
G37*
G36*
X0165020Y0060180D02*
X0166860Y0058340D01*
X0163060Y0054540D01*
X0161220Y0056380D01*
X0165020Y0060180D01*
G37*
G36*
X0167250Y0057950D02*
X0169090Y0056110D01*
X0165290Y0052310D01*
X0163450Y0054150D01*
X0167250Y0057950D01*
G37*
G36*
X0169470Y0055730D02*
X0171310Y0053890D01*
X0167510Y0050090D01*
X0165670Y0051930D01*
X0169470Y0055730D01*
G37*
D40*
X0120000Y0056860D03*
X0115000Y0056860D03*
X0110000Y0056860D03*
X0105000Y0056860D03*
X0105000Y0030640D03*
X0110000Y0030640D03*
X0115000Y0030640D03*
X0120000Y0030640D03*
D38*
X0120000Y0020000D03*
X0110000Y0020000D03*
X0100000Y0020000D03*
X0130000Y0020000D03*
X0140000Y0020000D03*
X0150000Y0020000D03*
X0160000Y0020000D03*
X0170000Y0020000D03*
X0170000Y0080000D03*
X0160000Y0080000D03*
X0150000Y0080000D03*
X0140000Y0080000D03*
X0130000Y0080000D03*
X0120000Y0080000D03*
X0110000Y0080000D03*
X0100000Y0080000D03*
D42*
X0109490Y0066250D03*
X0120510Y0066250D03*
X0095000Y0095000D02*
G75*
%LPD*%
D37*
X0095000Y0095000D02*
X0175000Y0095000D01*
X0175000Y0175000D01*
X0095000Y0175000D01*
X0095000Y0095000D01*
D32*
G36*
X0128030Y0140730D02*
X0131830Y0136930D01*
X0129990Y0135090D01*
X0126190Y0138890D01*
X0128030Y0140730D01*
G37*
G36*
X0130250Y0142950D02*
X0134050Y0139150D01*
X0132210Y0137310D01*
X0128410Y0141110D01*
X0130250Y0142950D01*
G37*
G36*
X0132480Y0145180D02*
X0136280Y0141380D01*
X0134440Y0139540D01*
X0130640Y0143340D01*
X0132480Y0145180D01*
G37*
G36*
X0134710Y0147410D02*
X0138510Y0143610D01*
X0136670Y0141770D01*
X0132870Y0145570D01*
X0134710Y0147410D01*
G37*
G36*
X0136930Y0149630D02*
X0140730Y0145830D01*
X0138890Y0143990D01*
X0135090Y0147790D01*
X0136930Y0149630D01*
G37*
G36*
X0139160Y0151860D02*
X0142960Y0148060D01*
X0141120Y0146220D01*
X0137320Y0150020D01*
X0139160Y0151860D01*
G37*
G36*
X0141390Y0154090D02*
X0145190Y0150290D01*
X0143350Y0148450D01*
X0139550Y0152250D01*
X0141390Y0154090D01*
G37*
G36*
X0143610Y0156310D02*
X0147410Y0152510D01*
X0145570Y0150670D01*
X0141770Y0154470D01*
X0143610Y0156310D01*
G37*
G36*
X0167510Y0132410D02*
X0171310Y0128610D01*
X0169470Y0126770D01*
X0165670Y0130570D01*
X0167510Y0132410D01*
G37*
G36*
X0165290Y0130190D02*
X0169090Y0126390D01*
X0167250Y0124550D01*
X0163450Y0128350D01*
X0165290Y0130190D01*
G37*
G36*
X0163060Y0127960D02*
X0166860Y0124160D01*
X0165020Y0122320D01*
X0161220Y0126120D01*
X0163060Y0127960D01*
G37*
G36*
X0160830Y0125730D02*
X0164630Y0121930D01*
X0162790Y0120090D01*
X0158990Y0123890D01*
X0160830Y0125730D01*
G37*
G36*
X0158610Y0123510D02*
X0162410Y0119710D01*
X0160570Y0117870D01*
X0156770Y0121670D01*
X0158610Y0123510D01*
G37*
G36*
X0156380Y0121280D02*
X0160180Y0117480D01*
X0158340Y0115640D01*
X0154540Y0119440D01*
X0156380Y0121280D01*
G37*
G36*
X0154150Y0119050D02*
X0157950Y0115250D01*
X0156110Y0113410D01*
X0152310Y0117210D01*
X0154150Y0119050D01*
G37*
G36*
X0151930Y0116830D02*
X0155730Y0113030D01*
X0153890Y0111190D01*
X0150090Y0114990D01*
X0151930Y0116830D01*
G37*
D23*
G36*
X0145570Y0116830D02*
X0147410Y0114990D01*
X0143610Y0111190D01*
X0141770Y0113030D01*
X0145570Y0116830D01*
G37*
G36*
X0143350Y0119050D02*
X0145190Y0117210D01*
X0141390Y0113410D01*
X0139550Y0115250D01*
X0143350Y0119050D01*
G37*
G36*
X0141120Y0121280D02*
X0142960Y0119440D01*
X0139160Y0115640D01*
X0137320Y0117480D01*
X0141120Y0121280D01*
G37*
G36*
X0138890Y0123510D02*
X0140730Y0121670D01*
X0136930Y0117870D01*
X0135090Y0119710D01*
X0138890Y0123510D01*
G37*
G36*
X0136670Y0125730D02*
X0138510Y0123890D01*
X0134710Y0120090D01*
X0132870Y0121930D01*
X0136670Y0125730D01*
G37*
G36*
X0134440Y0127960D02*
X0136280Y0126120D01*
X0132480Y0122320D01*
X0130640Y0124160D01*
X0134440Y0127960D01*
G37*
G36*
X0132210Y0130190D02*
X0134050Y0128350D01*
X0130250Y0124550D01*
X0128410Y0126390D01*
X0132210Y0130190D01*
G37*
G36*
X0129990Y0132410D02*
X0131830Y0130570D01*
X0128030Y0126770D01*
X0126190Y0128610D01*
X0129990Y0132410D01*
G37*
G36*
X0153890Y0156310D02*
X0155730Y0154470D01*
X0151930Y0150670D01*
X0150090Y0152510D01*
X0153890Y0156310D01*
G37*
G36*
X0156110Y0154090D02*
X0157950Y0152250D01*
X0154150Y0148450D01*
X0152310Y0150290D01*
X0156110Y0154090D01*
G37*
G36*
X0158340Y0151860D02*
X0160180Y0150020D01*
X0156380Y0146220D01*
X0154540Y0148060D01*
X0158340Y0151860D01*
G37*
G36*
X0160570Y0149630D02*
X0162410Y0147790D01*
X0158610Y0143990D01*
X0156770Y0145830D01*
X0160570Y0149630D01*
G37*
G36*
X0162790Y0147410D02*
X0164630Y0145570D01*
X0160830Y0141770D01*
X0158990Y0143610D01*
X0162790Y0147410D01*
G37*
G36*
X0165020Y0145180D02*
X0166860Y0143340D01*
X0163060Y0139540D01*
X0161220Y0141380D01*
X0165020Y0145180D01*
G37*
G36*
X0167250Y0142950D02*
X0169090Y0141110D01*
X0165290Y0137310D01*
X0163450Y0139150D01*
X0167250Y0142950D01*
G37*
G36*
X0169470Y0140730D02*
X0171310Y0138890D01*
X0167510Y0135090D01*
X0165670Y0136930D01*
X0169470Y0140730D01*
G37*
D40*
X0120000Y0141860D03*
X0115000Y0141860D03*
X0110000Y0141860D03*
X0105000Y0141860D03*
X0105000Y0115640D03*
X0110000Y0115640D03*
X0115000Y0115640D03*
X0120000Y0115640D03*
D38*
X0120000Y0105000D03*
X0110000Y0105000D03*
X0100000Y0105000D03*
X0130000Y0105000D03*
X0140000Y0105000D03*
X0150000Y0105000D03*
X0160000Y0105000D03*
X0170000Y0105000D03*
X0170000Y0165000D03*
X0160000Y0165000D03*
X0150000Y0165000D03*
X0140000Y0165000D03*
X0130000Y0165000D03*
X0120000Y0165000D03*
X0110000Y0165000D03*
X0100000Y0165000D03*
D42*
X0109490Y0151250D03*
X0120510Y0151250D03*
X0095000Y0180000D02*
G75*
%LPD*%
D37*
X0095000Y0180000D02*
X0175000Y0180000D01*
X0175000Y0260000D01*
X0095000Y0260000D01*
X0095000Y0180000D01*
D32*
G36*
X0128030Y0225730D02*
X0131830Y0221930D01*
X0129990Y0220090D01*
X0126190Y0223890D01*
X0128030Y0225730D01*
G37*
G36*
X0130250Y0227950D02*
X0134050Y0224150D01*
X0132210Y0222310D01*
X0128410Y0226110D01*
X0130250Y0227950D01*
G37*
G36*
X0132480Y0230180D02*
X0136280Y0226380D01*
X0134440Y0224540D01*
X0130640Y0228340D01*
X0132480Y0230180D01*
G37*
G36*
X0134710Y0232410D02*
X0138510Y0228610D01*
X0136670Y0226770D01*
X0132870Y0230570D01*
X0134710Y0232410D01*
G37*
G36*
X0136930Y0234630D02*
X0140730Y0230830D01*
X0138890Y0228990D01*
X0135090Y0232790D01*
X0136930Y0234630D01*
G37*
G36*
X0139160Y0236860D02*
X0142960Y0233060D01*
X0141120Y0231220D01*
X0137320Y0235020D01*
X0139160Y0236860D01*
G37*
G36*
X0141390Y0239090D02*
X0145190Y0235290D01*
X0143350Y0233450D01*
X0139550Y0237250D01*
X0141390Y0239090D01*
G37*
G36*
X0143610Y0241310D02*
X0147410Y0237510D01*
X0145570Y0235670D01*
X0141770Y0239470D01*
X0143610Y0241310D01*
G37*
G36*
X0167510Y0217410D02*
X0171310Y0213610D01*
X0169470Y0211770D01*
X0165670Y0215570D01*
X0167510Y0217410D01*
G37*
G36*
X0165290Y0215190D02*
X0169090Y0211390D01*
X0167250Y0209550D01*
X0163450Y0213350D01*
X0165290Y0215190D01*
G37*
G36*
X0163060Y0212960D02*
X0166860Y0209160D01*
X0165020Y0207320D01*
X0161220Y0211120D01*
X0163060Y0212960D01*
G37*
G36*
X0160830Y0210730D02*
X0164630Y0206930D01*
X0162790Y0205090D01*
X0158990Y0208890D01*
X0160830Y0210730D01*
G37*
G36*
X0158610Y0208510D02*
X0162410Y0204710D01*
X0160570Y0202870D01*
X0156770Y0206670D01*
X0158610Y0208510D01*
G37*
G36*
X0156380Y0206280D02*
X0160180Y0202480D01*
X0158340Y0200640D01*
X0154540Y0204440D01*
X0156380Y0206280D01*
G37*
G36*
X0154150Y0204050D02*
X0157950Y0200250D01*
X0156110Y0198410D01*
X0152310Y0202210D01*
X0154150Y0204050D01*
G37*
G36*
X0151930Y0201830D02*
X0155730Y0198030D01*
X0153890Y0196190D01*
X0150090Y0199990D01*
X0151930Y0201830D01*
G37*
D23*
G36*
X0145570Y0201830D02*
X0147410Y0199990D01*
X0143610Y0196190D01*
X0141770Y0198030D01*
X0145570Y0201830D01*
G37*
G36*
X0143350Y0204050D02*
X0145190Y0202210D01*
X0141390Y0198410D01*
X0139550Y0200250D01*
X0143350Y0204050D01*
G37*
G36*
X0141120Y0206280D02*
X0142960Y0204440D01*
X0139160Y0200640D01*
X0137320Y0202480D01*
X0141120Y0206280D01*
G37*
G36*
X0138890Y0208510D02*
X0140730Y0206670D01*
X0136930Y0202870D01*
X0135090Y0204710D01*
X0138890Y0208510D01*
G37*
G36*
X0136670Y0210730D02*
X0138510Y0208890D01*
X0134710Y0205090D01*
X0132870Y0206930D01*
X0136670Y0210730D01*
G37*
G36*
X0134440Y0212960D02*
X0136280Y0211120D01*
X0132480Y0207320D01*
X0130640Y0209160D01*
X0134440Y0212960D01*
G37*
G36*
X0132210Y0215190D02*
X0134050Y0213350D01*
X0130250Y0209550D01*
X0128410Y0211390D01*
X0132210Y0215190D01*
G37*
G36*
X0129990Y0217410D02*
X0131830Y0215570D01*
X0128030Y0211770D01*
X0126190Y0213610D01*
X0129990Y0217410D01*
G37*
G36*
X0153890Y0241310D02*
X0155730Y0239470D01*
X0151930Y0235670D01*
X0150090Y0237510D01*
X0153890Y0241310D01*
G37*
G36*
X0156110Y0239090D02*
X0157950Y0237250D01*
X0154150Y0233450D01*
X0152310Y0235290D01*
X0156110Y0239090D01*
G37*
G36*
X0158340Y0236860D02*
X0160180Y0235020D01*
X0156380Y0231220D01*
X0154540Y0233060D01*
X0158340Y0236860D01*
G37*
G36*
X0160570Y0234630D02*
X0162410Y0232790D01*
X0158610Y0228990D01*
X0156770Y0230830D01*
X0160570Y0234630D01*
G37*
G36*
X0162790Y0232410D02*
X0164630Y0230570D01*
X0160830Y0226770D01*
X0158990Y0228610D01*
X0162790Y0232410D01*
G37*
G36*
X0165020Y0230180D02*
X0166860Y0228340D01*
X0163060Y0224540D01*
X0161220Y0226380D01*
X0165020Y0230180D01*
G37*
G36*
X0167250Y0227950D02*
X0169090Y0226110D01*
X0165290Y0222310D01*
X0163450Y0224150D01*
X0167250Y0227950D01*
G37*
G36*
X0169470Y0225730D02*
X0171310Y0223890D01*
X0167510Y0220090D01*
X0165670Y0221930D01*
X0169470Y0225730D01*
G37*
D40*
X0120000Y0226860D03*
X0115000Y0226860D03*
X0110000Y0226860D03*
X0105000Y0226860D03*
X0105000Y0200640D03*
X0110000Y0200640D03*
X0115000Y0200640D03*
X0120000Y0200640D03*
D38*
X0120000Y0190000D03*
X0110000Y0190000D03*
X0100000Y0190000D03*
X0130000Y0190000D03*
X0140000Y0190000D03*
X0150000Y0190000D03*
X0160000Y0190000D03*
X0170000Y0190000D03*
X0170000Y0250000D03*
X0160000Y0250000D03*
X0150000Y0250000D03*
X0140000Y0250000D03*
X0130000Y0250000D03*
X0120000Y0250000D03*
X0110000Y0250000D03*
X0100000Y0250000D03*
D42*
X0109490Y0236250D03*
X0120510Y0236250D03*
X0180000Y0010000D02*
G75*
%LPD*%
D37*
X0180000Y0010000D02*
X0260000Y0010000D01*
X0260000Y0090000D01*
X0180000Y0090000D01*
X0180000Y0010000D01*
D32*
G36*
X0213030Y0055730D02*
X0216830Y0051930D01*
X0214990Y0050090D01*
X0211190Y0053890D01*
X0213030Y0055730D01*
G37*
G36*
X0215250Y0057950D02*
X0219050Y0054150D01*
X0217210Y0052310D01*
X0213410Y0056110D01*
X0215250Y0057950D01*
G37*
G36*
X0217480Y0060180D02*
X0221280Y0056380D01*
X0219440Y0054540D01*
X0215640Y0058340D01*
X0217480Y0060180D01*
G37*
G36*
X0219710Y0062410D02*
X0223510Y0058610D01*
X0221670Y0056770D01*
X0217870Y0060570D01*
X0219710Y0062410D01*
G37*
G36*
X0221930Y0064630D02*
X0225730Y0060830D01*
X0223890Y0058990D01*
X0220090Y0062790D01*
X0221930Y0064630D01*
G37*
G36*
X0224160Y0066860D02*
X0227960Y0063060D01*
X0226120Y0061220D01*
X0222320Y0065020D01*
X0224160Y0066860D01*
G37*
G36*
X0226390Y0069090D02*
X0230190Y0065290D01*
X0228350Y0063450D01*
X0224550Y0067250D01*
X0226390Y0069090D01*
G37*
G36*
X0228610Y0071310D02*
X0232410Y0067510D01*
X0230570Y0065670D01*
X0226770Y0069470D01*
X0228610Y0071310D01*
G37*
G36*
X0252510Y0047410D02*
X0256310Y0043610D01*
X0254470Y0041770D01*
X0250670Y0045570D01*
X0252510Y0047410D01*
G37*
G36*
X0250290Y0045190D02*
X0254090Y0041390D01*
X0252250Y0039550D01*
X0248450Y0043350D01*
X0250290Y0045190D01*
G37*
G36*
X0248060Y0042960D02*
X0251860Y0039160D01*
X0250020Y0037320D01*
X0246220Y0041120D01*
X0248060Y0042960D01*
G37*
G36*
X0245830Y0040730D02*
X0249630Y0036930D01*
X0247790Y0035090D01*
X0243990Y0038890D01*
X0245830Y0040730D01*
G37*
G36*
X0243610Y0038510D02*
X0247410Y0034710D01*
X0245570Y0032870D01*
X0241770Y0036670D01*
X0243610Y0038510D01*
G37*
G36*
X0241380Y0036280D02*
X0245180Y0032480D01*
X0243340Y0030640D01*
X0239540Y0034440D01*
X0241380Y0036280D01*
G37*
G36*
X0239150Y0034050D02*
X0242950Y0030250D01*
X0241110Y0028410D01*
X0237310Y0032210D01*
X0239150Y0034050D01*
G37*
G36*
X0236930Y0031830D02*
X0240730Y0028030D01*
X0238890Y0026190D01*
X0235090Y0029990D01*
X0236930Y0031830D01*
G37*
D23*
G36*
X0230570Y0031830D02*
X0232410Y0029990D01*
X0228610Y0026190D01*
X0226770Y0028030D01*
X0230570Y0031830D01*
G37*
G36*
X0228350Y0034050D02*
X0230190Y0032210D01*
X0226390Y0028410D01*
X0224550Y0030250D01*
X0228350Y0034050D01*
G37*
G36*
X0226120Y0036280D02*
X0227960Y0034440D01*
X0224160Y0030640D01*
X0222320Y0032480D01*
X0226120Y0036280D01*
G37*
G36*
X0223890Y0038510D02*
X0225730Y0036670D01*
X0221930Y0032870D01*
X0220090Y0034710D01*
X0223890Y0038510D01*
G37*
G36*
X0221670Y0040730D02*
X0223510Y0038890D01*
X0219710Y0035090D01*
X0217870Y0036930D01*
X0221670Y0040730D01*
G37*
G36*
X0219440Y0042960D02*
X0221280Y0041120D01*
X0217480Y0037320D01*
X0215640Y0039160D01*
X0219440Y0042960D01*
G37*
G36*
X0217210Y0045190D02*
X0219050Y0043350D01*
X0215250Y0039550D01*
X0213410Y0041390D01*
X0217210Y0045190D01*
G37*
G36*
X0214990Y0047410D02*
X0216830Y0045570D01*
X0213030Y0041770D01*
X0211190Y0043610D01*
X0214990Y0047410D01*
G37*
G36*
X0238890Y0071310D02*
X0240730Y0069470D01*
X0236930Y0065670D01*
X0235090Y0067510D01*
X0238890Y0071310D01*
G37*
G36*
X0241110Y0069090D02*
X0242950Y0067250D01*
X0239150Y0063450D01*
X0237310Y0065290D01*
X0241110Y0069090D01*
G37*
G36*
X0243340Y0066860D02*
X0245180Y0065020D01*
X0241380Y0061220D01*
X0239540Y0063060D01*
X0243340Y0066860D01*
G37*
G36*
X0245570Y0064630D02*
X0247410Y0062790D01*
X0243610Y0058990D01*
X0241770Y0060830D01*
X0245570Y0064630D01*
G37*
G36*
X0247790Y0062410D02*
X0249630Y0060570D01*
X0245830Y0056770D01*
X0243990Y0058610D01*
X0247790Y0062410D01*
G37*
G36*
X0250020Y0060180D02*
X0251860Y0058340D01*
X0248060Y0054540D01*
X0246220Y0056380D01*
X0250020Y0060180D01*
G37*
G36*
X0252250Y0057950D02*
X0254090Y0056110D01*
X0250290Y0052310D01*
X0248450Y0054150D01*
X0252250Y0057950D01*
G37*
G36*
X0254470Y0055730D02*
X0256310Y0053890D01*
X0252510Y0050090D01*
X0250670Y0051930D01*
X0254470Y0055730D01*
G37*
D40*
X0205000Y0056860D03*
X0200000Y0056860D03*
X0195000Y0056860D03*
X0190000Y0056860D03*
X0190000Y0030640D03*
X0195000Y0030640D03*
X0200000Y0030640D03*
X0205000Y0030640D03*
D38*
X0205000Y0020000D03*
X0195000Y0020000D03*
X0185000Y0020000D03*
X0215000Y0020000D03*
X0225000Y0020000D03*
X0235000Y0020000D03*
X0245000Y0020000D03*
X0255000Y0020000D03*
X0255000Y0080000D03*
X0245000Y0080000D03*
X0235000Y0080000D03*
X0225000Y0080000D03*
X0215000Y0080000D03*
X0205000Y0080000D03*
X0195000Y0080000D03*
X0185000Y0080000D03*
D42*
X0194490Y0066250D03*
X0205510Y0066250D03*
X0180000Y0095000D02*
G75*
%LPD*%
D37*
X0180000Y0095000D02*
X0260000Y0095000D01*
X0260000Y0175000D01*
X0180000Y0175000D01*
X0180000Y0095000D01*
D32*
G36*
X0213030Y0140730D02*
X0216830Y0136930D01*
X0214990Y0135090D01*
X0211190Y0138890D01*
X0213030Y0140730D01*
G37*
G36*
X0215250Y0142950D02*
X0219050Y0139150D01*
X0217210Y0137310D01*
X0213410Y0141110D01*
X0215250Y0142950D01*
G37*
G36*
X0217480Y0145180D02*
X0221280Y0141380D01*
X0219440Y0139540D01*
X0215640Y0143340D01*
X0217480Y0145180D01*
G37*
G36*
X0219710Y0147410D02*
X0223510Y0143610D01*
X0221670Y0141770D01*
X0217870Y0145570D01*
X0219710Y0147410D01*
G37*
G36*
X0221930Y0149630D02*
X0225730Y0145830D01*
X0223890Y0143990D01*
X0220090Y0147790D01*
X0221930Y0149630D01*
G37*
G36*
X0224160Y0151860D02*
X0227960Y0148060D01*
X0226120Y0146220D01*
X0222320Y0150020D01*
X0224160Y0151860D01*
G37*
G36*
X0226390Y0154090D02*
X0230190Y0150290D01*
X0228350Y0148450D01*
X0224550Y0152250D01*
X0226390Y0154090D01*
G37*
G36*
X0228610Y0156310D02*
X0232410Y0152510D01*
X0230570Y0150670D01*
X0226770Y0154470D01*
X0228610Y0156310D01*
G37*
G36*
X0252510Y0132410D02*
X0256310Y0128610D01*
X0254470Y0126770D01*
X0250670Y0130570D01*
X0252510Y0132410D01*
G37*
G36*
X0250290Y0130190D02*
X0254090Y0126390D01*
X0252250Y0124550D01*
X0248450Y0128350D01*
X0250290Y0130190D01*
G37*
G36*
X0248060Y0127960D02*
X0251860Y0124160D01*
X0250020Y0122320D01*
X0246220Y0126120D01*
X0248060Y0127960D01*
G37*
G36*
X0245830Y0125730D02*
X0249630Y0121930D01*
X0247790Y0120090D01*
X0243990Y0123890D01*
X0245830Y0125730D01*
G37*
G36*
X0243610Y0123510D02*
X0247410Y0119710D01*
X0245570Y0117870D01*
X0241770Y0121670D01*
X0243610Y0123510D01*
G37*
G36*
X0241380Y0121280D02*
X0245180Y0117480D01*
X0243340Y0115640D01*
X0239540Y0119440D01*
X0241380Y0121280D01*
G37*
G36*
X0239150Y0119050D02*
X0242950Y0115250D01*
X0241110Y0113410D01*
X0237310Y0117210D01*
X0239150Y0119050D01*
G37*
G36*
X0236930Y0116830D02*
X0240730Y0113030D01*
X0238890Y0111190D01*
X0235090Y0114990D01*
X0236930Y0116830D01*
G37*
D23*
G36*
X0230570Y0116830D02*
X0232410Y0114990D01*
X0228610Y0111190D01*
X0226770Y0113030D01*
X0230570Y0116830D01*
G37*
G36*
X0228350Y0119050D02*
X0230190Y0117210D01*
X0226390Y0113410D01*
X0224550Y0115250D01*
X0228350Y0119050D01*
G37*
G36*
X0226120Y0121280D02*
X0227960Y0119440D01*
X0224160Y0115640D01*
X0222320Y0117480D01*
X0226120Y0121280D01*
G37*
G36*
X0223890Y0123510D02*
X0225730Y0121670D01*
X0221930Y0117870D01*
X0220090Y0119710D01*
X0223890Y0123510D01*
G37*
G36*
X0221670Y0125730D02*
X0223510Y0123890D01*
X0219710Y0120090D01*
X0217870Y0121930D01*
X0221670Y0125730D01*
G37*
G36*
X0219440Y0127960D02*
X0221280Y0126120D01*
X0217480Y0122320D01*
X0215640Y0124160D01*
X0219440Y0127960D01*
G37*
G36*
X0217210Y0130190D02*
X0219050Y0128350D01*
X0215250Y0124550D01*
X0213410Y0126390D01*
X0217210Y0130190D01*
G37*
G36*
X0214990Y0132410D02*
X0216830Y0130570D01*
X0213030Y0126770D01*
X0211190Y0128610D01*
X0214990Y0132410D01*
G37*
G36*
X0238890Y0156310D02*
X0240730Y0154470D01*
X0236930Y0150670D01*
X0235090Y0152510D01*
X0238890Y0156310D01*
G37*
G36*
X0241110Y0154090D02*
X0242950Y0152250D01*
X0239150Y0148450D01*
X0237310Y0150290D01*
X0241110Y0154090D01*
G37*
G36*
X0243340Y0151860D02*
X0245180Y0150020D01*
X0241380Y0146220D01*
X0239540Y0148060D01*
X0243340Y0151860D01*
G37*
G36*
X0245570Y0149630D02*
X0247410Y0147790D01*
X0243610Y0143990D01*
X0241770Y0145830D01*
X0245570Y0149630D01*
G37*
G36*
X0247790Y0147410D02*
X0249630Y0145570D01*
X0245830Y0141770D01*
X0243990Y0143610D01*
X0247790Y0147410D01*
G37*
G36*
X0250020Y0145180D02*
X0251860Y0143340D01*
X0248060Y0139540D01*
X0246220Y0141380D01*
X0250020Y0145180D01*
G37*
G36*
X0252250Y0142950D02*
X0254090Y0141110D01*
X0250290Y0137310D01*
X0248450Y0139150D01*
X0252250Y0142950D01*
G37*
G36*
X0254470Y0140730D02*
X0256310Y0138890D01*
X0252510Y0135090D01*
X0250670Y0136930D01*
X0254470Y0140730D01*
G37*
D40*
X0205000Y0141860D03*
X0200000Y0141860D03*
X0195000Y0141860D03*
X0190000Y0141860D03*
X0190000Y0115640D03*
X0195000Y0115640D03*
X0200000Y0115640D03*
X0205000Y0115640D03*
D38*
X0205000Y0105000D03*
X0195000Y0105000D03*
X0185000Y0105000D03*
X0215000Y0105000D03*
X0225000Y0105000D03*
X0235000Y0105000D03*
X0245000Y0105000D03*
X0255000Y0105000D03*
X0255000Y0165000D03*
X0245000Y0165000D03*
X0235000Y0165000D03*
X0225000Y0165000D03*
X0215000Y0165000D03*
X0205000Y0165000D03*
X0195000Y0165000D03*
X0185000Y0165000D03*
D42*
X0194490Y0151250D03*
X0205510Y0151250D03*
X0180000Y0180000D02*
G75*
%LPD*%
D37*
X0180000Y0180000D02*
X0260000Y0180000D01*
X0260000Y0260000D01*
X0180000Y0260000D01*
X0180000Y0180000D01*
D32*
G36*
X0213030Y0225730D02*
X0216830Y0221930D01*
X0214990Y0220090D01*
X0211190Y0223890D01*
X0213030Y0225730D01*
G37*
G36*
X0215250Y0227950D02*
X0219050Y0224150D01*
X0217210Y0222310D01*
X0213410Y0226110D01*
X0215250Y0227950D01*
G37*
G36*
X0217480Y0230180D02*
X0221280Y0226380D01*
X0219440Y0224540D01*
X0215640Y0228340D01*
X0217480Y0230180D01*
G37*
G36*
X0219710Y0232410D02*
X0223510Y0228610D01*
X0221670Y0226770D01*
X0217870Y0230570D01*
X0219710Y0232410D01*
G37*
G36*
X0221930Y0234630D02*
X0225730Y0230830D01*
X0223890Y0228990D01*
X0220090Y0232790D01*
X0221930Y0234630D01*
G37*
G36*
X0224160Y0236860D02*
X0227960Y0233060D01*
X0226120Y0231220D01*
X0222320Y0235020D01*
X0224160Y0236860D01*
G37*
G36*
X0226390Y0239090D02*
X0230190Y0235290D01*
X0228350Y0233450D01*
X0224550Y0237250D01*
X0226390Y0239090D01*
G37*
G36*
X0228610Y0241310D02*
X0232410Y0237510D01*
X0230570Y0235670D01*
X0226770Y0239470D01*
X0228610Y0241310D01*
G37*
G36*
X0252510Y0217410D02*
X0256310Y0213610D01*
X0254470Y0211770D01*
X0250670Y0215570D01*
X0252510Y0217410D01*
G37*
G36*
X0250290Y0215190D02*
X0254090Y0211390D01*
X0252250Y0209550D01*
X0248450Y0213350D01*
X0250290Y0215190D01*
G37*
G36*
X0248060Y0212960D02*
X0251860Y0209160D01*
X0250020Y0207320D01*
X0246220Y0211120D01*
X0248060Y0212960D01*
G37*
G36*
X0245830Y0210730D02*
X0249630Y0206930D01*
X0247790Y0205090D01*
X0243990Y0208890D01*
X0245830Y0210730D01*
G37*
G36*
X0243610Y0208510D02*
X0247410Y0204710D01*
X0245570Y0202870D01*
X0241770Y0206670D01*
X0243610Y0208510D01*
G37*
G36*
X0241380Y0206280D02*
X0245180Y0202480D01*
X0243340Y0200640D01*
X0239540Y0204440D01*
X0241380Y0206280D01*
G37*
G36*
X0239150Y0204050D02*
X0242950Y0200250D01*
X0241110Y0198410D01*
X0237310Y0202210D01*
X0239150Y0204050D01*
G37*
G36*
X0236930Y0201830D02*
X0240730Y0198030D01*
X0238890Y0196190D01*
X0235090Y0199990D01*
X0236930Y0201830D01*
G37*
D23*
G36*
X0230570Y0201830D02*
X0232410Y0199990D01*
X0228610Y0196190D01*
X0226770Y0198030D01*
X0230570Y0201830D01*
G37*
G36*
X0228350Y0204050D02*
X0230190Y0202210D01*
X0226390Y0198410D01*
X0224550Y0200250D01*
X0228350Y0204050D01*
G37*
G36*
X0226120Y0206280D02*
X0227960Y0204440D01*
X0224160Y0200640D01*
X0222320Y0202480D01*
X0226120Y0206280D01*
G37*
G36*
X0223890Y0208510D02*
X0225730Y0206670D01*
X0221930Y0202870D01*
X0220090Y0204710D01*
X0223890Y0208510D01*
G37*
G36*
X0221670Y0210730D02*
X0223510Y0208890D01*
X0219710Y0205090D01*
X0217870Y0206930D01*
X0221670Y0210730D01*
G37*
G36*
X0219440Y0212960D02*
X0221280Y0211120D01*
X0217480Y0207320D01*
X0215640Y0209160D01*
X0219440Y0212960D01*
G37*
G36*
X0217210Y0215190D02*
X0219050Y0213350D01*
X0215250Y0209550D01*
X0213410Y0211390D01*
X0217210Y0215190D01*
G37*
G36*
X0214990Y0217410D02*
X0216830Y0215570D01*
X0213030Y0211770D01*
X0211190Y0213610D01*
X0214990Y0217410D01*
G37*
G36*
X0238890Y0241310D02*
X0240730Y0239470D01*
X0236930Y0235670D01*
X0235090Y0237510D01*
X0238890Y0241310D01*
G37*
G36*
X0241110Y0239090D02*
X0242950Y0237250D01*
X0239150Y0233450D01*
X0237310Y0235290D01*
X0241110Y0239090D01*
G37*
G36*
X0243340Y0236860D02*
X0245180Y0235020D01*
X0241380Y0231220D01*
X0239540Y0233060D01*
X0243340Y0236860D01*
G37*
G36*
X0245570Y0234630D02*
X0247410Y0232790D01*
X0243610Y0228990D01*
X0241770Y0230830D01*
X0245570Y0234630D01*
G37*
G36*
X0247790Y0232410D02*
X0249630Y0230570D01*
X0245830Y0226770D01*
X0243990Y0228610D01*
X0247790Y0232410D01*
G37*
G36*
X0250020Y0230180D02*
X0251860Y0228340D01*
X0248060Y0224540D01*
X0246220Y0226380D01*
X0250020Y0230180D01*
G37*
G36*
X0252250Y0227950D02*
X0254090Y0226110D01*
X0250290Y0222310D01*
X0248450Y0224150D01*
X0252250Y0227950D01*
G37*
G36*
X0254470Y0225730D02*
X0256310Y0223890D01*
X0252510Y0220090D01*
X0250670Y0221930D01*
X0254470Y0225730D01*
G37*
D40*
X0205000Y0226860D03*
X0200000Y0226860D03*
X0195000Y0226860D03*
X0190000Y0226860D03*
X0190000Y0200640D03*
X0195000Y0200640D03*
X0200000Y0200640D03*
X0205000Y0200640D03*
D38*
X0205000Y0190000D03*
X0195000Y0190000D03*
X0185000Y0190000D03*
X0215000Y0190000D03*
X0225000Y0190000D03*
X0235000Y0190000D03*
X0245000Y0190000D03*
X0255000Y0190000D03*
X0255000Y0250000D03*
X0245000Y0250000D03*
X0235000Y0250000D03*
X0225000Y0250000D03*
X0215000Y0250000D03*
X0205000Y0250000D03*
X0195000Y0250000D03*
X0185000Y0250000D03*
D42*
X0194490Y0236250D03*
X0205510Y0236250D03*
M02*
